<svg id="Layer_1" data-name="Layer 1" xmlns="http://www.w3.org/2000/svg" viewBox="0 0 137.45 119.74"><defs><style>.cls-1{fill:#fff;}.cls-2,.cls-3{fill:#1a1a1a;}.cls-2{stroke:#1a1a1a;stroke-miterlimit:10;stroke-width:0.5px;}</style></defs><g id="Layer_2" data-name="Layer 2"><g id="Icon"><g id="Group_332" data-name="Group 332"><path class="cls-1" d="M14.22,61.92c1.67.92,3.18,1.89,4.81,2.62a43.94,43.94,0,0,0,20.71,3.57,26.42,26.42,0,0,0,13.1-3.81c5.69-3.66,8.18-8.91,7.38-15.64-.71-6-4.7-9.35-10-11.28-3.4-1.24-7-2-10.46-3a90.81,90.81,0,0,1-8.67-2.71c-3.41-1.4-4-5.27-1.34-7.88a8,8,0,0,1,4.34-2.15,27.65,27.65,0,0,1,16.71,2.31c1.08.48,2.14,1,3.27,1.57L58,15.86a2.64,2.64,0,0,0-.42-.35c-.41-.25-.83-.48-1.25-.7A39,39,0,0,0,37,10.89a28.43,28.43,0,0,0-13.56,3.5,15.67,15.67,0,0,0-6.59,20.43A14.28,14.28,0,0,0,25.67,42c4.61,1.44,9.33,2.52,13.95,3.92a24.05,24.05,0,0,1,6,2.55,4.23,4.23,0,0,1,.22,7.11A10.24,10.24,0,0,1,42,57.35a25.32,25.32,0,0,1-11.06-.08,32.25,32.25,0,0,1-12.29-5.16Z" transform="translate(0 -10.87)"/><path d="M14.22,61.92l4.43-9.81a32.25,32.25,0,0,0,12.29,5.16A25.32,25.32,0,0,0,42,57.35a10.24,10.24,0,0,0,3.85-1.8,4.23,4.23,0,0,0-.22-7.11,24.05,24.05,0,0,0-6-2.55C35,44.49,30.28,43.41,25.67,42a14.28,14.28,0,0,1-8.81-7.15,15.67,15.67,0,0,1,6.59-20.43A28.43,28.43,0,0,1,37,10.89a39,39,0,0,1,19.3,3.92c.42.22.84.45,1.25.7a2.64,2.64,0,0,1,.42.35l-3.9,9.63c-1.13-.55-2.19-1.09-3.27-1.57A27.65,27.65,0,0,0,34.1,21.61a8,8,0,0,0-4.34,2.15c-2.61,2.61-2.07,6.48,1.34,7.88a90.81,90.81,0,0,0,8.67,2.71c3.49,1,7.06,1.79,10.46,3,5.29,1.93,9.28,5.24,10,11.28.8,6.73-1.69,12-7.38,15.64a26.42,26.42,0,0,1-13.1,3.81A43.94,43.94,0,0,1,19,64.54C17.4,63.81,15.89,62.84,14.22,61.92Z" transform="translate(0 -10.87)"/><path class="cls-2" d="M68.2,118.46a11.94,11.94,0,0,0,.64-1.09c6.92-15.5,14.7-33.07,21.58-48.58a1.75,1.75,0,0,1,2-1.24c3,.07,4.53-.4,7.49-.43.68,0,1.58,2.7,1.88,3.36Q112.32,94.23,123,118c.07.18,2.13,4.78,2.27,5.15-1.3,0-2.39,1.12-3.56,1.12-2.4,0-4.93-.8-7.33-.74-.82,0-1.73-1.38-2-2.13-1.14-2.9-3.78-9.41-4.94-12.3a1.19,1.19,0,0,0-1.3-.91H85.26a1.2,1.2,0,0,0-1.29.93c-1.18,2.92-2.42,5.82-3.59,8.75a1.17,1.17,0,0,1-1.31.88H68.28ZM95.67,80.85,88,99.41h15.37C100.79,93.21,98.27,87.15,95.67,80.85Z" transform="translate(0 -10.87)"/></g><rect class="cls-3" x="63.69" y="51.82" width="9.96" height="136.99" transform="translate(-56.62 168.55) rotate(-85.54)"/><rect class="cls-3" x="0.28" y="63.08" width="136.99" height="9.96" transform="translate(-5.08 -5.31) rotate(-4.46)"/></g></g></svg>