<svg xmlns="http://www.w3.org/2000/svg" viewBox="0 0 137.45 130.6"><defs><style>.cls-1,.cls-2{isolation:isolate;}.cls-2{font-size:79.1px;font-family:Montserrat-Bold, Montserrat;font-weight:700;}.cls-2,.cls-3,.cls-4{fill:#1a1a1a;}.cls-3{stroke:#1a1a1a;stroke-miterlimit:10;stroke-width:0.5px;}</style></defs><g id="Layer_2" data-name="Layer 2"><g id="Icon"><g id="Group_332" data-name="Group 332"><g id="S" class="cls-1"><text class="cls-2" transform="translate(12.12 67.24)">S</text></g><path class="cls-3" d="M68.2,118.46a11.94,11.94,0,0,0,.64-1.09c6.92-15.5,14.7-33.07,21.58-48.58a1.75,1.75,0,0,1,2-1.24c3,.07,4.53-.4,7.49-.43.68,0,1.58,2.7,1.88,3.36Q112.32,94.23,123,118c.07.18,2.13,4.78,2.27,5.15-1.3,0-2.39,1.12-3.56,1.12-2.4,0-4.93-.8-7.33-.74-.82,0-1.73-1.38-2-2.13-1.14-2.9-3.78-9.41-4.94-12.3a1.2,1.2,0,0,0-1.3-.91q-10.44,0-20.88,0a1.2,1.2,0,0,0-1.29.93c-1.18,2.92-2.42,5.82-3.59,8.75a1.17,1.17,0,0,1-1.31.88c-3.6,0-7.2,0-10.79,0ZM95.67,80.85,88,99.41h15.37C100.79,93.21,98.27,87.15,95.67,80.85Z"/></g><rect class="cls-4" x="0.18" y="115.33" width="136.99" height="9.96" transform="translate(9.56 -4.97) rotate(4.46)"/><rect class="cls-4" x="0.27" y="63.08" width="136.99" height="9.96" transform="translate(142.62 130.57) rotate(175.54)"/></g></g></svg>