<svg xmlns="http://www.w3.org/2000/svg" xmlns:xlink="http://www.w3.org/1999/xlink" width="40" height="40" viewBox="0 0 40 40">
  <defs>
    <clipPath id="clip-print">
      <rect width="40" height="40"/>
    </clipPath>
  </defs>
  <g id="print" clip-path="url(#clip-print)">
    <g id="Group_294" data-name="Group 294" transform="translate(-112.855 -134.934)">
      <path id="Path_129" data-name="Path 129" d="M132.856,134.934a20,20,0,1,0,20,20A20,20,0,0,0,132.856,134.934ZM142,158.941h-3.254c-.006.129,0,.257-.014.385a7.223,7.223,0,0,0,1.16,3.669H129.283a6.619,6.619,0,0,1-.939-3.669c.017-.128.022-.256.034-.385h-4.665v-7.749h3.382v-4.319h11.819v4.319H142Z" transform="translate(0)" fill="#578e8e" style="isolation: isolate"/>
    </g>
  </g>
</svg>
