<svg xmlns="http://www.w3.org/2000/svg" xmlns:xlink="http://www.w3.org/1999/xlink" width="375" height="667" viewBox="0 0 375 667">
  <defs>
    <clipPath id="clip-bg-mobile-3">
      <rect width="375" height="667"/>
    </clipPath>
  </defs>
  <g id="bg-mobile-3" clip-path="url(#clip-bg-mobile-3)">
    <rect width="375" height="667" fill="#fff"/>
    <g id="Group_397" data-name="Group 397" transform="translate(14456.698 -5072.8) rotate(-90)">
      <g id="bg_wallpaper_gray-02" data-name="bg wallpaper gray-02" transform="translate(-5783 -14479)">
        <path id="Path_25497" data-name="Path 25497" d="M230.339,214.543c8.107,61.456-18.84,86-63.647,82.043-29.6-2.618-59.375-8.412-63.647-82.043-2.69-46.358,35.372-92.087,63.647-82.043C202,145.052,225.59,178.6,230.339,214.543Z" transform="translate(-102.911 -108.617)" fill="#90949c" opacity="0.25" style="isolation: isolate"/>
        <path id="Path_25498" data-name="Path 25498" d="M234.216,229.517c6.952,52.706-16.159,73.758-54.592,70.362-25.374-2.246-50.909-7.215-54.554-70.362-2.326-39.753,30.318-78.981,54.554-70.358C209.933,169.922,230.152,198.7,234.216,229.517Z" transform="translate(-115.631 -124.116)" fill="none" stroke="#1a1a1a" stroke-miterlimit="10" stroke-width="1" opacity="0.25"/>
        <path id="Path_25499" data-name="Path 25499" d="M237.229,240.947c6.124,46.456-14.239,65.008-48.109,62.019-22.376-1.966-44.878-6.344-48.109-62.019-2.034-35.042,26.74-69.61,48.109-62C215.826,188.422,233.66,213.792,237.229,240.947Z" transform="translate(-124.839 -135.617)" fill="none" stroke="#1a1a1a" stroke-miterlimit="10" stroke-width="1" opacity="0.25"/>
        <path id="Path_25500" data-name="Path 25500" d="M238.543,247.156c5.7,43.225-13.254,60.475-44.768,57.705-20.832-1.844-41.762-5.921-44.764-57.705-1.895-32.606,24.892-64.772,44.768-57.709C218.624,198.277,235.223,221.884,238.543,247.156Z" transform="translate(-129.46 -141.721)" fill="none" stroke="#1a1a1a" stroke-miterlimit="10" stroke-width="1" opacity="0.25"/>
        <path id="Path_25501" data-name="Path 25501" d="M239.6,254.424c5.193,39.4-12.078,55.13-40.8,52.592-18.988-1.692-38.061-5.392-40.8-52.592-1.725-29.713,22.672-59.024,40.8-52.588C221.445,209.875,236.56,231.414,239.6,254.424Z" transform="translate(-134.654 -148.921)" fill="none" stroke="#1a1a1a" stroke-miterlimit="10" stroke-width="1" opacity="0.25"/>
        <path id="Path_25502" data-name="Path 25502" d="M242.044,265.819c4.4,33.329-10.217,46.659-34.53,44.51-16.07-1.421-32.217-4.563-34.534-44.51-1.459-25.15,19.191-49.962,34.534-44.515C226.68,228.1,239.473,246.328,242.044,265.819Z" transform="translate(-143.305 -160.236)" fill="none" stroke="#1a1a1a" stroke-miterlimit="10" stroke-width="1" opacity="0.25"/>
        <path id="Path_25503" data-name="Path 25503" d="M244.334,276.2c3.654,27.7-8.492,38.759-28.681,36.974-13.347-1.18-26.757-3.806-28.685-36.974-1.21-20.887,15.943-41.5,28.685-36.97C231.575,244.882,242.2,260.01,244.334,276.2Z" transform="translate(-151.385 -170.653)" fill="none" stroke="#1a1a1a" stroke-miterlimit="10" stroke-width="1" opacity="0.25"/>
        <path id="Path_25504" data-name="Path 25504" d="M245.811,282.4c3.176,24.067-7.375,33.68-24.922,32.141-11.6-1.023-23.26-3.294-24.922-32.141-1.053-18.151,13.85-36.057,24.922-32.141C234.723,255.2,243.959,268.341,245.811,282.4Z" transform="translate(-156.583 -177.069)" fill="none" stroke="#1a1a1a" stroke-miterlimit="10" stroke-width="1" opacity="0.25"/>
        <path id="Path_25505" data-name="Path 25505" d="M247.772,291.788c2.537,19.225-5.9,26.9-19.91,25.666-9.266-.82-18.574-2.635-19.91-25.666-.846-14.5,11.067-28.808,19.91-25.666C238.917,270.047,246.288,280.539,247.772,291.788Z" transform="translate(-163.505 -186.285)" fill="none" stroke="#1a1a1a" stroke-miterlimit="10" stroke-width="1" opacity="0.25"/>
        <path id="Path_25506" data-name="Path 25506" d="M250.406,303.2c1.692,12.772-3.916,17.872-13.228,17.051-6.153-.546-12.336-1.768-13.216-17.051-.558-9.629,7.35-19.132,13.224-17.047C244.519,288.763,249.433,295.737,250.406,303.2Z" transform="translate(-172.753 -197.931)" fill="none" stroke="#1a1a1a" stroke-miterlimit="10" stroke-width="1" opacity="0.25"/>
        <path id="Path_25507" data-name="Path 25507" d="M252.141,313.037c1.032,7.832-2.4,10.957-8.107,10.454-3.772-.334-7.561-1.074-8.107-10.454-.343-5.921,4.508-11.727,8.107-10.45A12.805,12.805,0,0,1,252.141,313.037Z" transform="translate(-179.664 -207.479)" fill="none" stroke="#1a1a1a" stroke-miterlimit="10" stroke-width="1" opacity="0.25"/>
        <path id="Path_25508" data-name="Path 25508" d="M651.437,232.7c14.218,31.362-41.977,70.578-76.334,68.3-111.223-7.375-114.716-137.748,0-136.6C612.3,164.772,645.516,219.627,651.437,232.7Z" transform="translate(-326.513 -127.83)" fill="#90949c" opacity="0.25" style="isolation: isolate"/>
        <path id="Path_25509" data-name="Path 25509" d="M654.943,242.952c12.573,27.759-37.156,62.471-67.567,60.445-98.456-6.53-101.547-121.931,0-120.916C620.3,182.823,649.7,231.389,654.943,242.952Z" transform="translate(-339.209 -138.265)" fill="none" stroke="#1a1a1a" stroke-miterlimit="10" stroke-width="1" opacity="0.25"/>
        <path id="Path_25510" data-name="Path 25510" d="M657.684,249.791c11.587,25.573-34.225,57.54-62.234,55.683-90.679-6.014-93.529-112.3,0-111.363C625.772,194.416,652.854,239.142,657.684,249.791Z" transform="translate(-347.287 -144.977)" fill="none" stroke="#1a1a1a" stroke-miterlimit="10" stroke-width="1" opacity="0.25"/>
        <path id="Path_25511" data-name="Path 25511" d="M660.253,259.214c10.226,22.562-30.191,50.778-54.922,49.137-80.021-5.3-82.534-99.1,0-98.278C632.092,210.343,655.99,249.817,660.253,259.214Z" transform="translate(-357.676 -154.189)" fill="none" stroke="#1a1a1a" stroke-miterlimit="10" stroke-width="1" opacity="0.25"/>
        <path id="Path_25512" data-name="Path 25512" d="M664.665,273.161c8.06,17.762-23.792,40.007-43.267,38.717-63.038-4.182-65-78.08,0-77.433C642.488,234.643,661.319,265.743,664.665,273.161Z" transform="translate(-374.419 -168.254)" fill="none" stroke="#1a1a1a" stroke-miterlimit="10" stroke-width="1" opacity="0.25"/>
        <path id="Path_25513" data-name="Path 25513" d="M667.3,278.413c7.32,16.151-21.615,36.34-39.3,35.169-57.274-3.806-59.071-70.929,0-70.337C647.148,243.414,664.238,271.668,667.3,278.413Z" transform="translate(-380.759 -173.333)" fill="none" stroke="#1a1a1a" stroke-miterlimit="10" stroke-width="1" opacity="0.25"/>
        <path id="Path_25514" data-name="Path 25514" d="M669.883,286.788c5.959,13.148-17.593,29.582-31.992,28.626-46.612-3.091-48.08-57.73,0-57.248C653.487,258.322,667.4,281.315,669.883,286.788Z" transform="translate(-391.153 -181.944)" fill="none" stroke="#1a1a1a" stroke-miterlimit="10" stroke-width="1" opacity="0.25"/>
        <path id="Path_25515" data-name="Path 25515" d="M673.027,295.873c4.559,10.057-13.465,22.634-24.482,21.9-35.672-2.364-36.792-44.176,0-43.808C660.471,274.085,671.116,291.682,673.027,295.873Z" transform="translate(-402.113 -191.064)" fill="none" stroke="#1a1a1a" stroke-miterlimit="10" stroke-width="1" opacity="0.25"/>
        <path id="Path_25516" data-name="Path 25516" d="M676.136,304.954c3.163,6.974-9.329,15.69-16.971,15.182-24.727-1.637-25.5-30.622,0-30.369C667.454,289.865,674.838,302.049,676.136,304.954Z" transform="translate(-413.054 -200.183)" fill="none" stroke="#1a1a1a" stroke-miterlimit="10" stroke-width="1" opacity="0.25"/>
        <path id="Path_25517" data-name="Path 25517" d="M679.083,313.1c2.094,4.618-6.179,10.391-11.236,10.057-16.375-1.087-16.891-20.3,0-20.109C673.323,303.1,678.211,311.181,679.083,313.1Z" transform="translate(-421.735 -207.847)" fill="none" stroke="#1a1a1a" stroke-miterlimit="10" stroke-width="1" opacity="0.25"/>
        <path id="Path_25518" data-name="Path 25518" d="M662.677,266.818c9.025,19.91-26.643,44.828-48.465,43.36-70.625-4.682-72.836-87.452,0-86.725C637.8,223.682,658.9,258.508,662.677,266.818Z" transform="translate(-366.933 -161.911)" fill="none" stroke="#1a1a1a" stroke-miterlimit="10" stroke-width="1" opacity="0.25"/>
        <path id="Path_25519" data-name="Path 25519" d="M231.419,689.852c5.291,55.683-18.925,81.658-62.8,75.488-38.7-5.438-54.466-26.3-62.8-75.488-9.118-53.785,17.813-81.307,62.8-75.488C203.017,618.813,227.478,648.348,231.419,689.852Z" transform="translate(-103.568 -387.065)" fill="#90949c" opacity="0.25" style="isolation: isolate"/>
        <path id="Path_25520" data-name="Path 25520" d="M234.722,701.452c4.72,49.7-16.891,72.874-56.047,67.373-34.521-4.855-48.608-23.48-56.047-67.373-8.137-48,15.9-72.561,56.047-67.381C209.373,638.05,231.2,664.41,234.722,701.452Z" transform="translate(-113.379 -398.487)" fill="none" stroke="#1a1a1a" stroke-miterlimit="10" stroke-width="1" opacity="0.25"/>
        <path id="Path_25521" data-name="Path 25521" d="M234.959,707.816c4.4,46.3-15.753,67.9-52.22,62.767-32.141-4.521-45.284-21.889-52.216-62.767-7.583-44.722,14.8-67.609,52.216-62.767C211.344,648.75,231.681,673.308,234.959,707.816Z" transform="translate(-117.997 -404.848)" fill="none" stroke="#1a1a1a" stroke-miterlimit="10" stroke-width="1" opacity="0.25"/>
        <path id="Path_25522" data-name="Path 25522" d="M237.264,714.234c4.039,42.5-14.446,62.327-47.932,57.62-29.527-4.153-41.571-20.088-47.94-57.62-6.953-41.051,13.6-62.057,47.94-57.62C215.586,660,234.257,682.558,237.264,714.234Z" transform="translate(-124.341 -411.553)" fill="none" stroke="#1a1a1a" stroke-miterlimit="10" stroke-width="1" opacity="0.25"/>
        <path id="Path_25523" data-name="Path 25523" d="M238.487,721.979c3.671,38.641-13.135,56.669-43.559,52.381-26.842-3.772-37.795-18.252-43.559-52.381-6.344-37.325,12.361-56.424,43.58-52.385C218.776,672.681,235.751,693.175,238.487,721.979Z" transform="translate(-130.165 -419.074)" fill="none" stroke="#1a1a1a" stroke-miterlimit="10" stroke-width="1" opacity="0.25"/>
        <path id="Path_25524" data-name="Path 25524" d="M240.7,733.875c3.058,32.2-10.949,47.225-36.323,43.66-22.376-3.146-31.5-15.224-36.323-43.66-5.265-31.109,10.3-47.027,36.323-43.66C224.283,692.786,238.429,709.867,240.7,733.875Z" transform="translate(-139.919 -431.025)" fill="none" stroke="#1a1a1a" stroke-miterlimit="10" stroke-width="1" opacity="0.25"/>
        <path id="Path_25525" data-name="Path 25525" d="M243.906,747.45c2.36,24.854-8.458,36.45-28.034,33.693-17.267-2.427-24.308-11.74-28.03-33.693-4.073-24.008,7.951-36.294,28.03-33.7C231.228,715.741,242.147,728.923,243.906,747.45Z" transform="translate(-151.469 -444.668)" fill="none" stroke="#1a1a1a" stroke-miterlimit="10" stroke-width="1" opacity="0.25"/>
        <path id="Path_25526" data-name="Path 25526" d="M247.308,756.474c1.878,19.766-6.716,28.981-22.291,26.795-13.727-1.933-19.331-9.338-22.291-26.795-3.235-19.09,6.344-28.859,22.291-26.8C237.2,731.261,245.887,741.745,247.308,756.474Z" transform="translate(-160.152 -453.899)" fill="none" stroke="#1a1a1a" stroke-miterlimit="10" stroke-width="1" opacity="0.25"/>
        <path id="Path_25527" data-name="Path 25527" d="M249.5,769.239c1.307,13.744-4.673,20.16-15.5,18.633-9.553-1.341-13.448-6.492-15.508-18.633-2.25-13.279,4.4-20.075,15.508-18.637C242.485,751.7,248.524,758.992,249.5,769.239Z" transform="translate(-169.357 -466.021)" fill="none" stroke="#1a1a1a" stroke-miterlimit="10" stroke-width="1" opacity="0.25"/>
        <path id="Path_25528" data-name="Path 25528" d="M252.466,779.055c.808,8.5-2.888,12.467-9.587,11.524-5.921-.846-8.314-4.013-9.587-11.524-1.391-8.213,2.719-12.412,9.587-11.524C248.144,768.207,251.878,772.736,252.466,779.055Z" transform="translate(-177.998 -475.832)" fill="none" stroke="#1a1a1a" stroke-miterlimit="10" stroke-width="1" opacity="0.25"/>
        <path id="Path_25529" data-name="Path 25529" d="M635.038,682.169c-5.959,53.645-23.869,87.655-60.475,81.831-40.412-6.428-73.974-29.053-60.475-81.831,7.189-28.123,25.768-80.44,60.475-81.831C617.306,598.646,639.99,637.591,635.038,682.169Z" transform="translate(-338.449 -379.382)" fill="#90949c" opacity="0.25" style="isolation: isolate"/>
        <path id="Path_25530" data-name="Path 25530" d="M638.685,695.809c-5.269,47.416-21.1,77.476-53.455,72.316-35.718-5.684-65.381-25.679-53.451-72.316,6.343-24.875,22.773-71.1,53.451-72.316C622.991,621.962,643.045,656.416,638.685,695.809Z" transform="translate(-348.862 -392.748)" fill="none" stroke="#1a1a1a" stroke-miterlimit="10" stroke-width="1" opacity="0.25"/>
        <path id="Path_25531" data-name="Path 25531" d="M639.837,704.092c-4.791,43.166-19.2,70.532-48.659,65.846-32.538-5.168-59.54-23.382-48.68-65.846,5.79-22.642,20.722-64.7,48.659-65.842C625.556,636.876,643.8,668.23,639.837,704.092Z" transform="translate(-355.187 -401.267)" fill="none" stroke="#1a1a1a" stroke-miterlimit="10" stroke-width="1" opacity="0.25"/>
        <path id="Path_25532" data-name="Path 25532" d="M642.225,712.3c-4.284,38.581-17.166,63.042-43.5,58.855-29.066-4.622-53.214-20.9-43.487-58.855,5.172-20.24,18.531-57.853,43.491-58.855C629.47,652.216,645.786,680.242,642.225,712.3Z" transform="translate(-362.687 -410.04)" fill="none" stroke="#1a1a1a" stroke-miterlimit="10" stroke-width="1" opacity="0.25"/>
        <path id="Path_25533" data-name="Path 25533" d="M645.188,727.033c-3.59,32.509-14.463,53.142-36.649,49.589-24.49-3.9-44.828-17.605-36.649-49.589,4.36-17.06,15.618-48.748,36.649-49.589C634.442,676.391,648.191,700.018,645.188,727.033Z" transform="translate(-372.497 -423.891)" fill="none" stroke="#1a1a1a" stroke-miterlimit="10" stroke-width="1" opacity="0.25"/>
        <path id="Path_25534" data-name="Path 25534" d="M648.636,744.378c-2.66,24.076-10.7,39.3-27.116,36.7-18.126-2.893-33.172-13.042-27.138-36.7,3.227-12.615,11.558-36.069,27.121-36.691C640.682,706.917,650.857,724.391,648.636,744.378Z" transform="translate(-385.757 -441.35)" fill="none" stroke="#1a1a1a" stroke-miterlimit="10" stroke-width="1" opacity="0.25"/>
        <path id="Path_25535" data-name="Path 25535" d="M651.873,755.506c-2.115,18.959-8.458,30.978-21.373,28.922-14.282-2.28-26.144-10.264-21.373-28.922,2.537-9.947,9.109-28.427,21.373-28.922C645.606,725.984,653.624,739.758,651.873,755.506Z" transform="translate(-394.428 -452.259)" fill="none" stroke="#1a1a1a" stroke-miterlimit="10" stroke-width="1" opacity="0.25"/>
        <path id="Path_25536" data-name="Path 25536" d="M652.724,762.211c-1.763,15.867-7.058,25.924-17.884,24.2-11.951-1.9-21.877-8.593-17.885-24.2,2.115-8.323,7.612-23.793,17.885-24.2C647.48,737.5,654.192,749.025,652.724,762.211Z" transform="translate(-399.047 -458.853)" fill="none" stroke="#1a1a1a" stroke-miterlimit="10" stroke-width="1" opacity="0.25"/>
        <path id="Path_25537" data-name="Path 25537" d="M655.79,772.716c-1.188,10.7-4.762,17.487-12.065,16.324-8.061-1.269-14.755-5.794-12.061-16.324,1.434-5.612,5.138-16.045,12.061-16.32C652.25,756.066,656.775,763.835,655.79,772.716Z" transform="translate(-407.703 -469.468)" fill="none" stroke="#1a1a1a" stroke-miterlimit="10" stroke-width="1" opacity="0.25"/>
        <path id="Path_25538" data-name="Path 25538" d="M656.129,779.69c-.82,7.388-3.286,12.07-8.327,11.27-5.565-.888-10.188-4-8.331-11.27.994-3.878,3.548-11.08,8.331-11.27C653.689,768.183,656.814,773.549,656.129,779.69Z" transform="translate(-412.318 -476.409)" fill="none" stroke="#1a1a1a" stroke-miterlimit="10" stroke-width="1" opacity="0.25"/>
        <path id="Path_25539" data-name="Path 25539" d="M972.329,129.73c-12.793,37.807-102.342.592-94.941-33.409,3.586-16.493,32.936-21.479,59.206-16.6C963.909,84.793,978.567,111.258,972.329,129.73Z" transform="translate(-549.61 -77.936)" fill="#90949c" opacity="0.25" style="isolation: isolate"/>
        <path id="Path_25540" data-name="Path 25540" d="M975.795,134.309c-10.805,31.929-86.416.5-80.174-28.216,3.028-13.922,27.814-18.138,49.987-14.019C968.682,96.337,981.094,118.687,975.795,134.309Z" transform="translate(-560.172 -85.226)" fill="none" stroke="#1a1a1a" stroke-miterlimit="10" stroke-width="1" opacity="0.25"/>
        <path id="Path_25541" data-name="Path 25541" d="M976.975,135.88c-9.947,29.392-79.552.461-73.8-25.97,2.787-12.814,25.6-16.7,46.016-12.9C970.429,100.948,981.834,121.522,976.975,135.88Z" transform="translate(-564.545 -88.141)" fill="none" stroke="#1a1a1a" stroke-miterlimit="10" stroke-width="1" opacity="0.25"/>
        <path id="Path_25542" data-name="Path 25542" d="M979.776,139.442c-8.4,24.795-67.081.389-62.234-21.9,2.347-10.809,21.568-14.083,38.8-10.886C974.241,109.983,983.874,127.334,979.776,139.442Z" transform="translate(-572.869 -93.835)" fill="none" stroke="#1a1a1a" stroke-miterlimit="10" stroke-width="1" opacity="0.25"/>
        <path id="Path_25543" data-name="Path 25543" d="M981.267,141.819c-7.346,21.712-58.762.338-54.516-19.187,2.06-9.469,18.912-12.336,33.993-9.532C976.446,116.022,984.87,131.217,981.267,141.819Z" transform="translate(-578.204 -97.637)" fill="none" stroke="#1a1a1a" stroke-miterlimit="10" stroke-width="1" opacity="0.25"/>
        <path id="Path_25544" data-name="Path 25544" d="M982.479,144.307c-6.052,17.872-48.376.279-44.878-15.8,1.692-7.794,15.567-10.15,27.979-7.849C978.491,123.064,985.439,135.574,982.479,144.307Z" transform="translate(-584.491 -102.108)" fill="none" stroke="#1a1a1a" stroke-miterlimit="10" stroke-width="1" opacity="0.25"/>
        <path id="Path_25545" data-name="Path 25545" d="M984.767,147.246c-4.872,14.4-38.979.228-36.162-12.725,1.366-6.28,12.547-8.183,22.545-6.344C981.562,130.127,987.161,140.209,984.767,147.246Z" transform="translate(-590.864 -106.544)" fill="none" stroke="#1a1a1a" stroke-miterlimit="10" stroke-width="1" opacity="0.25"/>
        <path id="Path_25546" data-name="Path 25546" d="M986.738,150.287c-3.442,10.175-27.54.161-25.547-8.991.964-4.44,8.881-5.781,15.926-4.47C984.471,138.192,988.421,145.313,986.738,150.287Z" transform="translate(-598.155 -111.644)" fill="none" stroke="#1a1a1a" stroke-miterlimit="10" stroke-width="1" opacity="0.25"/>
        <path id="Path_25547" data-name="Path 25547" d="M989.3,153.547c-1.966,5.815-15.736.089-14.6-5.138.55-2.537,5.075-3.307,9.1-2.537C987.995,146.607,990.262,150.692,989.3,153.547Z" transform="translate(-605.98 -116.976)" fill="none" stroke="#1a1a1a" stroke-miterlimit="10" stroke-width="1" opacity="0.25"/>
        <path id="Path_25548" data-name="Path 25548" d="M1015.12,525.636c-20.917,26.6-54.753,36.792-96.984,25.34-51.564-14-68.155-49.454-50.325-86.695,15.225-31.806,47.479-34.843,96.984-25.34C1020.516,449.611,1044.9,487.749,1015.12,525.636Z" transform="translate(-540.341 -283.536)" fill="#90949c" opacity="0.25" style="isolation: isolate"/>
        <path id="Path_25549" data-name="Path 25549" d="M1017.611,530.038c-19.284,24.528-50.477,33.934-89.41,23.365-47.538-12.907-62.835-45.6-46.384-79.928,14.053-29.32,43.758-32.141,89.431-23.365C1022.589,459.976,1045.07,495.124,1017.611,530.038Z" transform="translate(-548.732 -290.192)" fill="none" stroke="#1a1a1a" stroke-miterlimit="10" stroke-width="1" opacity="0.25"/>
        <path id="Path_25550" data-name="Path 25550" d="M1023.465,536.274c-16.683,21.217-43.673,29.358-77.353,20.211-41.127-11.165-54.36-39.444-40.129-69.149,12.154-25.374,37.871-27.793,77.353-20.215C1027.771,475.634,1047.22,506.083,1023.465,536.274Z" transform="translate(-563.175 -300.352)" fill="none" stroke="#1a1a1a" stroke-miterlimit="10" stroke-width="1" opacity="0.25"/>
        <path id="Path_25551" data-name="Path 25551" d="M1027.08,539.579c-15.351,19.521-40.176,27.011-71.17,18.608-37.841-10.276-50.017-36.293-36.924-63.625,11.186-23.344,34.843-25.569,71.17-18.608C1031.038,483.8,1048.948,511.782,1027.08,539.579Z" transform="translate(-570.934 -305.628)" fill="none" stroke="#1a1a1a" stroke-miterlimit="10" stroke-width="1" opacity="0.25"/>
        <path id="Path_25552" data-name="Path 25552" d="M1030.913,546.4c-12.64,16.07-33.088,22.245-58.606,15.318-31.164-8.458-41.186-29.886-30.407-52.393,9.211-19.225,28.694-21.056,58.61-15.318C1034.174,500.465,1048.912,523.514,1030.913,546.4Z" transform="translate(-584.676 -316.396)" fill="none" stroke="#1a1a1a" stroke-miterlimit="10" stroke-width="1" opacity="0.25"/>
        <path id="Path_25553" data-name="Path 25553" d="M1036.037,553.464c-10.073,12.805-26.359,17.719-46.688,12.2-24.833-6.766-32.809-23.805-24.22-41.736,7.337-15.313,22.837-16.772,46.684-12.2C1038.633,516.87,1050.365,535.229,1036.037,553.464Z" transform="translate(-598.571 -326.961)" fill="none" stroke="#1a1a1a" stroke-miterlimit="10" stroke-width="1" opacity="0.25"/>
        <path id="Path_25554" data-name="Path 25554" d="M1042.327,561.376c-6.982,8.881-18.269,12.264-32.356,8.458-17.2-4.652-22.739-16.493-16.785-28.922,5.075-10.615,15.842-11.626,32.356-8.458C1044.125,536.023,1052.249,548.744,1042.327,561.376Z" transform="translate(-615.353 -339.326)" fill="none" stroke="#1a1a1a" stroke-miterlimit="10" stroke-width="1" opacity="0.25"/>
        <path id="Path_25555" data-name="Path 25555" d="M1046.724,566.52c-4.762,6.052-12.459,8.378-22.067,5.768-11.735-3.184-15.508-11.253-11.448-19.728,3.468-7.236,10.8-7.929,22.067-5.764C1047.95,549.219,1053.5,557.906,1046.724,566.52Z" transform="translate(-627.333 -347.891)" fill="none" stroke="#1a1a1a" stroke-miterlimit="10" stroke-width="1" opacity="0.25"/>
        <path id="Path_25556" data-name="Path 25556" d="M1053.667,571.342c-2.6,3.3-6.8,4.572-12.048,3.146-6.411-1.738-8.458-6.145-6.255-10.771,1.895-3.954,5.921-4.331,12.053-3.151C1054.339,561.895,1057.372,566.635,1053.667,571.342Z" transform="translate(-640.534 -356.122)" fill="none" stroke="#1a1a1a" stroke-miterlimit="10" stroke-width="1" opacity="0.25"/>
        <path id="Path_25557" data-name="Path 25557" d="M963.584,838.977c-1.522,17.449-13.372,30.842-29.814,31.718-15.055.8-26.4-11.266-29.815-31.718-2.229-13.359,14.425-33.494,29.815-31.718C950.212,809.155,964.612,827.208,963.584,838.977Z" transform="translate(-565.076 -498.764)" fill="#90949c" opacity="0.25" style="isolation: isolate"/>
        <path id="Path_25558" data-name="Path 25558" d="M964.616,843.8c-1.37,15.711-12.04,27.768-26.841,28.554-13.533.719-23.767-10.15-26.842-28.554-2-12.027,12.987-30.153,26.842-28.554C952.58,816.949,965.542,833.2,964.616,843.8Z" transform="translate(-569.114 -503.379)" fill="none" stroke="#1a1a1a" stroke-miterlimit="10" stroke-width="1" opacity="0.25"/>
        <path id="Path_25559" data-name="Path 25559" d="M965.606,849.731c-1.167,13.372-10.247,23.632-22.837,24.3-11.533.613-20.227-8.631-22.837-24.3-1.692-10.234,11.05-25.658,22.837-24.3C955.359,826.894,966.393,840.7,965.606,849.731Z" transform="translate(-574.325 -509.268)" fill="none" stroke="#1a1a1a" stroke-miterlimit="10" stroke-width="1" opacity="0.25"/>
        <path id="Path_25560" data-name="Path 25560" d="M966.561,853.746c-1.04,11.888-9.113,21.014-20.3,21.61-10.255.546-17.986-7.676-20.3-21.61-1.518-9.105,9.828-22.837,20.3-21.61C957.448,833.425,967.259,845.74,966.561,853.746Z" transform="translate(-577.813 -513.139)" fill="none" stroke="#1a1a1a" stroke-miterlimit="10" stroke-width="1" opacity="0.25"/>
        <path id="Path_25561" data-name="Path 25561" d="M968.065,859.486c-.82,9.426-7.219,16.658-16.1,17.132-8.132.423-14.26-6.086-16.1-17.132-1.205-7.215,7.794-18.088,16.1-17.128C960.846,843.382,968.623,853.13,968.065,859.486Z" transform="translate(-583.542 -519.049)" fill="none" stroke="#1a1a1a" stroke-miterlimit="10" stroke-width="1" opacity="0.25"/>
        <path id="Path_25562" data-name="Path 25562" d="M970.676,867.083c-.558,6.394-4.9,11.3-10.924,11.621-5.5.292-9.676-4.128-10.924-11.621-.816-4.9,5.286-12.264,10.924-11.626C965.775,856.151,971.053,862.765,970.676,867.083Z" transform="translate(-591.046 -526.62)" fill="none" stroke="#1a1a1a" stroke-miterlimit="10" stroke-width="1" opacity="0.25"/>
        <path id="Path_25563" data-name="Path 25563" d="M972.312,871.708c-.4,4.534-3.481,8.035-7.752,8.247-3.895.212-6.855-2.939-7.752-8.247-.579-3.476,3.751-8.707,7.752-8.247C968.836,863.943,972.578,868.637,972.312,871.708Z" transform="translate(-595.663 -531.245)" fill="none" stroke="#1a1a1a" stroke-miterlimit="10" stroke-width="1" opacity="0.25"/>
        <path id="Path_25564" data-name="Path 25564" d="M974,877.194a4.49,4.49,0,0,1-4.1,4.364c-2.072.11-3.633-1.552-4.1-4.364-.309-1.84,1.984-4.605,4.1-4.364C972.154,873.092,974.137,875.574,974,877.194Z" transform="translate(-600.867 -536.659)" fill="none" stroke="#1a1a1a" stroke-miterlimit="10" stroke-width="1" opacity="0.25"/>
        <path id="Path_25565" data-name="Path 25565" d="M1315.3,190.982c24.486,38.535-26.842,49.573-68.933,56.457-53.023,8.669-76.262,8.234-68.933-56.457,3.929-34.678,25.141-73.982,68.933-56.457C1279.011,147.588,1302.609,171.021,1315.3,190.982Z" transform="translate(-722.253 -108.105)" fill="#90949c" opacity="0.25" style="isolation: isolate"/>
        <path id="Path_25566" data-name="Path 25566" d="M1317.2,196.113c23.061,36.293-25.281,46.688-64.924,53.171-49.94,8.166-71.826,7.756-64.924-53.171,3.7-32.665,23.682-69.682,64.924-53.176C1283.028,155.243,1305.256,177.31,1317.2,196.113Z" transform="translate(-728.025 -113.104)" fill="none" stroke="#1a1a1a" stroke-miterlimit="10" stroke-width="1" opacity="0.25"/>
        <path id="Path_25567" data-name="Path 25567" d="M1319.775,202.706c21.052,33.13-23.078,42.62-59.261,48.536-45.589,7.456-65.55,7.079-59.266-48.536,3.383-29.819,21.615-63.6,59.266-48.536C1288.582,165.38,1308.852,185.54,1319.775,202.706Z" transform="translate(-736.108 -119.79)" fill="none" stroke="#1a1a1a" stroke-miterlimit="10" stroke-width="1" opacity="0.25"/>
        <path id="Path_25568" data-name="Path 25568" d="M1323.139,209.508c19.031,29.908-20.832,38.484-53.506,43.821-41.157,6.728-59.206,6.394-53.506-43.821,3.049-26.922,19.517-57.426,53.506-43.825C1294.986,175.824,1313.294,194.013,1323.139,209.508Z" transform="translate(-744.754 -126.643)" fill="none" stroke="#1a1a1a" stroke-miterlimit="10" stroke-width="1" opacity="0.25"/>
        <path id="Path_25569" data-name="Path 25569" d="M1325.969,218.49c16.519,25.992-18.1,33.439-46.494,38.061-35.765,5.849-51.437,5.553-46.519-38.061,2.651-23.391,16.958-49.9,46.519-38.061C1301.5,189.221,1317.414,205.025,1325.969,218.49Z" transform="translate(-754.549 -135.4)" fill="none" stroke="#1a1a1a" stroke-miterlimit="10" stroke-width="1" opacity="0.25"/>
        <path id="Path_25570" data-name="Path 25570" d="M1328.071,225.182c14.594,22.968-16,29.548-41.085,33.65-31.608,5.168-45.458,4.91-41.089-33.65,2.343-20.671,14.983-44.1,41.089-33.65A88.894,88.894,0,0,1,1328.071,225.182Z" transform="translate(-762.072 -142.008)" fill="none" stroke="#1a1a1a" stroke-miterlimit="10" stroke-width="1" opacity="0.25"/>
        <path id="Path_25571" data-name="Path 25571" d="M1331.326,234.766c11.841,18.608-12.958,23.928-33.274,27.252-25.6,4.187-36.793,3.975-33.274-27.252,1.895-16.743,12.133-35.714,33.274-27.256A72.13,72.13,0,0,1,1331.326,234.766Z" transform="translate(-773.058 -151.512)" fill="none" stroke="#1a1a1a" stroke-miterlimit="10" stroke-width="1" opacity="0.25"/>
        <path id="Path_25572" data-name="Path 25572" d="M1334.676,242.236c9.6,15.106-10.522,19.453-27.024,22.135-20.79,3.383-29.9,3.227-27.027-22.135,1.543-13.6,9.858-29.007,27.027-22.135A58.506,58.506,0,0,1,1334.676,242.236Z" transform="translate(-782.269 -159.003)" fill="none" stroke="#1a1a1a" stroke-miterlimit="10" stroke-width="1" opacity="0.25"/>
        <path id="Path_25573" data-name="Path 25573" d="M1339.008,249.41c7.189,11.321-7.887,14.565-20.257,16.586-15.58,2.537-22.414,2.423-20.253-16.586,1.155-10.192,7.388-21.741,20.253-16.59A43.882,43.882,0,0,1,1339.008,249.41Z" transform="translate(-792.657 -166.588)" fill="none" stroke="#1a1a1a" stroke-miterlimit="10" stroke-width="1" opacity="0.25"/>
        <path id="Path_25574" data-name="Path 25574" d="M1342.041,257.681c4.563,7.189-5,9.236-12.844,10.522-9.879,1.616-14.209,1.535-12.844-10.522.732-6.462,4.686-13.782,12.844-10.518A27.8,27.8,0,0,1,1342.041,257.681Z" transform="translate(-803.045 -175.133)" fill="none" stroke="#1a1a1a" stroke-miterlimit="10" stroke-width="1" opacity="0.25"/>
        <path id="Path_25575" data-name="Path 25575" d="M1711.5,155.257c3.172,48.892-18.942,62.831-43.136,61.109-38.429-2.732-54.728-6.817-43.136-61.109,7.219-33.807,15.3-64,43.136-61.109C1692.045,96.609,1709.316,121.577,1711.5,155.257Z" transform="translate(-979.32 -87.181)" fill="#90949c" opacity="0.25" style="isolation: isolate"/>
        <path id="Path_25576" data-name="Path 25576" d="M1712.558,159.805c3,46.206-17.9,59.38-40.768,57.756-36.319-2.584-51.721-6.445-40.767-57.756,6.821-31.946,14.459-60.475,40.767-57.751C1694.187,104.38,1710.494,127.978,1712.558,159.805Z" transform="translate(-982.782 -91.75)" fill="none" stroke="#1a1a1a" stroke-miterlimit="10" stroke-width="1" opacity="0.25"/>
        <path id="Path_25577" data-name="Path 25577" d="M1713.944,167.154c2.732,42.066-16.3,54.076-37.114,52.579-33.062-2.351-47.086-5.866-37.114-52.579,6.208-29.087,13.161-55.066,37.114-52.579C1697.222,116.693,1712.066,138.177,1713.944,167.154Z" transform="translate(-987.978 -98.985)" fill="none" stroke="#1a1a1a" stroke-miterlimit="10" stroke-width="1" opacity="0.25"/>
        <path id="Path_25578" data-name="Path 25578" d="M1716.569,178.693c2.288,35.316-13.685,45.386-31.164,44.142-27.759-1.975-39.533-4.923-31.159-44.142,5.214-24.418,11.05-46.232,31.159-44.143C1702.516,136.327,1714.97,154.364,1716.569,178.693Z" transform="translate(-996.655 -110.528)" fill="none" stroke="#1a1a1a" stroke-miterlimit="10" stroke-width="1" opacity="0.25"/>
        <path id="Path_25579" data-name="Path 25579" d="M1717.528,186.555c1.975,30.428-11.786,39.1-26.842,38.027-23.915-1.692-34.056-4.229-26.841-38.027,4.491-21.035,9.515-39.825,26.841-38.027C1705.433,150.058,1716.171,165.6,1717.528,186.555Z" transform="translate(-1002.406 -118.605)" fill="none" stroke="#1a1a1a" stroke-miterlimit="10" stroke-width="1" opacity="0.25"/>
        <path id="Path_25580" data-name="Path 25580" d="M1719.708,197.667c1.552,23.983-9.3,30.817-21.145,29.975-18.849-1.341-26.841-3.345-21.145-29.975,3.539-16.582,7.506-31.392,21.145-29.975C1710.172,168.9,1718.634,181.144,1719.708,197.667Z" transform="translate(-1010.515 -129.68)" fill="none" stroke="#1a1a1a" stroke-miterlimit="10" stroke-width="1" opacity="0.25"/>
        <path id="Path_25581" data-name="Path 25581" d="M1721.941,208.494c1.142,17.6-6.821,22.617-15.533,21.991-13.833-.985-19.7-2.453-15.529-21.991,2.6-12.171,5.5-23.044,15.529-21.991C1714.942,187.379,1721.137,196.37,1721.941,208.494Z" transform="translate(-1018.562 -140.549)" fill="none" stroke="#1a1a1a" stroke-miterlimit="10" stroke-width="1" opacity="0.25"/>
        <path id="Path_25582" data-name="Path 25582" d="M1722.663,212.884c.956,14.734-5.709,18.938-13,18.417-11.579-.846-16.493-2.055-13-18.417,2.178-10.188,4.61-19.284,13-18.413C1716.805,195.211,1722,202.735,1722.663,212.884Z" transform="translate(-1022.025 -145.155)" fill="none" stroke="#1a1a1a" stroke-miterlimit="10" stroke-width="1" opacity="0.25"/>
        <path id="Path_25583" data-name="Path 25583" d="M1724.592,220.389c.672,10.344-4.009,13.3-9.131,12.932-8.132-.579-11.583-1.442-9.13-12.932,1.531-7.155,3.24-13.533,9.13-12.932C1720.478,207.977,1724.131,213.259,1724.592,220.389Z" transform="translate(-1027.794 -152.659)" fill="none" stroke="#1a1a1a" stroke-miterlimit="10" stroke-width="1" opacity="0.25"/>
        <path id="Path_25584" data-name="Path 25584" d="M1725.458,226.518c.423,6.466-2.508,8.31-5.7,8.082-5.075-.359-7.24-.9-5.705-8.082.952-4.47,2.022-8.458,5.705-8.082C1722.887,218.762,1725.166,222.065,1725.458,226.518Z" transform="translate(-1032.416 -159.004)" fill="none" stroke="#1a1a1a" stroke-miterlimit="10" stroke-width="1" opacity="0.25"/>
        <path id="Path_25585" data-name="Path 25585" d="M1375.355,505.687c-7.566,37.972,16.764,54.69,57.092,52.44,31.481-1.755,57.092-23.48,57.092-52.44s-25.611-50.7-57.092-52.44C1393.777,451.108,1380.853,478.2,1375.355,505.687Z" transform="translate(-836.443 -294.459)" fill="#90949c" opacity="0.25" style="isolation: isolate"/>
        <path id="Path_25586" data-name="Path 25586" d="M1388.227,512.637c-6.872,34.5,15.224,49.682,51.869,47.64,28.609-1.594,51.869-21.327,51.869-47.64s-23.26-46.058-51.869-47.644C1404.966,463.052,1393.2,487.678,1388.227,512.637Z" transform="translate(-843.945 -301.244)" fill="none" stroke="#1a1a1a" stroke-miterlimit="10" stroke-width="1" opacity="0.25"/>
        <path id="Path_25587" data-name="Path 25587" d="M1401.1,519.307c-6.153,30.872,13.634,44.481,46.439,42.654,25.607-1.429,46.435-19.1,46.435-42.654s-20.828-41.233-46.435-42.65C1416.079,474.915,1405.548,496.961,1401.1,519.307Z" transform="translate(-851.446 -307.982)" fill="none" stroke="#1a1a1a" stroke-miterlimit="10" stroke-width="1" opacity="0.25"/>
        <path id="Path_25588" data-name="Path 25588" d="M1415.918,527.559c-5.295,26.579,11.736,38.277,39.96,36.7,22.038-1.226,39.96-16.434,39.96-36.7s-17.922-35.481-39.96-36.7C1428.821,489.35,1419.763,508.334,1415.918,527.559Z" transform="translate(-860.09 -316.183)" fill="none" stroke="#1a1a1a" stroke-miterlimit="10" stroke-width="1" opacity="0.25"/>
        <path id="Path_25589" data-name="Path 25589" d="M1444.655,543.2c-3.692,18.519,8.171,26.672,27.84,25.573,15.351-.846,27.84-11.448,27.84-25.573s-12.488-24.723-27.84-25.573C1453.637,516.591,1447.323,529.807,1444.655,543.2Z" transform="translate(-876.842 -331.65)" fill="none" stroke="#1a1a1a" stroke-miterlimit="10" stroke-width="1" opacity="0.25"/>
        <path id="Path_25590" data-name="Path 25590" d="M1458.522,550.746c-2.859,14.349,6.344,20.663,21.568,19.813,11.9-.664,21.568-8.881,21.568-19.813s-9.676-19.157-21.568-19.817C1465.474,530.121,1460.582,540.364,1458.522,550.746Z" transform="translate(-884.932 -339.332)" fill="none" stroke="#1a1a1a" stroke-miterlimit="10" stroke-width="1" opacity="0.25"/>
        <path id="Path_25591" data-name="Path 25591" d="M1477.319,560.6c-1.861,9.346,4.128,13.457,14.053,12.907,7.748-.423,14.049-5.781,14.049-12.907s-6.3-12.48-14.049-12.907C1481.853,547.161,1478.681,553.835,1477.319,560.6Z" transform="translate(-895.885 -349.013)" fill="none" stroke="#1a1a1a" stroke-miterlimit="10" stroke-width="1" opacity="0.25"/>
        <path id="Path_25592" data-name="Path 25592" d="M1488.194,566.826c-1.2,6.01,2.656,8.657,9.037,8.3,4.986-.279,9.038-3.717,9.038-8.3s-4.051-8.035-9.038-8.3C1491.112,558.186,1489.061,562.479,1488.194,566.826Z" transform="translate(-902.23 -355.272)" fill="none" stroke="#1a1a1a" stroke-miterlimit="10" stroke-width="1" opacity="0.25"/>
        <path id="Path_25593" data-name="Path 25593" d="M1432.768,536.7c-4.326,21.712,9.583,31.269,32.644,29.984,18-1,32.648-13.423,32.648-29.984s-14.645-28.99-32.648-29.988C1443.3,505.485,1435.893,520.985,1432.768,536.7Z" transform="translate(-869.915 -325.34)" fill="none" stroke="#1a1a1a" stroke-miterlimit="10" stroke-width="1" opacity="0.25"/>
        <path id="Path_25594" data-name="Path 25594" d="M1296.979,796.986c.588,41.812-16.874,66.539-51.171,62.589-31.861-3.667-48.152-23.742-51.171-62.589-3.083-39.677,9.837-63.148,51.171-62.589C1279.056,734.845,1296.433,758.3,1296.979,796.986Z" transform="translate(-732.693 -456.773)" fill="#90949c" opacity="0.25" style="isolation: isolate"/>
        <path id="Path_25595" data-name="Path 25595" d="M1298.345,803.751c.529,38.273-15.449,60.9-46.836,57.3-29.18-3.358-44.1-21.741-46.862-57.316-2.821-36.331,9.008-57.828,46.862-57.316C1281.932,746.832,1297.846,768.307,1298.345,803.751Z" transform="translate(-738.491 -463.71)" fill="none" stroke="#1a1a1a" stroke-miterlimit="10" stroke-width="1" opacity="0.25"/>
        <path id="Path_25596" data-name="Path 25596" d="M1300.5,810.626c.495,35.1-14.163,55.853-42.954,52.541-26.745-3.079-40.417-19.931-42.954-52.541-2.575-33.3,8.259-53,42.954-52.537C1285.445,758.47,1300.035,778.156,1300.5,810.626Z" transform="translate(-744.254 -470.446)" fill="none" stroke="#1a1a1a" stroke-miterlimit="10" stroke-width="1" opacity="0.25"/>
        <path id="Path_25597" data-name="Path 25597" d="M1302.053,816.831c.448,31.671-12.78,50.4-38.759,47.412-24.135-2.779-36.475-17.986-38.763-47.412-2.334-30.056,7.452-47.834,38.763-47.411C1288.495,769.758,1301.643,787.524,1302.053,816.831Z" transform="translate(-750.006 -476.986)" fill="none" stroke="#1a1a1a" stroke-miterlimit="10" stroke-width="1" opacity="0.25"/>
        <path id="Path_25598" data-name="Path 25598" d="M1304.361,825.293c.385,27.307-11.021,43.457-33.409,40.878-20.807-2.4-31.451-15.508-33.409-40.878-2.013-25.916,6.424-41.246,33.409-40.882C1292.647,784.707,1304.006,800.025,1304.361,825.293Z" transform="translate(-757.541 -485.638)" fill="none" stroke="#1a1a1a" stroke-miterlimit="10" stroke-width="1" opacity="0.25"/>
        <path id="Path_25599" data-name="Path 25599" d="M1306.327,832.814c.334,23.648-9.54,37.638-28.939,35.4-18.02-2.072-27.235-13.427-28.943-35.4-1.742-22.439,5.565-35.714,28.943-35.4C1296.19,797.658,1306.019,810.941,1306.327,832.814Z" transform="translate(-763.855 -493.141)" fill="none" stroke="#1a1a1a" stroke-miterlimit="10" stroke-width="1" opacity="0.25"/>
        <path id="Path_25600" data-name="Path 25600" d="M1307.712,840.546c.283,20.126-8.124,32.031-24.634,30.128-15.339-1.763-23.183-11.418-24.634-30.128-1.484-19.1,4.732-30.4,24.634-30.132C1299.068,810.63,1307.437,821.921,1307.712,840.546Z" transform="translate(-769.646 -500.645)" fill="none" stroke="#1a1a1a" stroke-miterlimit="10" stroke-width="1" opacity="0.25"/>
        <path id="Path_25601" data-name="Path 25601" d="M1310.3,849.59c.22,15.482-6.246,24.638-18.946,23.175-11.8-1.358-17.83-8.788-18.95-23.175-1.142-14.692,3.641-23.382,18.95-23.175C1303.644,826.58,1310.076,835.266,1310.3,849.59Z" transform="translate(-777.728 -509.88)" fill="none" stroke="#1a1a1a" stroke-miterlimit="10" stroke-width="1" opacity="0.25"/>
        <path id="Path_25602" data-name="Path 25602" d="M1312.017,856.92c.165,11.689-4.715,18.608-14.307,17.5-8.911-1.023-13.469-6.635-14.311-17.5-.846-11.1,2.749-17.66,14.311-17.5C1306.989,839.539,1311.848,846.1,1312.017,856.92Z" transform="translate(-784.101 -517.383)" fill="none" stroke="#1a1a1a" stroke-miterlimit="10" stroke-width="1" opacity="0.25"/>
        <path id="Path_25603" data-name="Path 25603" d="M1313.955,864.422c.114,8.035-3.235,12.767-9.82,12.01-6.115-.7-9.24-4.555-9.82-12.01-.592-7.612,1.886-12.12,9.82-12.015C1310.517,852.5,1313.854,857,1313.955,864.422Z" transform="translate(-790.42 -524.881)" fill="none" stroke="#1a1a1a" stroke-miterlimit="10" stroke-width="1" opacity="0.25"/>
        <path id="Path_25604" data-name="Path 25604" d="M1315.072,871.437c.068,4.817-1.945,7.663-5.9,7.189-3.671-.423-5.548-2.736-5.9-7.189-.355-4.572,1.133-7.274,5.9-7.189C1313,864.277,1315.009,866.979,1315.072,871.437Z" transform="translate(-795.614 -531.714)" fill="none" stroke="#1a1a1a" stroke-miterlimit="10" stroke-width="1" opacity="0.25"/>
        <path id="Path_25605" data-name="Path 25605" d="M1674.313,858.9c.846,22.084-15.224,33.549-42.713,31.929-26.22-1.544-41.106-12.772-42.713-31.929-2.233-26.643,10.293-36.429,42.713-31.929C1655.748,830.322,1673.506,837.334,1674.313,858.9Z" transform="translate(-960.32 -509.596)" fill="#90949c" opacity="0.25" style="isolation: isolate"/>
        <path id="Path_25606" data-name="Path 25606" d="M1676.717,863.851c.723,19.356-13.322,29.4-37.431,27.979-22.968-1.349-36.023-11.19-37.427-27.979-1.958-23.34,9.016-31.921,37.427-27.979C1660.448,838.811,1676.007,844.956,1676.717,863.851Z" transform="translate(-967.824 -514.807)" fill="none" stroke="#1a1a1a" stroke-miterlimit="10" stroke-width="1" opacity="0.25"/>
        <path id="Path_25607" data-name="Path 25607" d="M1678.378,869.517c.617,16.434-11.308,24.951-31.777,23.754-19.5-1.146-30.584-9.5-31.777-23.754-1.662-19.817,7.654-27.1,31.777-23.754C1664.567,848.245,1677.778,853.446,1678.378,869.517Z" transform="translate(-975.326 -520.596)" fill="none" stroke="#1a1a1a" stroke-miterlimit="10" stroke-width="1" opacity="0.25"/>
        <path id="Path_25608" data-name="Path 25608" d="M1679.844,874.369c.524,14.074-9.693,21.382-27.226,20.35-16.709-.981-26.22-8.141-27.226-20.35-1.425-16.979,6.559-23.222,27.226-20.354C1668.011,856.159,1679.328,860.621,1679.844,874.369Z" transform="translate(-981.439 -525.423)" fill="none" stroke="#1a1a1a" stroke-miterlimit="10" stroke-width="1" opacity="0.25"/>
        <path id="Path_25609" data-name="Path 25609" d="M1682.5,878.648c.423,11.659-8.035,17.711-22.549,16.857-13.837-.812-21.7-6.741-22.553-16.857-1.176-14.066,5.434-19.234,22.553-16.857C1672.678,863.537,1682.079,867.229,1682.5,878.648Z" transform="translate(-988.386 -529.976)" fill="none" stroke="#1a1a1a" stroke-miterlimit="10" stroke-width="1" opacity="0.25"/>
        <path id="Path_25610" data-name="Path 25610" d="M1683.5,884.1c.33,8.826-6.077,13.41-17.072,12.763-10.475-.617-16.426-5.1-17.068-12.763-.892-10.644,4.111-14.561,17.068-12.759C1676.073,872.681,1683.17,875.485,1683.5,884.1Z" transform="translate(-995.308 -535.567)" fill="none" stroke="#1a1a1a" stroke-miterlimit="10" stroke-width="1" opacity="0.25"/>
        <path id="Path_25611" data-name="Path 25611" d="M1685.657,889.8c.216,5.777-3.975,8.775-11.169,8.352-6.855-.423-10.75-3.341-11.169-8.352-.588-6.965,2.69-9.524,11.169-8.348C1680.794,882.33,1685.437,884.165,1685.657,889.8Z" transform="translate(-1003.381 -541.486)" fill="none" stroke="#1a1a1a" stroke-miterlimit="10" stroke-width="1" opacity="0.25"/>
        <path id="Path_25612" data-name="Path 25612" d="M1687.463,893.94c.144,3.92-2.7,5.959-7.587,5.671-4.652-.275-7.3-2.271-7.587-5.671-.4-4.732,1.827-6.475,7.587-5.675C1684.16,888.862,1687.315,890.109,1687.463,893.94Z" transform="translate(-1008.57 -545.468)" fill="none" stroke="#1a1a1a" stroke-miterlimit="10" stroke-width="1" opacity="0.25"/>
        <path id="Path_25613" data-name="Path 25613" d="M1736.209,467.155c9.875,1.269,23.323,19.183,30.521,48.211s1.548,48.942-4.461,56.876c-14.036,18.54-19.508-9.49-30.521-48.211C1722.532,491.616,1714.945,464.444,1736.209,467.155Z" transform="translate(-1037.584 -302.446)" fill="#90949c" opacity="0.25" style="isolation: isolate"/>
        <path id="Path_25614" data-name="Path 25614" d="M1746.02,490.575c7.963,1.015,18.811,15.478,24.617,38.882s1.269,39.478-3.6,45.881c-11.321,14.954-15.736-7.654-24.617-38.882C1734.986,510.295,1728.867,488.393,1746.02,490.575Z" transform="translate(-1044.773 -315.982)" fill="none" stroke="#1a1a1a" stroke-miterlimit="10" stroke-width="1" opacity="0.25"/>
        <path id="Path_25615" data-name="Path 25615" d="M1751.583,505.173c6.838.846,16.155,13.283,21.145,33.38s1.066,33.887-3.083,39.385c-9.727,12.839-13.533-6.572-21.145-33.384C1742.11,522.115,1736.857,503.3,1751.583,505.173Z" transform="translate(-1048.885 -324.419)" fill="none" stroke="#1a1a1a" stroke-miterlimit="10" stroke-width="1" opacity="0.25"/>
        <path id="Path_25616" data-name="Path 25616" d="M1760.851,527.869c5.045.643,11.917,9.8,15.592,24.63s.791,25.01-2.275,29.066c-7.189,9.473-9.972-4.851-15.6-24.63C1753.861,540.37,1749.983,526.482,1760.851,527.869Z" transform="translate(-1055.667 -337.537)" fill="none" stroke="#1a1a1a" stroke-miterlimit="10" stroke-width="1" opacity="0.25"/>
        <path id="Path_25617" data-name="Path 25617" d="M1768.2,545.784c3.721.474,8.792,7.232,11.507,18.185s.583,18.455-1.692,21.445c-5.291,6.991-7.354-3.578-11.507-18.185C1763.049,555.008,1760.191,544.765,1768.2,545.784Z" transform="translate(-1060.969 -347.89)" fill="none" stroke="#1a1a1a" stroke-miterlimit="10" stroke-width="1" opacity="0.25"/>
        <path id="Path_25618" data-name="Path 25618" d="M1775.352,563.94c2.207.283,5.218,4.292,6.825,10.784s.347,10.949-.994,12.721c-3.142,4.149-4.364-2.114-6.83-10.78C1772.294,569.4,1770.594,563.318,1775.352,563.94Z" transform="translate(-1066.306 -358.383)" fill="none" stroke="#1a1a1a" stroke-miterlimit="10" stroke-width="1" opacity="0.25"/>
        <path id="Path_25619" data-name="Path 25619" d="M1781.155,578.09c1.024.127,2.419,1.988,3.168,4.994s.161,5.075-.465,5.921c-1.455,1.92-2.022-.985-3.164-5C1779.738,580.623,1778.951,577.79,1781.155,578.09Z" transform="translate(-1070.604 -366.561)" fill="none" stroke="#1a1a1a" stroke-miterlimit="10" stroke-width="1" opacity="0.25"/>
      </g>
    </g>
  </g>
</svg>
