<svg xmlns="http://www.w3.org/2000/svg" xmlns:xlink="http://www.w3.org/1999/xlink" width="375" height="667" viewBox="0 0 375 667">
  <defs>
    <clipPath id="clip-bg-mobile-1">
      <rect width="375" height="667"/>
    </clipPath>
  </defs>
  <g id="bg-mobile-1" clip-path="url(#clip-bg-mobile-1)">
    <rect width="375" height="667" fill="#fff"/>
    <g id="bg_wallpaper_gray-01" data-name="bg wallpaper gray-01" transform="translate(-17.428 697.046) rotate(-90)">
      <path id="Path_25251" data-name="Path 25251" d="M128.974,83.453C137.18,21.251,109.906-3.592,64.556.414,34.593,3.064,4.46,8.928.137,83.453c-2.722,46.921,35.8,93.2,64.419,83.038C100.3,153.787,124.18,119.835,128.974,83.453Z" transform="translate(0 217.443)" fill="#90949c" opacity="0.25" style="isolation: isolate"/>
      <path id="Path_25252" data-name="Path 25252" d="M110.59,71.574C117.627,18.228,94.235-3.071,55.335.353,29.653,2.626,3.809,7.656.119,71.569-2.235,111.8,30.8,151.509,55.335,142.781,86.012,131.892,106.477,102.76,110.59,71.574Z" transform="translate(9.434 229.853)" fill="none" stroke="#90949c" stroke-miterlimit="10" stroke-width="1" opacity="0.25"/>
      <path id="Path_25253" data-name="Path 25253" d="M97.489,63.08C103.687,16.064,83.073-2.713,48.8.313,26.136,2.316,3.374,6.733.1,63.08c-2.059,35.467,27.064,70.454,48.693,62.75C75.839,116.245,93.89,90.568,97.489,63.08Z" transform="translate(16.251 238.415)" fill="none" stroke="#90949c" stroke-miterlimit="10" stroke-width="1" opacity="0.25"/>
      <path id="Path_25254" data-name="Path 25254" d="M90.715,58.694C96.485,14.945,77.3-2.515,45.4.289,24.319,2.155,3.135,6.281.1,58.694-1.821,91.7,25.278,124.251,45.4,117.1,70.555,108.166,87.342,84.273,90.715,58.694Z" transform="translate(19.691 242.698)" fill="none" stroke="#90949c" stroke-miterlimit="10" stroke-width="1" opacity="0.25"/>
      <path id="Path_25255" data-name="Path 25255" d="M82.653,53.5C87.909,13.625,70.428-2.3,41.382.266,22.163,1.978,2.859,5.723.09,53.5c-1.768,30.074,22.925,59.74,41.292,53.226C64.282,98.585,79.58,76.806,82.653,53.5Z" transform="translate(23.563 247.828)" fill="none" stroke="#90949c" stroke-miterlimit="10" stroke-width="1" opacity="0.25"/>
      <path id="Path_25256" data-name="Path 25256" d="M69.976,45.275C74.427,11.542,59.634-1.95,35.027.225,18.762,1.663,2.419,4.843.074,45.275-1.4,70.713,19.5,95.826,35.027,90.313,54.425,83.434,67.373,64.965,69.976,45.275Z" transform="translate(29.961 255.984)" fill="none" stroke="#90949c" stroke-miterlimit="10" stroke-width="1" opacity="0.25"/>
      <path id="Path_25257" data-name="Path 25257" d="M58.124,37.61C61.822,9.574,49.529-1.619,29.095.187,15.586,1.381,2.013,4.039.061,37.61c-1.224,21.141,16.137,42,29.033,37.419C45.21,69.327,55.958,54.016,58.124,37.61Z" transform="translate(35.953 263.649)" fill="none" stroke="#90949c" stroke-miterlimit="10" stroke-width="1" opacity="0.25"/>
      <path id="Path_25258" data-name="Path 25258" d="M50.5,32.691C53.716,8.331,43.036-1.4,25.277.16,13.536,1.2,1.736,3.495.053,32.691c-1.066,18.371,14.018,36.494,25.224,32.53C39.261,60.235,48.627,46.931,50.5,32.691Z" transform="translate(39.809 268.796)" fill="none" stroke="#90949c" stroke-miterlimit="10" stroke-width="1" opacity="0.25"/>
      <path id="Path_25259" data-name="Path 25259" d="M40.347,26.106C42.915,6.648,34.38-1.121,20.195.129,10.817.959,1.4,2.8.043,26.106c-.856,14.677,11.2,29.158,20.152,25.977C31.384,48.12,38.836,37.492,40.347,26.106Z" transform="translate(44.943 275.217)" fill="none" stroke="#90949c" stroke-miterlimit="10" stroke-width="1" opacity="0.25"/>
      <path id="Path_25260" data-name="Path 25260" d="M26.8,17.344C28.515,4.417,22.839-.745,13.414.086,7.186.638.928,1.858.029,17.344c-.574,9.746,7.439,19.364,13.385,17.25C20.857,31.957,25.818,24.9,26.8,17.344Z" transform="translate(51.792 284.215)" fill="none" stroke="#90949c" stroke-miterlimit="10" stroke-width="1" opacity="0.25"/>
      <path id="Path_25261" data-name="Path 25261" d="M16.428,10.634C17.473,2.706,14-.457,8.223.053,4.4.391.57,1.14.017,10.634-.329,16.626,4.58,22.5,8.223,21.21A12.937,12.937,0,0,0,16.428,10.634Z" transform="translate(56.928 290.626)" fill="none" stroke="#90949c" stroke-miterlimit="10" stroke-width="1" opacity="0.25"/>
      <path id="Path_25262" data-name="Path 25262" d="M163.02,69.223C177.411,37.48,120.534-2.211,85.76.1c-112.573,7.465-116.108,139.419,0,138.254C123.389,137.974,157.028,82.445,163.02,69.223Z" transform="translate(165.845 232.742)" fill="#90949c" opacity="0.25" style="isolation: isolate"/>
      <path id="Path_25263" data-name="Path 25263" d="M144.3,61.264C157.028,33.168,106.7-1.965,75.915.086c-99.65,6.609-102.779,123.41,0,122.383C109.238,122.122,139,72.967,144.3,61.264Z" transform="translate(175.262 240.885)" fill="none" stroke="#90949c" stroke-miterlimit="10" stroke-width="1" opacity="0.25"/>
      <path id="Path_25264" data-name="Path 25264" d="M132.909,56.437C144.637,30.554,98.269-1.8,69.92.078c-91.779,6.087-94.664,113.664,0,112.714C100.61,112.484,128.021,67.232,132.909,56.437Z" transform="translate(181.253 245.584)" fill="none" stroke="#90949c" stroke-miterlimit="10" stroke-width="1" opacity="0.25"/>
      <path id="Path_25265" data-name="Path 25265" d="M117.29,49.8C127.64,26.967,86.72-1.592,61.7.069c-80.992,5.368-83.535,100.305,0,99.47C88.787,99.266,112.975,59.313,117.29,49.8Z" transform="translate(188.958 252.005)" fill="none" stroke="#90949c" stroke-miterlimit="10" stroke-width="1" opacity="0.25"/>
      <path id="Path_25266" data-name="Path 25266" d="M92.39,39.241C100.548,21.263,68.309-1.251,48.6.054c-63.8,4.233-65.784,79.028,0,78.373C69.944,78.209,89,46.731,92.39,39.241Z" transform="translate(201.377 262.704)" fill="none" stroke="#90949c" stroke-miterlimit="10" stroke-width="1" opacity="0.25"/>
      <path id="Path_25267" data-name="Path 25267" d="M83.942,35.64C91.352,19.311,62.066-1.14,44.161.05c-57.968,3.852-59.788,71.79,0,71.19C63.542,71.064,80.839,42.468,83.942,35.64Z" transform="translate(206.079 266.111)" fill="none" stroke="#90949c" stroke-miterlimit="10" stroke-width="1" opacity="0.25"/>
      <path id="Path_25268" data-name="Path 25268" d="M68.323,29.014C74.354,15.706,50.517-.927,35.942.04c-47.178,3.129-48.663,58.431,0,57.943C51.733,57.816,65.811,34.553,68.323,29.014Z" transform="translate(213.784 272.977)" fill="none" stroke="#90949c" stroke-miterlimit="10" stroke-width="1" opacity="0.25"/>
      <path id="Path_25269" data-name="Path 25269" d="M52.28,22.2C56.894,12.016,38.634-.71,27.505.031c-36.1,2.393-37.239,44.712,0,44.34C39.572,44.251,50.358,26.44,52.28,22.2Z" transform="translate(221.922 279.827)" fill="none" stroke="#90949c" stroke-miterlimit="10" stroke-width="1" opacity="0.25"/>
      <path id="Path_25270" data-name="Path 25270" d="M36.242,15.388C39.444,8.329,26.8-.492,19.065.021c-25.027,1.656-25.81,30.994,0,30.737C27.438,30.673,34.911,18.328,36.242,15.388Z" transform="translate(230.049 286.676)" fill="none" stroke="#90949c" stroke-miterlimit="10" stroke-width="1" opacity="0.25"/>
      <path id="Path_25271" data-name="Path 25271" d="M24,10.193C26.14,5.519,17.746-.324,12.627.014c-16.573,1.1-17.1,20.546,0,20.353C18.17,20.316,23.118,12.136,24,10.193Z" transform="translate(236.471 291.383)" fill="none" stroke="#90949c" stroke-miterlimit="10" stroke-width="1" opacity="0.25"/>
      <path id="Path_25272" data-name="Path 25272" d="M103.506,43.949C112.64,23.8,76.54-1.423,54.454.063c-71.481,4.738-73.72,88.513,0,87.777C78.329,87.6,99.68,52.342,103.506,43.949Z" transform="translate(195.825 257.995)" fill="none" stroke="#90949c" stroke-miterlimit="10" stroke-width="1" opacity="0.25"/>
      <path id="Path_25273" data-name="Path 25273" d="M128.919,77.3C134.273,20.954,109.764-5.344,65.356.9,26.191,6.405,10.23,27.525,1.793,77.3c-9.241,54.437,18.029,82.293,63.563,76.4C100.172,149.206,124.929,119.312,128.919,77.3Z" transform="translate(0.484 24.342)" fill="#90949c" opacity="0.25" style="isolation: isolate"/>
      <path id="Path_25274" data-name="Path 25274" d="M115.051,68.993c4.781-50.3-17.1-73.758-56.727-68.19C23.366,5.717,9.126,24.568,1.6,68.993c-8.235,48.582,16.09,73.442,56.727,68.186C89.395,133.164,111.49,106.484,115.051,68.993Z" transform="translate(7.764 32.474)" fill="none" stroke="#90949c" stroke-miterlimit="10" stroke-width="1" opacity="0.25"/>
      <path id="Path_25275" data-name="Path 25275" d="M107.186,64.278C111.638,17.417,91.242-4.443,54.333.749,21.781,5.325,8.5,22.887,1.484,64.278c-7.657,45.277,14.981,68.43,52.849,63.529C83.285,124.061,103.869,99.205,107.186,64.278Z" transform="translate(11.194 37.185)" fill="none" stroke="#90949c" stroke-miterlimit="10" stroke-width="1" opacity="0.25"/>
      <path id="Path_25276" data-name="Path 25276" d="M98.384,59.006C102.472,15.989,83.763-4.077,49.893.687,20.007,4.89,7.817,21.019,1.371,59.006c-7.058,41.562,13.744,62.81,48.522,58.319C76.431,113.9,95.341,91.066,98.384,59.006Z" transform="translate(15.909 42.747)" fill="none" stroke="#90949c" stroke-miterlimit="10" stroke-width="1" opacity="0.25"/>
      <path id="Path_25277" data-name="Path 25277" d="M89.421,53.643C93.137,14.534,76.127-3.713,45.334.627,18.167,4.445,7.081,19.1,1.247,53.643c-6.42,37.778,12.511,57.108,44.109,53.02C69.471,103.539,86.652,82.8,89.421,53.643Z" transform="translate(20.215 47.884)" fill="none" stroke="#90949c" stroke-miterlimit="10" stroke-width="1" opacity="0.25"/>
      <path id="Path_25278" data-name="Path 25278" d="M74.562,44.71C77.657,12.116,63.481-3.088,37.8.52,15.151,3.7,5.915,15.93,1.035,44.71-4.3,76.2,11.462,92.307,37.8,88.9,57.942,86.3,72.26,69.01,74.562,44.71Z" transform="translate(27.446 56.872)" fill="none" stroke="#90949c" stroke-miterlimit="10" stroke-width="1" opacity="0.25"/>
      <path id="Path_25279" data-name="Path 25279" d="M57.544,34.5C59.932,9.349,48.983-2.388,29.169.4,11.693,2.86,4.566,12.285.8,34.5-3.322,58.8,8.847,71.238,29.169,68.61,44.711,66.6,55.763,53.256,57.544,34.5Z" transform="translate(36.015 67.146)" fill="none" stroke="#90949c" stroke-miterlimit="10" stroke-width="1" opacity="0.25"/>
      <path id="Path_25280" data-name="Path 25280" d="M45.757,27.439C47.657,7.433,38.96-1.894,23.2.319,9.3,2.275,3.63,9.77.634,27.439-2.641,46.76,7.054,56.648,23.2,54.559,35.553,52.958,44.34,42.356,45.757,27.439Z" transform="translate(42.434 74.421)" fill="none" stroke="#90949c" stroke-miterlimit="10" stroke-width="1" opacity="0.25"/>
      <path id="Path_25281" data-name="Path 25281" d="M31.829,19.082C33.152,5.171,27.121-1.322,16.137.223,6.468,1.58,2.526,6.794.441,19.082c-2.277,13.44,4.452,20.319,15.7,18.863C24.732,36.833,30.845,29.454,31.829,19.082Z" transform="translate(49.283 82.128)" fill="none" stroke="#90949c" stroke-miterlimit="10" stroke-width="1" opacity="0.25"/>
      <path id="Path_25282" data-name="Path 25282" d="M19.68,11.8C20.5,3.2,16.757-.817,9.976.138,3.984.994,1.561,4.2.273,11.8c-1.408,8.312,2.752,12.563,9.7,11.664C15.293,22.781,19.085,18.214,19.68,11.8Z" transform="translate(55.705 89.404)" fill="none" stroke="#90949c" stroke-miterlimit="10" stroke-width="1" opacity="0.25"/>
      <path id="Path_25283" data-name="Path 25283" d="M125.489,83.479C119.458,29.183,101.331-5.24,64.281.654,23.378,7.161-10.591,30.06,3.072,83.479c7.277,28.464,26.08,81.416,61.209,82.824C107.542,168.015,130.5,128.6,125.489,83.479Z" transform="translate(174.698 18.168)" fill="#90949c" opacity="0.25" style="isolation: isolate"/>
      <path id="Path_25284" data-name="Path 25284" d="M110.917,73.775C105.584,25.784,89.563-4.641,56.814.581,20.662,6.334-9.36,26.571,2.715,73.775c6.421,25.177,23.049,71.965,54.1,73.193C95.033,148.517,115.33,113.646,110.917,73.775Z" transform="translate(182.422 27.594)" fill="none" stroke="#90949c" stroke-miterlimit="10" stroke-width="1" opacity="0.25"/>
      <path id="Path_25285" data-name="Path 25285" d="M100.97,67.171C96.129,23.482,81.533-4.216,51.721.527,18.809,5.761-8.521,24.2,2.471,67.171c5.86,22.917,20.974,65.51,49.249,66.64C86.537,135.207,105,103.473,100.97,67.171Z" transform="translate(187.112 34.432)" fill="none" stroke="#90949c" stroke-miterlimit="10" stroke-width="1" opacity="0.25"/>
      <path id="Path_25286" data-name="Path 25286" d="M90.254,60.04C85.918,20.99,72.88-3.767,46.231.47,16.812,5.149-7.629,21.628,2.216,60.04c5.235,20.486,18.756,58.555,44.019,59.569C77.344,120.867,93.858,92.489,90.254,60.04Z" transform="translate(192.675 42.138)" fill="none" stroke="#90949c" stroke-miterlimit="10" stroke-width="1" opacity="0.25"/>
      <path id="Path_25287" data-name="Path 25287" d="M76.048,50.592C72.414,17.689,61.409-3.194,38.954.4,14.167,4.343-6.417,18.22,1.861,50.592c4.413,17.267,15.807,49.339,37.093,50.191C65.171,101.836,79.087,77.935,76.048,50.592Z" transform="translate(199.952 50.695)" fill="none" stroke="#90949c" stroke-miterlimit="10" stroke-width="1" opacity="0.25"/>
      <path id="Path_25288" data-name="Path 25288" d="M56.283,37.433C53.59,13.065,45.458-2.344,28.837.293,10.492,3.22-4.738,13.493,1.37,37.433,4.636,50.2,13.068,73.94,28.82,74.569,48.231,75.348,58.53,57.662,56.283,37.433Z" transform="translate(209.786 63.97)" fill="none" stroke="#90949c" stroke-miterlimit="10" stroke-width="1" opacity="0.25"/>
      <path id="Path_25289" data-name="Path 25289" d="M44.351,29.5C42.211,10.315,35.79-1.85,22.718.231,8.264,2.529-3.743,10.623,1.085,29.5c2.568,10.067,9.22,28.772,21.633,29.273C38.02,59.389,46.136,45.448,44.351,29.5Z" transform="translate(216.205 71.672)" fill="none" stroke="#90949c" stroke-miterlimit="10" stroke-width="1" opacity="0.25"/>
      <path id="Path_25290" data-name="Path 25290" d="M37.111,24.69C35.327,8.63,29.968-1.549,19.01.193c-12.1,1.926-22.142,8.7-18.1,24.5,2.14,8.424,7.7,24.081,18.1,24.5C31.8,49.7,38.6,38.036,37.111,24.69Z" transform="translate(219.643 76.379)" fill="none" stroke="#90949c" stroke-miterlimit="10" stroke-width="1" opacity="0.25"/>
      <path id="Path_25291" data-name="Path 25291" d="M25.033,16.653C23.83,5.819,20.213-1.046,12.821.131,4.663,1.415-2.113,5.995.613,16.653c1.451,5.68,5.2,16.24,12.207,16.518C21.45,33.517,26.03,25.65,25.033,16.653Z" transform="translate(226.064 84.514)" fill="none" stroke="#90949c" stroke-miterlimit="10" stroke-width="1" opacity="0.25"/>
      <path id="Path_25292" data-name="Path 25292" d="M17.282,11.5C16.452,4.015,13.948-.719,8.854.09,3.221.988-1.457,4.139.422,11.5,1.428,15.422,4.013,22.711,8.854,22.9,14.8,23.143,17.976,17.712,17.282,11.5Z" transform="translate(229.487 89.649)" fill="none" stroke="#90949c" stroke-miterlimit="10" stroke-width="1" opacity="0.25"/>
      <path id="Path_25293" data-name="Path 25293" d="M96.532,16.076C83.584-22.19-7.052,15.477.439,49.891c3.63,16.693,33.335,21.74,59.924,16.8C88.01,61.559,102.846,34.772,96.532,16.076Z" transform="translate(331.315 339.608)" fill="#90949c" opacity="0.25" style="isolation: isolate"/>
      <path id="Path_25294" data-name="Path 25294" d="M81.516,13.576C70.58-18.74-5.948,13.071.37,42.135,3.435,56.225,28.522,60.493,50.963,56.324,74.317,51.988,86.88,29.366,81.516,13.576Z" transform="translate(339.149 344.872)" fill="none" stroke="#90949c" stroke-miterlimit="10" stroke-width="1" opacity="0.25"/>
      <path id="Path_25295" data-name="Path 25295" d="M75.037,12.5C64.974-17.25-5.48,12.031.341,38.783c2.821,12.969,25.913,16.9,46.574,13.059C68.4,47.853,79.955,27.029,75.037,12.5Z" transform="translate(342.397 347.291)" fill="none" stroke="#90949c" stroke-miterlimit="10" stroke-width="1" opacity="0.25"/>
      <path id="Path_25296" data-name="Path 25296" d="M63.277,10.543c-8.5-25.1-67.894-.394-62.989,22.168,2.376,10.941,21.83,14.253,39.272,11.018C57.691,40.36,67.424,22.8,63.277,10.543Z" transform="translate(348.567 351.402)" fill="none" stroke="#90949c" stroke-miterlimit="10" stroke-width="1" opacity="0.25"/>
      <path id="Path_25297" data-name="Path 25297" d="M55.432,9.232C48-12.743-4.065,8.889.254,28.651,2.339,38.235,19.4,41.137,34.659,38.3,50.556,35.342,59.066,19.962,55.432,9.232Z" transform="translate(352.534 354.156)" fill="none" stroke="#90949c" stroke-miterlimit="10" stroke-width="1" opacity="0.25"/>
      <path id="Path_25298" data-name="Path 25298" d="M45.63,7.6C39.505-10.49-3.332,7.317.208,23.586,1.92,31.475,15.963,33.859,28.526,31.53,41.6,29.1,48.618,16.438,45.63,7.6Z" transform="translate(357.182 357.797)" fill="none" stroke="#90949c" stroke-miterlimit="10" stroke-width="1" opacity="0.25"/>
      <path id="Path_25299" data-name="Path 25299" d="M36.768,6.125C31.837-8.453-2.684,5.894.167,19c1.382,6.356,12.7,8.282,22.818,6.42C33.524,23.452,39.178,13.239,36.768,6.125Z" transform="translate(361.914 360.786)" fill="none" stroke="#90949c" stroke-miterlimit="10" stroke-width="1" opacity="0.25"/>
      <path id="Path_25300" data-name="Path 25300" d="M25.976,4.327C22.491-5.972-1.9,4.164.118,13.427c.976,4.494,8.989,5.851,16.12,4.524C23.682,16.568,27.679,9.356,25.976,4.327Z" transform="translate(367.321 364.669)" fill="none" stroke="#90949c" stroke-miterlimit="10" stroke-width="1" opacity="0.25"/>
      <path id="Path_25301" data-name="Path 25301" d="M14.843,2.472c-1.99-5.885-15.927-.09-14.776,5.2C.624,10.241,5.2,11.02,9.279,10.241,13.525,9.483,15.841,5.361,14.843,2.472Z" transform="translate(373.125 368.621)" fill="none" stroke="#90949c" stroke-miterlimit="10" stroke-width="1" opacity="0.25"/>
      <path id="Path_25302" data-name="Path 25302" d="M156.1,30.351C134.927,3.427,100.68-6.888,57.937,4.7,5.747,18.871-11.045,54.757,7,92.45c15.409,32.192,48.055,35.266,98.161,25.648C161.559,107.3,186.24,68.7,156.1,30.351Z" transform="translate(324.441 132.719)" fill="#90949c" opacity="0.25" style="isolation: isolate"/>
      <path id="Path_25303" data-name="Path 25303" d="M143.906,27.989C124.388,3.163,92.816-6.356,53.411,4.34,5.292,17.4-10.186,50.469,6.46,85.238c14.224,29.684,44.306,32.53,90.495,23.649C148.94,98.9,171.694,63.31,143.906,27.989Z" transform="translate(330.666 137.361)" fill="none" stroke="#90949c" stroke-miterlimit="10" stroke-width="1" opacity="0.25"/>
      <path id="Path_25304" data-name="Path 25304" d="M124.5,24.213C107.611,2.738,80.294-5.5,46.206,3.757,4.58,15.057-8.813,43.68,5.59,73.745c12.3,25.682,38.33,28.13,78.291,20.46C128.855,85.588,148.54,54.77,124.5,24.213Z" transform="translate(341.377 145.11)" fill="none" stroke="#90949c" stroke-miterlimit="10" stroke-width="1" opacity="0.25"/>
      <path id="Path_25305" data-name="Path 25305" d="M114.548,22.282C99.01,2.524,73.885-5.056,42.515,3.449c-38.3,10.4-50.623,36.734-37.372,64.4C16.464,91.473,40.409,93.725,77.177,86.679,118.554,78.735,136.682,50.417,114.548,22.282Z" transform="translate(347.132 149.035)" fill="none" stroke="#90949c" stroke-miterlimit="10" stroke-width="1" opacity="0.25"/>
      <path id="Path_25306" data-name="Path 25306" d="M94.327,18.347C81.533,2.081,60.837-4.168,35.01,2.843,3.468,11.4-6.676,33.092,4.234,55.872c9.323,19.458,29.042,21.312,59.321,15.5C97.627,64.835,112.539,41.507,94.327,18.347Z" transform="translate(357.324 156.969)" fill="none" stroke="#90949c" stroke-miterlimit="10" stroke-width="1" opacity="0.25"/>
      <path id="Path_25307" data-name="Path 25307" d="M75.144,14.615C64.948,1.654,48.464-3.32,27.889,2.266,2.755,9.115-5.318,26.36,3.376,44.509c7.426,15.5,23.114,16.976,47.25,12.349C77.772,51.657,89.646,33.084,75.144,14.615Z" transform="translate(367.63 164.227)" fill="none" stroke="#90949c" stroke-miterlimit="10" stroke-width="1" opacity="0.25"/>
      <path id="Path_25308" data-name="Path 25308" d="M52.077,10.124C45.01,1.135,33.586-2.289,19.328,1.563,1.916,6.271-3.687,18.256,2.339,30.836,7.476,41.58,18.373,42.6,35.088,39.4,53.9,35.788,62.131,22.913,52.077,10.124Z" transform="translate(380.077 173.234)" fill="none" stroke="#90949c" stroke-miterlimit="10" stroke-width="1" opacity="0.25"/>
      <path id="Path_25309" data-name="Path 25309" d="M35.517,6.909C30.7.784,22.907-1.57,13.182,1.071,1.3,4.294-2.514,12.461,1.6,21.039c3.51,7.324,10.932,8.026,22.335,5.834C36.745,24.412,42.365,15.62,35.517,6.909Z" transform="translate(388.975 179.916)" fill="none" stroke="#90949c" stroke-miterlimit="10" stroke-width="1" opacity="0.25"/>
      <path id="Path_25310" data-name="Path 25310" d="M19.39,3.77C16.762.427,12.5-.857,7.2.585.707,2.345-1.365,6.8.865,11.487c1.917,4,5.992,4.383,12.2,3.189C20.071,13.311,23.14,8.534,19.39,3.77Z" transform="translate(398.754 186.505)" fill="none" stroke="#90949c" stroke-miterlimit="10" stroke-width="1" opacity="0.25"/>
      <path id="Path_25311" data-name="Path 25311" d="M60.557,32.14C59.016,14.48,47.022.924,30.38.038,15.142-.771,3.658,11.441.2,32.14c-2.256,13.521,14.6,33.9,30.176,32.1C47.035,62.325,61.588,44.061,60.557,32.14Z" transform="translate(342.786 31.625)" fill="#90949c" opacity="0.25" style="isolation: isolate"/>
      <path id="Path_25312" data-name="Path 25312" d="M54.521,28.935C53.135,13.033,42.331.83,27.35.034,13.653-.694,3.294,10.307.183,28.935-1.842,41.108,13.332,59.47,27.35,57.835,42.331,56.11,55.459,39.661,54.521,28.935Z" transform="translate(345.778 34.621)" fill="none" stroke="#90949c" stroke-miterlimit="10" stroke-width="1" opacity="0.25"/>
      <path id="Path_25313" data-name="Path 25313" d="M46.381,24.624C45.2,11.089,36.01.705,23.268.029,11.6-.592,2.795,8.765.154,24.624c-1.712,10.358,11.185,25.969,23.114,24.59C36.01,47.746,47.178,33.749,46.381,24.624Z" transform="translate(349.647 38.902)" fill="none" stroke="#90949c" stroke-miterlimit="10" stroke-width="1" opacity="0.25"/>
      <path id="Path_25314" data-name="Path 25314" d="M41.23,21.9C40.177,9.866,32.006.629,20.685.026,10.3-.526,2.48,7.795.139,21.9-1.4,31.114,10.087,45.012,20.685,43.771,32.023,42.465,41.936,30,41.23,21.9Z" transform="translate(352.234 41.469)" fill="none" stroke="#90949c" stroke-miterlimit="10" stroke-width="1" opacity="0.25"/>
      <path id="Path_25315" data-name="Path 25315" d="M32.705,17.359C31.875,7.818,25.4.5,16.41.02,8.179-.408,1.977,6.179.11,17.359c-1.22,7.3,7.889,18.307,16.3,17.335C25.4,33.659,33.27,23.793,32.705,17.359Z" transform="translate(356.483 46.18)" fill="none" stroke="#90949c" stroke-miterlimit="10" stroke-width="1" opacity="0.25"/>
      <path id="Path_25316" data-name="Path 25316" d="M22.187,11.776C21.622,5.3,17.23.339,11.131.014,5.566-.282,1.337,4.191.075,11.776c-.826,4.957,5.35,12.413,11.056,11.767C17.209,22.836,22.546,16.142,22.187,11.776Z" transform="translate(362.07 51.741)" fill="none" stroke="#90949c" stroke-miterlimit="10" stroke-width="1" opacity="0.25"/>
      <path id="Path_25317" data-name="Path 25317" d="M15.745,8.356C15.342,3.768,12.222.224,7.9.01,3.935-.2.948,2.976.053,8.356-.533,11.875,3.85,17.17,7.9,16.7,12.226,16.206,16.014,11.455,15.745,8.356Z" transform="translate(365.473 55.165)" fill="none" stroke="#90949c" stroke-miterlimit="10" stroke-width="1" opacity="0.25"/>
      <path id="Path_25318" data-name="Path 25318" d="M8.328,4.422A4.544,4.544,0,0,0,4.18.005C2.083-.106.5,1.576.029,4.422-.284,6.284,2.036,9.084,4.18,8.84,6.457,8.574,8.465,6.062,8.328,4.422Z" transform="translate(369.333 59.018)" fill="none" stroke="#90949c" stroke-miterlimit="10" stroke-width="1" opacity="0.25"/>
      <path id="Path_25319" data-name="Path 25319" d="M140.874,61.138C165.657,22.136,113.707,10.964,71.1,4,17.438-4.779-6.083-4.338,1.335,61.138c3.976,35.1,25.447,74.88,69.769,57.142C104.149,105.058,128.033,81.341,140.874,61.138Z" transform="translate(459.364 263.085)" fill="#90949c" opacity="0.25" style="isolation: isolate"/>
      <path id="Path_25320" data-name="Path 25320" d="M132.68,57.58c23.341-36.734-25.588-47.255-65.711-53.816C16.422-4.5-5.728-4.086,1.257,57.58,5,90.642,25.227,128.107,66.969,111.4,98.091,98.954,120.589,76.611,132.68,57.58Z" transform="translate(463.645 266.51)" fill="none" stroke="#90949c" stroke-miterlimit="10" stroke-width="1" opacity="0.25"/>
      <path id="Path_25321" data-name="Path 25321" d="M121.108,52.562C142.415,19.029,97.75,9.424,61.128,3.436,14.986-4.11-5.217-3.729,1.143,52.562c3.424,30.181,21.877,64.376,59.984,49.125C89.536,90.318,110.052,69.914,121.108,52.562Z" transform="translate(469.64 271.645)" fill="none" stroke="#90949c" stroke-miterlimit="10" stroke-width="1" opacity="0.25"/>
      <path id="Path_25322" data-name="Path 25322" d="M109.349,47.454C128.611,17.184,88.264,8.5,55.195,3.1,13.538-3.708-4.73-3.37,1.04,47.454,4.126,74.7,20.794,105.577,55.195,91.811,80.846,81.547,99.385,63.137,109.349,47.454Z" transform="translate(476.053 276.782)" fill="none" stroke="#90949c" stroke-miterlimit="10" stroke-width="1" opacity="0.25"/>
      <path id="Path_25323" data-name="Path 25323" d="M95.034,41.219C111.753,14.912,76.71,7.374,47.976,2.7,11.778-3.224-4.085-2.924.893,41.219,3.576,64.893,18.057,91.726,47.976,79.742,70.264,70.843,86.375,54.851,95.034,41.219Z" transform="translate(483.318 282.791)" fill="none" stroke="#90949c" stroke-miterlimit="10" stroke-width="1" opacity="0.25"/>
      <path id="Path_25324" data-name="Path 25324" d="M83.967,36.441C98.738,13.194,67.775,6.534,42.384,2.382,10.393-2.848-3.625-2.587.8,36.441,3.167,57.363,15.961,81.072,42.384,70.5A89.971,89.971,0,0,0,83.967,36.441Z" transform="translate(488.898 287.483)" fill="none" stroke="#90949c" stroke-miterlimit="10" stroke-width="1" opacity="0.25"/>
      <path id="Path_25325" data-name="Path 25325" d="M67.994,29.512C79.979,10.679,54.88,5.294,34.317,1.93,8.408-2.308-2.922-2.094.639,29.512,2.557,46.458,12.919,65.659,34.317,57.1A72.94,72.94,0,0,0,67.994,29.512Z" transform="translate(497.038 294.33)" fill="none" stroke="#90949c" stroke-miterlimit="10" stroke-width="1" opacity="0.25"/>
      <path id="Path_25326" data-name="Path 25326" d="M55.23,23.963C64.946,8.673,44.581,4.273,27.879,1.559,6.837-1.865-2.383-1.706.523,23.963c1.562,13.766,9.978,29.359,27.356,22.4A59.317,59.317,0,0,0,55.23,23.963Z" transform="translate(503.878 299.901)" fill="none" stroke="#90949c" stroke-miterlimit="10" stroke-width="1" opacity="0.25"/>
      <path id="Path_25327" data-name="Path 25327" d="M41.4,17.958C48.672,6.5,33.413,3.216,20.893,1.17,5.124-1.4-1.793-1.282.395,17.958c1.168,10.316,7.478,22.005,20.5,16.792A44.351,44.351,0,0,0,41.4,17.958Z" transform="translate(511.583 306.321)" fill="none" stroke="#90949c" stroke-miterlimit="10" stroke-width="1" opacity="0.25"/>
      <path id="Path_25328" data-name="Path 25328" d="M26.247,11.394c4.619-7.277-5.059-9.348-13-10.649C3.249-.89-1.134-.809.249,11.394c.74,6.54,4.743,13.95,13,10.645A28.138,28.138,0,0,0,26.247,11.394Z" transform="translate(519.288 313.163)" fill="none" stroke="#90949c" stroke-miterlimit="10" stroke-width="1" opacity="0.25"/>
      <path id="Path_25329" data-name="Path 25329" d="M91.03,61.991C94.24,12.506,71.858-1.6,47.37.141,8.475,2.906-8.021,7.04,3.711,61.991c7.307,34.217,15.482,64.778,43.659,61.851C71.34,121.351,88.821,96.08,91.03,61.991Z" transform="translate(650.031 277.213)" fill="#90949c" opacity="0.25" style="isolation: isolate"/>
      <path id="Path_25330" data-name="Path 25330" d="M86.031,58.589C89.066,11.822,67.913-1.511,44.769.132,8.01,2.748-7.579,6.656,3.507,58.589c6.9,32.334,14.635,61.209,41.262,58.452C67.437,114.687,83.93,90.82,86.031,58.589Z" transform="translate(652.598 280.637)" fill="none" stroke="#90949c" stroke-miterlimit="10" stroke-width="1" opacity="0.25"/>
      <path id="Path_25331" data-name="Path 25331" d="M78.319,53.338C81.08,10.762,61.827-1.377,40.755.121,7.308,2.5-6.9,6.07,3.191,53.338c6.283,29.44,13.32,55.734,37.564,53.217C61.39,104.411,76.418,82.667,78.319,53.338Z" transform="translate(656.454 285.772)" fill="none" stroke="#90949c" stroke-miterlimit="10" stroke-width="1" opacity="0.25"/>
      <path id="Path_25332" data-name="Path 25332" d="M65.76,44.779C68.076,9.035,51.909-1.157,34.218.1,6.122,2.1-5.794,5.084,2.681,44.779,7.958,69.494,13.865,91.572,34.218,89.457,51.528,87.66,64.142,69.417,65.76,44.779Z" transform="translate(662.888 294.335)" fill="none" stroke="#90949c" stroke-miterlimit="10" stroke-width="1" opacity="0.25"/>
      <path id="Path_25333" data-name="Path 25333" d="M56.645,38.577C58.644,7.78,44.716-1,29.478.088,5.272,1.8-4.992,4.368,2.311,38.577c4.546,21.29,9.631,40.308,27.167,38.489C44.4,75.516,55.271,59.786,56.645,38.577Z" transform="translate(667.153 300.756)" fill="none" stroke="#90949c" stroke-miterlimit="10" stroke-width="1" opacity="0.25"/>
      <path id="Path_25334" data-name="Path 25334" d="M44.63,30.407C46.2,6.134,35.213-.783,23.228.069,4.151,1.425-3.939,3.454,1.826,30.407c3.583,16.783,7.6,31.773,21.4,30.339C34.977,59.526,43.542,47.131,44.63,30.407Z" transform="translate(673.168 308.887)" fill="none" stroke="#90949c" stroke-miterlimit="10" stroke-width="1" opacity="0.25"/>
      <path id="Path_25335" data-name="Path 25335" d="M32.775,22.309C33.931,4.495,25.871-.582,17.053.052c-14,1-19.942,2.483-15.717,22.258C3.969,34.628,6.9,45.633,17.053,44.567,25.691,43.664,31.962,34.564,32.775,22.309Z" transform="translate(679.136 317.045)" fill="none" stroke="#90949c" stroke-miterlimit="10" stroke-width="1" opacity="0.25"/>
      <path id="Path_25336" data-name="Path 25336" d="M27.434,18.683C28.4,3.771,21.655-.484,14.276.043,2.556.9-2.417,2.123,1.118,18.683,3.323,28.995,5.784,38.2,14.276,37.32,21.51,36.571,26.77,28.956,27.434,18.683Z" transform="translate(681.7 320.872)" fill="none" stroke="#90949c" stroke-miterlimit="10" stroke-width="1" opacity="0.25"/>
      <path id="Path_25337" data-name="Path 25337" d="M19.267,13.119C19.948,2.649,15.21-.338,10.026.03,1.8.616-1.7,1.489.785,13.119c1.55,7.242,3.279,13.7,9.241,13.089C15.1,25.682,18.8,20.335,19.267,13.119Z" transform="translate(685.984 326.436)" fill="none" stroke="#90949c" stroke-miterlimit="10" stroke-width="1" opacity="0.25"/>
      <path id="Path_25338" data-name="Path 25338" d="M12.039,8.2C12.467,1.654,9.5-.212,6.265.019,1.129.382-1.063.93.491,8.2c.963,4.524,2.046,8.561,5.774,8.18C9.45,16.04,11.748,12.7,12.039,8.2Z" transform="translate(689.411 331.584)" fill="none" stroke="#90949c" stroke-miterlimit="10" stroke-width="1" opacity="0.25"/>
      <path id="Path_25339" data-name="Path 25339" d="M1.39,53.278C-6.267,14.845,18.358-2.075,59.175.2c31.863,1.776,57.784,23.764,57.784,53.076s-25.922,51.312-57.784,53.076C20.036,108.52,6.955,81.1,1.39,53.278Z" transform="translate(544.059 141.037)" fill="#90949c" opacity="0.25" style="isolation: isolate"/>
      <path id="Path_25340" data-name="Path 25340" d="M1.263,48.4C-5.693,13.482,16.672-1.884,53.761.183c28.956,1.614,52.5,21.586,52.5,48.218s-23.542,46.617-52.5,48.222C18.2,98.584,6.3,73.664,1.263,48.4Z" transform="translate(549.623 145.747)" fill="none" stroke="#90949c" stroke-miterlimit="10" stroke-width="1" opacity="0.25"/>
      <path id="Path_25341" data-name="Path 25341" d="M1.131,43.335c-6.228-31.246,13.8-45.02,47-43.171,25.917,1.447,47,19.33,47,43.171S74.05,85.068,48.133,86.5C16.287,88.266,5.629,65.952,1.131,43.335Z" transform="translate(555.195 150.882)" fill="none" stroke="#90949c" stroke-miterlimit="10" stroke-width="1" opacity="0.25"/>
      <path id="Path_25342" data-name="Path 25342" d="M.973,37.29C-4.386,10.388,12.851-1.451,41.418.141c22.3,1.241,40.445,16.633,40.445,37.149S63.722,73.2,41.418,74.439C14.032,75.963,4.864,56.749.973,37.29Z" transform="translate(561.598 156.875)" fill="none" stroke="#90949c" stroke-miterlimit="10" stroke-width="1" opacity="0.25"/>
      <path id="Path_25343" data-name="Path 25343" d="M.679,25.982C-3.058,7.239,8.948-1.014,28.856.1,44.394.955,57.034,11.686,57.034,25.982S44.394,51,28.856,51.865C9.77,52.918,3.38,39.542.679,25.982Z" transform="translate(574.022 168.004)" fill="none" stroke="#90949c" stroke-miterlimit="10" stroke-width="1" opacity="0.25"/>
      <path id="Path_25344" data-name="Path 25344" d="M.525,20.13C-2.369,5.607,6.945-.784,22.354.076,34.4.748,44.184,9.065,44.184,20.13s-9.793,19.39-21.83,20.058C7.549,41,2.609,30.638.525,20.13Z" transform="translate(580.023 173.998)" fill="none" stroke="#90949c" stroke-miterlimit="10" stroke-width="1" opacity="0.25"/>
      <path id="Path_25345" data-name="Path 25345" d="M.342,13.113C-1.542,3.653,4.52-.507,14.565.049,22.407.477,28.785,5.9,28.785,13.113S22.407,25.744,14.565,26.176C4.93,26.711,1.707,19.957.342,13.113Z" transform="translate(588.147 180.843)" fill="none" stroke="#90949c" stroke-miterlimit="10" stroke-width="1" opacity="0.25"/>
      <path id="Path_25346" data-name="Path 25346" d="M.22,8.434C-.991,2.352,2.908-.328,9.367.032c5.047.283,9.147,3.762,9.147,8.4s-4.1,8.133-9.147,8.4C3.173,17.179,1.1,12.834.22,8.434Z" transform="translate(592.853 185.552)" fill="none" stroke="#90949c" stroke-miterlimit="10" stroke-width="1" opacity="0.25"/>
      <path id="Path_25347" data-name="Path 25347" d="M.8,30.463C-3.583,8.488,10.494-1.186,33.835.115,52.056,1.13,66.879,13.7,66.879,30.463S52.056,59.8,33.835,60.815C11.458,62.052,3.958,46.364.8,30.463Z" transform="translate(568.885 163.724)" fill="none" stroke="#90949c" stroke-miterlimit="10" stroke-width="1" opacity="0.25"/>
      <path id="Path_25348" data-name="Path 25348" d="M104.024,63.766c.6-42.32-17.078-67.347-51.792-63.349C19.984,4.128,3.5,24.447.44,63.766c-3.12,40.158,9.956,63.914,51.792,63.349C85.884,126.661,103.472,102.918,104.024,63.766Z" transform="translate(467.108 0)" fill="#90949c" opacity="0.25" style="isolation: isolate"/>
      <path id="Path_25349" data-name="Path 25349" d="M95.259,58.393C95.807,19.639,79.623-3.278,47.833.381,18.3,3.78,3.2,22.387.4,58.393-2.453,95.165,9.52,116.922,47.833,116.4,78.647,115.984,94.754,94.249,95.259,58.393Z" transform="translate(471.387 5.566)" fill="none" stroke="#90949c" stroke-miterlimit="10" stroke-width="1" opacity="0.25"/>
      <path id="Path_25350" data-name="Path 25350" d="M87.319,53.528C87.82,18,72.984-3,43.844.349,16.775,3.465,2.937,20.522.369,53.528c-2.615,33.716,8.368,53.65,43.467,53.174C72.085,106.321,86.844,86.388,87.319,53.528Z" transform="translate(475.68 10.272)" fill="none" stroke="#90949c" stroke-miterlimit="10" stroke-width="1" opacity="0.25"/>
      <path id="Path_25351" data-name="Path 25351" d="M78.8,48.3C79.25,16.247,65.861-2.711,39.567.315,15.139,3.128,2.649,18.52.333,48.3c-2.363,30.42,7.542,48.415,39.233,47.987C65.073,95.955,78.381,77.973,78.8,48.3Z" transform="translate(479.949 15.827)" fill="none" stroke="#90949c" stroke-miterlimit="10" stroke-width="1" opacity="0.25"/>
      <path id="Path_25352" data-name="Path 25352" d="M67.917,41.646C68.306,14.008,56.762-2.339,34.1.272,13.043,2.7,2.269,15.968.288,41.646-1.75,67.876,6.789,83.392,34.1,83.024,56.06,82.724,67.557,67.221,67.917,41.646Z" transform="translate(485.537 22.685)" fill="none" stroke="#90949c" stroke-miterlimit="10" stroke-width="1" opacity="0.25"/>
      <path id="Path_25353" data-name="Path 25353" d="M58.834,36.063C59.172,12.128,49.177-2.031,29.543.237,11.3,2.334,1.978,13.827.249,36.063-1.515,58.775,5.882,72.211,29.543,71.894,48.561,71.637,58.526,58.2,58.834,36.063Z" transform="translate(490.216 28.25)" fill="none" stroke="#90949c" stroke-miterlimit="10" stroke-width="1" opacity="0.25"/>
      <path id="Path_25354" data-name="Path 25354" d="M50.078,30.694C50.365,10.324,41.855-1.725,25.145.2,9.62,1.986,1.68,11.758.212,30.694-1.29,50.028,5,61.461,25.145,61.191,41.329,60.973,49.8,49.544,50.078,30.694Z" transform="translate(494.516 33.388)" fill="none" stroke="#90949c" stroke-miterlimit="10" stroke-width="1" opacity="0.25"/>
      <path id="Path_25355" data-name="Path 25355" d="M38.519,23.611C38.742,7.94,32.2-1.327,19.343.154,7.4,1.528,1.3,9.049.163,23.611-.992,38.48,3.849,47.276,19.343,47.067,31.786,46.9,38.3,38.108,38.519,23.611Z" transform="translate(500.51 40.664)" fill="none" stroke="#90949c" stroke-miterlimit="10" stroke-width="1" opacity="0.25"/>
      <path id="Path_25356" data-name="Path 25356" d="M29.084,17.829C29.251,6,24.312-1,14.6.117,5.585,1.153.971,6.833.12,17.829-.736,29.061,2.9,35.7,14.6,35.545,24,35.421,28.913,28.782,29.084,17.829Z" transform="translate(505.237 46.621)" fill="none" stroke="#90949c" stroke-miterlimit="10" stroke-width="1" opacity="0.25"/>
      <path id="Path_25357" data-name="Path 25357" d="M19.963,12.236C20.078,4.1,16.688-.686,10.024.08,3.834.79.671,4.69.085,12.236c-.6,7.7,1.909,12.267,9.939,12.16C16.483,24.307,19.864,19.752,19.963,12.236Z" transform="translate(509.924 52.21)" fill="none" stroke="#90949c" stroke-miterlimit="10" stroke-width="1" opacity="0.25"/>
      <path id="Path_25358" data-name="Path 25358" d="M11.984,7.328C12.053,2.453,10.015-.428,6.017.052,2.3.48.4,2.821.051,7.328c-.359,4.627,1.147,7.362,5.967,7.3C9.891,14.575,11.92,11.84,11.984,7.328Z" transform="translate(513.776 56.934)" fill="none" stroke="#90949c" stroke-miterlimit="10" stroke-width="1" opacity="0.25"/>
      <path id="Path_25359" data-name="Path 25359" d="M86.717,32.469C87.573,10.117,71.308-1.487,43.486.153,16.948,1.715,1.881,13.079.254,32.469-2.006,59.435,10.673,69.34,43.486,64.786,67.926,61.4,85.9,54.3,86.717,32.469Z" transform="translate(635.938 22.094)" fill="#90949c" opacity="0.25" style="isolation: isolate"/>
      <path id="Path_25360" data-name="Path 25360" d="M75.989,28.453C76.721,8.862,62.506-1.3,38.1.134,14.858,1.5,1.644,11.46.223,28.453-1.759,52.076,9.349,60.761,38.1,56.771,59.523,53.8,75.27,47.577,75.989,28.453Z" transform="translate(641.504 26.376)" fill="none" stroke="#90949c" stroke-miterlimit="10" stroke-width="1" opacity="0.25"/>
      <path id="Path_25361" data-name="Path 25361" d="M64.514,24.155C65.139,7.521,53.069-1.1,32.352.112,12.615,1.272,1.4,9.726.189,24.155-1.493,44.212,7.937,51.583,32.352,48.2,50.535,45.672,63.906,40.39,64.514,24.155Z" transform="translate(647.068 30.81)" fill="none" stroke="#90949c" stroke-miterlimit="10" stroke-width="1" opacity="0.25"/>
      <path id="Path_25362" data-name="Path 25362" d="M55.276,20.694C55.807,6.449,45.466-.947,27.719.1,10.808,1.09,1.181,8.337.163,20.694-1.28,37.88,6.8,44.2,27.719,41.3,43.3,39.134,54.754,34.605,55.276,20.694Z" transform="translate(651.602 34.233)" fill="none" stroke="#90949c" stroke-miterlimit="10" stroke-width="1" opacity="0.25"/>
      <path id="Path_25363" data-name="Path 25363" d="M45.783,17.142C46.211,5.341,37.651-.784,22.961.08,8.956.9.994,6.9.134,17.142c-1.19,14.236,5.5,19.467,22.827,17.061C35.844,32.435,45.355,28.7,45.783,17.142Z" transform="translate(656.754 38.063)" fill="none" stroke="#90949c" stroke-miterlimit="10" stroke-width="1" opacity="0.25"/>
      <path id="Path_25364" data-name="Path 25364" d="M34.657,12.979C34.991,4.046,28.506-.594,17.377.061,6.775.686.753,5.227.1,12.979-.8,23.753,4.262,27.716,17.377,25.893,27.128,24.54,34.319,21.7,34.657,12.979Z" transform="translate(661.888 42.363)" fill="none" stroke="#90949c" stroke-miterlimit="10" stroke-width="1" opacity="0.25"/>
      <path id="Path_25365" data-name="Path 25365" d="M22.676,8.493c.218-5.847-4.023-8.882-11.3-8.454C4.433.468.491,3.421.067,8.493c-.6,7.05,2.722,9.639,11.3,8.449C17.754,16.052,22.453,14.195,22.676,8.493Z" transform="translate(667.877 47.075)" fill="none" stroke="#90949c" stroke-miterlimit="10" stroke-width="1" opacity="0.25"/>
      <path id="Path_25366" data-name="Path 25366" d="M15.4,5.767C15.549,1.8,12.668-.264,7.724.027,3.016.305.332,2.326.046,5.767c-.4,4.79,1.849,6.553,7.679,5.744C12.06,10.908,15.254,9.645,15.4,5.767Z" transform="translate(671.725 49.639)" fill="none" stroke="#90949c" stroke-miterlimit="10" stroke-width="1" opacity="0.25"/>
      <path id="Path_25367" data-name="Path 25367" d="M13.851,112.29c9.995-1.284,23.606-19.416,30.891-48.8s1.567-49.536-4.516-57.566c-14.206-18.765-19.745,9.6-30.891,48.8C.008,87.533-7.658,115.038,13.851,112.29Z" transform="translate(693.249 129.109)" fill="#90949c" opacity="0.25" style="isolation: isolate"/>
      <path id="Path_25368" data-name="Path 25368" d="M11.177,90.572c8.06-1.027,19.039-15.666,24.916-39.353s1.284-39.957-3.642-46.437C20.992-10.354,16.524,12.529,7.535,44.135.01,70.613-6.183,92.781,11.177,90.572Z" transform="translate(698.577 140.824)" fill="none" stroke="#90949c" stroke-miterlimit="10" stroke-width="1" opacity="0.25"/>
      <path id="Path_25369" data-name="Path 25369" d="M9.6,77.753C16.517,76.9,25.946,64.308,31,43.968s1.079-34.3-3.12-39.863c-9.845-12.995-13.7,6.652-21.4,33.789C.007,60.606-5.309,79.653,9.6,77.753Z" transform="translate(701.627 147.407)" fill="none" stroke="#90949c" stroke-miterlimit="10" stroke-width="1" opacity="0.25"/>
      <path id="Path_25370" data-name="Path 25370" d="M7.082,57.376c5.107-.651,12.062-9.922,15.781-24.929s.8-25.314-2.3-29.419C13.284-6.559,10.468,7.938,4.775,27.957.007,44.719-3.918,58.776,7.082,57.376Z" transform="translate(706.657 158.093)" fill="none" stroke="#90949c" stroke-miterlimit="10" stroke-width="1" opacity="0.25"/>
      <path id="Path_25371" data-name="Path 25371" d="M5.217,42.346c3.767-.479,8.9-7.319,11.647-18.405s.591-18.679-1.712-21.706C9.8-4.84,7.708,5.857,3.5,20.641.008,33.011-2.886,43.378,5.217,42.346Z" transform="translate(710.589 165.465)" fill="none" stroke="#90949c" stroke-miterlimit="10" stroke-width="1" opacity="0.25"/>
      <path id="Path_25372" data-name="Path 25372" d="M3.1,25.118c2.234-.287,5.282-4.345,6.909-10.915S10.359,3.121,9,1.328c-3.18-4.2-4.417,2.14-6.913,10.911C0,19.575-1.716,25.717,3.1,25.118Z" transform="translate(714.548 174.955)" fill="none" stroke="#90949c" stroke-miterlimit="10" stroke-width="1" opacity="0.25"/>
      <path id="Path_25373" data-name="Path 25373" d="M1.435,11.661c1.036-.128,2.448-2.012,3.206-5.055S4.8,1.47,4.171.614C2.7-1.33,2.125,1.611.969,5.673,0,9.1-.795,11.965,1.435,11.661Z" transform="translate(717.735 182.35)" fill="none" stroke="#90949c" stroke-miterlimit="10" stroke-width="1" opacity="0.25"/>
    </g>
  </g>
</svg>
