<svg xmlns="http://www.w3.org/2000/svg" xmlns:xlink="http://www.w3.org/1999/xlink" width="375" height="667" viewBox="0 0 375 667">
  <defs>
    <clipPath id="clip-iPhone_6_7_8_4">
      <rect width="375" height="667"/>
    </clipPath>
  </defs>
  <g id="iPhone_6_7_8_4" data-name="iPhone 6/7/8 – 4" clip-path="url(#clip-iPhone_6_7_8_4)">
    <rect width="375" height="667" fill="#fff"/>
    <g id="bg_wallpaper_gray-02" data-name="bg wallpaper gray-02" transform="translate(590.194 -201.425) rotate(90)" opacity="0.821">
      <path id="Path_25497" data-name="Path 25497" d="M595.06,453.37C626.371,690.723,522.3,785.521,349.246,770.233c-114.332-10.11-229.318-32.487-245.814-316.863C93.044,274.326,240.043,97.715,349.246,136.506,485.628,184.983,576.718,314.538,595.06,453.37Z" transform="translate(0 -76.179)" fill="#90949c" opacity="0.25" style="isolation: isolate"/>
      <path id="Path_25498" data-name="Path 25498" d="M546.949,434.336C573.8,637.9,484.54,719.2,336.1,706.087c-98-8.673-196.619-27.864-210.7-271.751C116.423,280.8,242.5,129.3,336.1,162.6,453.164,204.169,531.253,315.332,546.949,434.336Z" transform="translate(13.959 -45.025)" fill="none" stroke="#1a1a1a" stroke-miterlimit="10" stroke-width="3" opacity="0.25"/>
      <path id="Path_25499" data-name="Path 25499" d="M512.915,421.436c23.65,179.42-54.994,251.073-185.806,239.526-86.419-7.595-173.327-24.5-185.806-239.526C133.447,286.1,244.578,152.593,327.109,181.992,430.253,218.579,499.13,316.561,512.915,421.436Z" transform="translate(24.065 0.263)" fill="none" stroke="#1a1a1a" stroke-miterlimit="10" stroke-width="3" opacity="0.25"/>
      <path id="Path_25500" data-name="Path 25500" d="M495.072,415.146c22.017,166.941-51.188,233.564-172.9,222.866-80.457-7.121-161.29-22.866-172.886-222.866-7.317-125.929,96.137-250.159,172.9-222.882C418.143,226.367,482.25,317.539,495.072,415.146Z" transform="translate(29.135 23.304)" fill="none" stroke="#1a1a1a" stroke-miterlimit="10" stroke-width="3" opacity="0.25"/>
      <path id="Path_25501" data-name="Path 25501" d="M473.382,407.506c20.057,152.16-46.648,212.919-157.566,203.119-73.336-6.533-147-20.825-157.566-203.119-6.664-114.757,87.562-227.962,157.566-203.1C403.28,235.452,461.655,318.637,473.382,407.506Z" transform="translate(34.835 50.78)" fill="none" stroke="#1a1a1a" stroke-miterlimit="10" stroke-width="3" opacity="0.25"/>
      <path id="Path_25502" data-name="Path 25502" d="M439.927,395.4c16.986,128.722-39.461,180.2-133.36,171.907C244.5,561.818,182.14,549.682,173.19,395.4c-5.635-97.133,74.12-192.96,133.377-171.923C380.588,249.724,430,320.12,439.927,395.4Z" transform="translate(44.33 94.255)" fill="none" stroke="#1a1a1a" stroke-miterlimit="10" stroke-width="3" opacity="0.25"/>
      <path id="Path_25503" data-name="Path 25503" d="M408.7,383.82c14.112,106.982-32.8,149.693-110.772,142.8-51.547-4.557-103.34-14.7-110.788-142.8-4.671-80.67,61.576-160.277,110.788-142.785C359.423,262.873,400.452,321.3,408.7,383.82Z" transform="translate(53.196 -91.392)" fill="none" stroke="#1a1a1a" stroke-miterlimit="10" stroke-width="3" opacity="0.25"/>
      <path id="Path_25504" data-name="Path 25504" d="M388.622,375.946c12.266,92.952-28.485,130.077-96.251,124.132-44.8-3.953-89.832-12.724-96.251-124.132-4.067-70.1,53.491-139.257,96.251-124.132C345.8,270.891,381.468,321.655,388.622,375.946Z" transform="translate(58.901 -92.137)" fill="none" stroke="#1a1a1a" stroke-miterlimit="10" stroke-width="3" opacity="0.25"/>
      <path id="Path_25505" data-name="Path 25505" d="M361.867,366.5c9.8,74.25-22.768,103.9-76.9,99.126-35.786-3.169-71.735-10.176-76.9-99.126-3.267-56.006,42.744-111.262,76.9-99.126C327.665,282.533,356.134,323.055,361.867,366.5Z" transform="translate(66.497 -93.056)" fill="none" stroke="#1a1a1a" stroke-miterlimit="10" stroke-width="3" opacity="0.25"/>
      <path id="Path_25506" data-name="Path 25506" d="M326.173,352.824c6.533,49.326-15.125,69.024-51.09,65.855-23.765-2.107-47.644-6.827-51.041-65.855-2.156-37.191,28.387-73.891,51.074-65.839C303.437,297.062,322.417,324,326.173,352.824Z" transform="translate(76.646 -92.529)" fill="none" stroke="#1a1a1a" stroke-miterlimit="10" stroke-width="3" opacity="0.25"/>
      <path id="Path_25507" data-name="Path 25507" d="M298.6,343.456c3.985,30.249-9.261,42.319-31.311,40.376-14.569-1.29-29.2-4.149-31.311-40.376-1.323-22.866,17.411-45.292,31.311-40.359C284.665,309.271,296.278,325.784,298.6,343.456Z" transform="translate(84.23 -91.868)" fill="none" stroke="#1a1a1a" stroke-miterlimit="10" stroke-width="3" opacity="0.25"/>
      <path id="Path_25508" data-name="Path 25508" d="M1112.434,428.2c54.912,121.127-162.123,272.584-294.814,263.781-429.562-28.485-443.053-532,0-527.561C961.271,165.859,1089.568,377.716,1112.434,428.2Z" transform="translate(-275.361 -29.93)" fill="#90949c" opacity="0.25" style="isolation: isolate"/>
      <path id="Path_25509" data-name="Path 25509" d="M1063.01,416.048c48.558,107.211-143.5,241.273-260.955,233.45-380.253-25.218-392.192-470.918,0-467C929.208,183.823,1042.773,371.393,1063.01,416.048Z" transform="translate(-273.441 12.594)" fill="none" stroke="#1a1a1a" stroke-miterlimit="10" stroke-width="3" opacity="0.25"/>
      <path id="Path_25510" data-name="Path 25510" d="M1033.533,409.172c44.753,98.767-132.184,222.229-240.359,215.059-350.216-23.226-361.224-433.727,0-430.1C910.282,195.305,1014.88,368.045,1033.533,409.172Z" transform="translate(-272.298 37.89)" fill="none" stroke="#1a1a1a" stroke-miterlimit="10" stroke-width="3" opacity="0.25"/>
      <path id="Path_25511" data-name="Path 25511" d="M991.932,399.879c39.493,87.137-116.6,196.112-212.119,189.775-309.056-20.482-318.758-382.751,0-379.566C883.169,211.133,975.468,363.587,991.932,399.879Z" transform="translate(-269.537 72.5)" fill="none" stroke="#1a1a1a" stroke-miterlimit="10" stroke-width="3" opacity="0.25"/>
      <path id="Path_25512" data-name="Path 25512" d="M925.93,383.986c31.131,68.6-91.89,154.512-167.1,149.53-243.462-16.154-251.024-301.559,0-299.06C840.279,235.224,913.011,355.338,925.93,383.986Z" transform="translate(-264.44 -90.424)" fill="none" stroke="#1a1a1a" stroke-miterlimit="10" stroke-width="3" opacity="0.25"/>
      <path id="Path_25513" data-name="Path 25513" d="M904.681,379.082c28.273,62.376-83.479,140.351-151.8,135.827-221.2-14.7-228.142-273.94,0-271.653C826.837,243.909,892.84,353.031,904.681,379.082Z" transform="translate(-263.102 -91.581)" fill="none" stroke="#1a1a1a" stroke-miterlimit="10" stroke-width="3" opacity="0.25"/>
      <path id="Path_25514" data-name="Path 25514" d="M863.091,368.718c23.013,50.78-67.946,114.25-123.56,110.559-180.024-11.94-185.692-222.964,0-221.1C799.767,258.779,853.487,347.583,863.091,368.718Z" transform="translate(-259.059 -92.245)" fill="none" stroke="#1a1a1a" stroke-miterlimit="10" stroke-width="3" opacity="0.25"/>
      <path id="Path_25515" data-name="Path 25515" d="M820.88,358.579c17.607,38.84-52,87.415-94.553,84.589-137.77-9.13-142.1-170.616,0-169.2C772.386,274.431,813.5,342.393,820.88,358.579Z" transform="translate(-254.798 -92.41)" fill="none" stroke="#1a1a1a" stroke-miterlimit="10" stroke-width="3" opacity="0.25"/>
      <path id="Path_25516" data-name="Path 25516" d="M778.624,348.425c12.217,26.933-36.031,60.6-65.545,58.636-95.5-6.321-98.489-118.268,0-117.288C745.092,290.148,773.609,337.2,778.624,348.425Z" transform="translate(-250.162 -91.842)" fill="none" stroke="#1a1a1a" stroke-miterlimit="10" stroke-width="3" opacity="0.25"/>
      <path id="Path_25517" data-name="Path 25517" d="M746.95,341.876c8.085,17.836-23.863,40.131-43.4,38.84-63.242-4.2-65.235-78.4,0-77.664C724.7,303.248,743.585,334.461,746.95,341.876Z" transform="translate(-246.654 -91.512)" fill="none" stroke="#1a1a1a" stroke-miterlimit="10" stroke-width="3" opacity="0.25"/>
      <path id="Path_25518" data-name="Path 25518" d="M955.378,390.947c34.855,76.9-102.9,173.132-187.178,167.464-272.764-18.081-281.306-337.754,0-334.944C859.306,224.349,940.776,358.853,955.378,390.947Z" transform="translate(-266.834 -88.815)" fill="none" stroke="#1a1a1a" stroke-miterlimit="10" stroke-width="3" opacity="0.25"/>
      <path id="Path_25519" data-name="Path 25519" d="M595.972,908.1c20.433,215.059-73.091,315.377-242.547,291.547-149.448-21-210.355-101.593-242.548-291.547-35.214-207.725,68.8-314.022,242.548-291.547C486.279,633.74,580.75,747.811,595.972,908.1Z" transform="translate(0.721 -533.066)" fill="#90949c" opacity="0.25" style="isolation: isolate"/>
      <path id="Path_25520" data-name="Path 25520" d="M560.069,896.256c18.228,191.931-65.235,281.453-216.463,260.2-133.328-18.75-187.733-90.682-216.463-260.2-31.425-185.381,61.4-280.244,216.463-260.236C462.168,651.389,546.48,753.194,560.069,896.256Z" transform="translate(11.488 -545.252)" fill="none" stroke="#1a1a1a" stroke-miterlimit="10" stroke-width="3" opacity="0.25"/>
      <path id="Path_25521" data-name="Path 25521" d="M538.08,889.292c16.987,178.815-60.841,262.229-201.682,242.417-124.132-17.46-174.9-84.54-201.666-242.417C105.447,716.569,191.9,628.174,336.4,646.876,446.876,661.167,525.422,756.014,538.08,889.292Z" transform="translate(16.556 -556.273)" fill="none" stroke="#1a1a1a" stroke-miterlimit="10" stroke-width="3" opacity="0.25"/>
      <path id="Path_25522" data-name="Path 25522" d="M515.52,880.823c15.6,164.148-55.794,240.718-185.12,222.539-114.038-16.039-160.555-77.583-185.153-222.539C118.4,722.277,197.775,641.151,330.4,658.284,431.8,671.351,503.907,758.488,515.52,880.823Z" transform="translate(23.517 -567.892)" fill="none" stroke="#1a1a1a" stroke-miterlimit="10" stroke-width="3" opacity="0.25"/>
      <path id="Path_25523" data-name="Path 25523" d="M491.358,873.436c14.177,149.236-50.731,218.864-168.232,202.3-103.667-14.569-145.969-70.494-168.232-202.3-24.5-144.156,47.742-217.917,168.313-202.319C415.229,683.04,480.79,762.19,491.358,873.436Z" transform="translate(29.91 -580.924)" fill="none" stroke="#1a1a1a" stroke-miterlimit="10" stroke-width="3" opacity="0.25"/>
      <path id="Path_25524" data-name="Path 25524" d="M451.549,860.108c11.809,124.377-42.287,182.393-140.286,168.624-86.419-12.152-121.666-58.8-140.286-168.624-20.335-120.147,39.788-181.625,140.286-168.624C388.127,701.415,442.761,767.384,451.549,860.108Z" transform="translate(40.613 -585.314)" fill="none" stroke="#1a1a1a" stroke-miterlimit="10" stroke-width="3" opacity="0.25"/>
      <path id="Path_25525" data-name="Path 25525" d="M406.632,844.875C415.746,940.865,373.965,985.65,298.359,975c-66.688-9.375-93.883-45.341-108.256-130.126C174.374,752.151,220.809,704.7,298.359,714.732,357.665,722.409,399.837,773.319,406.632,844.875Z" transform="translate(53.288 -375.724)" fill="none" stroke="#1a1a1a" stroke-miterlimit="10" stroke-width="3" opacity="0.25"/>
      <path id="Path_25526" data-name="Path 25526" d="M376.7,833.944c7.252,76.341-25.937,111.931-86.092,103.487-53.017-7.464-74.659-36.064-86.092-103.487-12.495-73.728,24.5-111.458,86.092-103.487C337.682,736.565,371.214,777.055,376.7,833.944Z" transform="translate(62.818 -353.13)" fill="none" stroke="#1a1a1a" stroke-miterlimit="10" stroke-width="3" opacity="0.25"/>
      <path id="Path_25527" data-name="Path 25527" d="M339.5,823.124c5.047,53.083-18.048,77.86-59.877,71.964-36.9-5.178-51.94-25.072-59.894-71.964-8.689-51.286,16.986-77.534,59.894-71.98C312.424,755.391,335.748,783.549,339.5,823.124Z" transform="translate(72.919 -328.698)" fill="none" stroke="#1a1a1a" stroke-miterlimit="10" stroke-width="3" opacity="0.25"/>
      <path id="Path_25528" data-name="Path 25528" d="M308.118,812.373c3.12,32.83-11.156,48.15-37.027,44.508-22.866-3.267-32.111-15.5-37.027-44.508-5.374-31.719,10.5-47.938,37.027-44.508C291.426,770.479,305.848,787.971,308.118,812.373Z" transform="translate(82.402 -307.588)" fill="none" stroke="#1a1a1a" stroke-miterlimit="10" stroke-width="3" opacity="0.25"/>
      <path id="Path_25529" data-name="Path 25529" d="M989.9,916.536c-23.013,207.186-92.184,338.537-233.564,316.047-156.08-24.826-285.7-112.209-233.564-316.047C550.542,807.921,622.293,605.863,756.34,600.49,921.419,593.956,1009.03,744.368,989.9,916.536Z" transform="translate(-255.165 -542.404)" fill="#90949c" opacity="0.25" style="isolation: isolate"/>
      <path id="Path_25530" data-name="Path 25530" d="M952.343,902.931c-20.351,183.127-81.486,299.224-206.451,279.3-137.95-21.952-252.511-99.175-206.435-279.3,24.5-96.072,87.954-274.61,206.435-279.3C891.731,617.721,969.182,750.787,952.343,902.931Z" transform="translate(-253.967 -535.306)" fill="none" stroke="#1a1a1a" stroke-miterlimit="10" stroke-width="3" opacity="0.25"/>
      <path id="Path_25531" data-name="Path 25531" d="M925.427,892.666c-18.505,166.713-74.169,272.4-187.929,254.307-125.667-19.959-229.955-90.306-188.011-254.307,22.36-87.448,80.032-249.9,187.929-254.291C870.27,633.067,940.731,754.161,925.427,892.666Z" transform="translate(-252.116 -550.069)" fill="none" stroke="#1a1a1a" stroke-miterlimit="10" stroke-width="3" opacity="0.25"/>
      <path id="Path_25532" data-name="Path 25532" d="M897.449,880.867c-16.546,149.007-66.3,243.479-167.987,227.309-112.258-17.852-205.52-80.735-167.954-227.309,19.975-78.17,71.572-223.438,167.97-227.309C848.188,648.806,911.2,757.045,897.449,880.867Z" transform="translate(-250.578 -565.27)" fill="none" stroke="#1a1a1a" stroke-miterlimit="10" stroke-width="3" opacity="0.25"/>
      <path id="Path_25533" data-name="Path 25533" d="M860.24,869.063c-13.867,125.553-55.859,205.243-141.543,191.523-94.585-15.043-173.132-67.995-141.543-191.523,16.839-65.888,60.318-188.272,141.543-191.523C818.738,673.474,871.837,764.727,860.24,869.063Z" transform="translate(-248.101 -589.272)" fill="none" stroke="#1a1a1a" stroke-miterlimit="10" stroke-width="3" opacity="0.25"/>
      <path id="Path_25534" data-name="Path 25534" d="M807.8,849.463c-10.274,92.985-41.307,151.784-104.728,141.723-70-11.172-128.117-50.371-104.81-141.723C610.72,800.741,642.9,710.158,703,707.757,777.073,704.784,816.371,772.273,807.8,849.463Z" transform="translate(-243.743 -385.438)" fill="none" stroke="#1a1a1a" stroke-miterlimit="10" stroke-width="3" opacity="0.25"/>
      <path id="Path_25535" data-name="Path 25535" d="M777.292,838.341c-8.167,73.222-32.666,119.64-82.548,111.7-55.157-8.8-100.972-39.641-82.548-111.7,9.8-38.416,35.181-109.792,82.548-111.7C753.086,724.319,784.054,777.516,777.292,838.341Z" transform="translate(-241.384 -360.307)" fill="none" stroke="#1a1a1a" stroke-miterlimit="10" stroke-width="3" opacity="0.25"/>
      <path id="Path_25536" data-name="Path 25536" d="M757.67,831.529C750.859,892.811,730.41,931.651,688.6,925c-46.157-7.35-84.491-33.189-69.073-93.475,8.167-32.144,29.4-91.89,69.073-93.475C737.417,736.094,763.338,780.6,757.67,831.529Z" transform="translate(-239.314 -345.581)" fill="none" stroke="#1a1a1a" stroke-miterlimit="10" stroke-width="3" opacity="0.25"/>
      <path id="Path_25537" data-name="Path 25537" d="M726.578,819.455c-4.59,41.339-18.391,67.537-46.6,63.046-31.131-4.9-56.986-22.377-46.582-63.046,5.537-21.674,19.845-61.968,46.582-63.03C712.907,755.151,730.384,785.155,726.578,819.455Z" transform="translate(-236.461 -321.508)" fill="none" stroke="#1a1a1a" stroke-miterlimit="10" stroke-width="3" opacity="0.25"/>
      <path id="Path_25538" data-name="Path 25538" d="M705,811.969c-3.169,28.534-12.691,46.615-32.16,43.528-21.494-3.43-39.347-15.451-32.177-43.528,3.838-14.977,13.7-42.793,32.177-43.528C695.577,767.527,707.647,788.253,705,811.969Z" transform="translate(-233.804 -306.729)" fill="none" stroke="#1a1a1a" stroke-miterlimit="10" stroke-width="3" opacity="0.25"/>
      <path id="Path_25539" data-name="Path 25539" d="M1245.309,277.975C1195.9,423.993,850.047,280.262,878.63,148.943c13.85-63.7,127.2-82.956,228.664-64.108C1212.79,104.419,1269.4,206.632,1245.309,277.975Z" transform="translate(-441.237 10.202)" fill="#90949c" opacity="0.25" style="isolation: isolate"/>
      <path id="Path_25540" data-name="Path 25540" d="M1206.312,259.505c-41.731,123.315-333.752,1.927-309.644-108.975,11.694-53.769,107.423-70.053,193.058-54.144C1178.839,112.85,1226.777,199.171,1206.312,259.505Z" transform="translate(-429.623 18.202)" fill="none" stroke="#1a1a1a" stroke-miterlimit="10" stroke-width="3" opacity="0.25"/>
      <path id="Path_25541" data-name="Path 25541" d="M1189.181,251.113c-38.416,113.516-307.243,1.78-285.047-100.3,10.764-49.489,98.881-64.483,177.721-49.832C1163.9,116.2,1207.948,195.661,1189.181,251.113Z" transform="translate(-424.432 21.401)" fill="none" stroke="#1a1a1a" stroke-miterlimit="10" stroke-width="3" opacity="0.25"/>
      <path id="Path_25542" data-name="Path 25542" d="M1158.714,236.632c-32.438,95.761-259.077,1.5-240.359-84.589,9.065-41.748,83.3-54.389,149.857-42.042C1137.334,122.855,1174.541,189.87,1158.714,236.632Z" transform="translate(-415.372 27.649)" fill="none" stroke="#1a1a1a" stroke-miterlimit="10" stroke-width="3" opacity="0.25"/>
      <path id="Path_25543" data-name="Path 25543" d="M1138.013,226.955c-28.371,83.854-226.949,1.307-210.551-74.1,7.954-36.57,73.042-47.644,131.286-36.815C1119.393,127.323,1151.929,186.008,1138.013,226.955Z" transform="translate(-409.148 31.822)" fill="none" stroke="#1a1a1a" stroke-miterlimit="10" stroke-width="3" opacity="0.25"/>
      <path id="Path_25544" data-name="Path 25544" d="M1111.514,214.388c-23.373,69.024-186.835,1.078-173.327-61,6.533-30.1,60.122-39.2,108.06-30.314C1096.112,132.347,1122.948,180.66,1111.514,214.388Z" transform="translate(-401.06 36.728)" fill="none" stroke="#1a1a1a" stroke-miterlimit="10" stroke-width="3" opacity="0.25"/>
      <path id="Path_25545" data-name="Path 25545" d="M1088.742,203.738c-18.816,55.631-150.543.882-139.665-49.146,5.276-24.255,48.46-31.6,87.072-24.5C1076.362,137.621,1097.987,176.56,1088.742,203.738Z" transform="translate(-394.34 41.597)" fill="none" stroke="#1a1a1a" stroke-miterlimit="10" stroke-width="3" opacity="0.25"/>
      <path id="Path_25546" data-name="Path 25546" d="M1060.193,190.187c-13.295,39.3-106.361.621-98.668-34.724,3.724-17.15,34.3-22.327,61.511-17.264C1051.439,143.474,1066.694,170.979,1060.193,190.187Z" transform="translate(-385.769 47.194)" fill="none" stroke="#1a1a1a" stroke-miterlimit="10" stroke-width="3" opacity="0.25"/>
      <path id="Path_25547" data-name="Path 25547" d="M1031.272,176.332c-7.595,22.458-60.776.343-56.382-19.845,2.123-9.8,19.6-12.773,35.149-9.8C1026.241,149.529,1035,165.307,1031.272,176.332Z" transform="translate(-377.18 53.045)" fill="none" stroke="#1a1a1a" stroke-miterlimit="10" stroke-width="3" opacity="0.25"/>
      <path id="Path_25548" data-name="Path 25548" d="M1456.542,787.338c-80.784,102.736-211.466,142.1-374.569,97.868-199.15-54.063-263.225-191-194.365-334.83,58.8-122.842,183.372-134.569,374.569-97.868C1477.383,493.717,1571.56,641.01,1456.542,787.338Z" transform="translate(-545.356 -289.747)" fill="#90949c" opacity="0.25" style="isolation: isolate"/>
      <path id="Path_25549" data-name="Path 25549" d="M1424.55,771.328c-74.479,94.732-194.953,131.057-345.316,90.241-183.6-49.849-242.678-176.1-179.142-308.7,54.275-113.238,169-124.132,345.4-90.241C1443.774,500.737,1530.6,636.482,1424.55,771.328Z" transform="translate(-532.253 -281.826)" fill="none" stroke="#1a1a1a" stroke-miterlimit="10" stroke-width="3" opacity="0.25"/>
      <path id="Path_25550" data-name="Path 25550" d="M1375.526,745.021c-64.434,81.943-168.673,113.385-298.75,78.056-158.84-43.12-209.946-152.339-154.985-267.063,46.941-98,146.263-107.341,298.75-78.072C1392.154,510.82,1467.27,628.419,1375.526,745.021Z" transform="translate(-512.954 -268.689)" fill="none" stroke="#1a1a1a" stroke-miterlimit="10" stroke-width="3" opacity="0.25"/>
      <path id="Path_25551" data-name="Path 25551" d="M1351,731.62c-59.289,75.394-155.165,104.32-274.871,71.866-146.149-39.69-193.172-140.171-142.6-245.732,43.2-90.159,134.569-98.75,274.871-71.866C1366.293,516.2,1435.464,624.262,1351,731.62Z" transform="translate(-503.54 -262.104)" fill="none" stroke="#1a1a1a" stroke-miterlimit="10" stroke-width="3" opacity="0.25"/>
      <path id="Path_25552" data-name="Path 25552" d="M1297.656,704.549c-48.82,62.066-127.791,85.912-226.345,59.159C950.951,731.041,912.242,648.281,953.875,561.356c35.573-74.251,110.82-81.323,226.361-59.159C1310.249,527.154,1367.17,616.17,1297.656,704.549Z" transform="translate(-482.448 -248.903)" fill="none" stroke="#1a1a1a" stroke-miterlimit="10" stroke-width="3" opacity="0.25"/>
      <path id="Path_25553" data-name="Path 25553" d="M1248.533,679.447c-38.906,49.457-101.8,68.436-180.318,47.121-95.908-26.133-126.713-91.939-93.54-161.192,28.338-59.142,88.2-64.777,180.3-47.121C1258.561,538.116,1303.87,609.018,1248.533,679.447Z" transform="translate(-463.609 -236.835)" fill="none" stroke="#1a1a1a" stroke-miterlimit="10" stroke-width="3" opacity="0.25"/>
      <path id="Path_25554" data-name="Path 25554" d="M1189.593,648.679c-26.966,34.3-70.559,47.366-124.965,32.666-66.443-17.966-87.823-63.7-64.826-111.7,19.6-41,61.184-44.9,124.965-32.666C1196.534,550.761,1227.91,599.891,1189.593,648.679Z" transform="translate(-441.314 -222.071)" fill="none" stroke="#1a1a1a" stroke-miterlimit="10" stroke-width="3" opacity="0.25"/>
      <path id="Path_25555" data-name="Path 25555" d="M1147.161,626.065c-18.391,23.373-48.118,32.356-85.227,22.278-45.325-12.3-59.894-43.463-44.214-76.194,13.393-27.946,41.715-30.625,85.227-22.262C1151.9,559.246,1173.326,592.795,1147.161,626.065Z" transform="translate(-425.434 -211.305)" fill="none" stroke="#1a1a1a" stroke-miterlimit="10" stroke-width="3" opacity="0.25"/>
      <path id="Path_25556" data-name="Path 25556" d="M1108.5,603.868c-10.029,12.756-26.28,17.656-46.533,12.152-24.761-6.713-32.666-23.732-24.157-41.6,7.317-15.271,22.867-16.725,46.549-12.168C1111.1,567.38,1122.807,585.689,1108.5,603.868Z" transform="translate(-411.271 -200.817)" fill="none" stroke="#1a1a1a" stroke-miterlimit="10" stroke-width="3" opacity="0.25"/>
      <path id="Path_25557" data-name="Path 25557" d="M1134.829,930.073c-5.88,67.391-51.645,119.118-115.149,122.5-58.146,3.087-101.968-43.511-115.149-122.5-8.608-51.6,55.712-129.359,115.149-122.5C1083.184,814.892,1138.8,884.618,1134.829,930.073Z" transform="translate(-403.621 -510.976)" fill="#90949c" opacity="0.25" style="isolation: isolate"/>
      <path id="Path_25558" data-name="Path 25558" d="M1118.784,925.81c-5.292,60.678-46.5,107.244-103.666,110.281-52.266,2.777-91.792-39.2-103.667-110.281-7.742-46.452,50.159-116.455,103.667-110.282C1072.3,822.11,1122.361,884.879,1118.784,925.81Z" transform="translate(-399.063 -505.912)" fill="none" stroke="#1a1a1a" stroke-miterlimit="10" stroke-width="3" opacity="0.25"/>
      <path id="Path_25559" data-name="Path 25559" d="M1096.766,919.51c-4.508,51.646-39.576,91.27-88.2,93.85-44.541,2.368-78.122-33.336-88.2-93.85-6.533-39.526,42.679-99.093,88.2-93.834C1057.19,831.311,1099.8,884.639,1096.766,919.51Z" transform="translate(-392.733 -499.449)" fill="none" stroke="#1a1a1a" stroke-miterlimit="10" stroke-width="3" opacity="0.25"/>
      <path id="Path_25560" data-name="Path 25560" d="M1083.154,915.817c-4.018,45.913-35.2,81.16-78.4,83.462-39.608,2.107-69.465-29.645-78.4-83.462-5.864-35.165,37.958-88.2,78.4-83.462C1047.956,837.337,1085.849,884.9,1083.154,915.817Z" transform="translate(-388.888 -495.201)" fill="none" stroke="#1a1a1a" stroke-miterlimit="10" stroke-width="3" opacity="0.25"/>
      <path id="Path_25561" data-name="Path 25561" d="M1060.551,908.678c-3.169,36.406-27.881,64.336-62.18,66.166-31.409,1.633-55.076-23.5-62.2-66.166-4.655-27.865,30.1-69.857,62.2-66.149C1032.67,846.482,1062.706,884.13,1060.551,908.678Z" transform="translate(-382.491 -488.715)" fill="none" stroke="#1a1a1a" stroke-miterlimit="10" stroke-width="3" opacity="0.25"/>
      <path id="Path_25562" data-name="Path 25562" d="M1033.418,900.468c-2.156,24.7-18.914,43.642-42.189,44.884-21.233,1.127-37.37-15.941-42.188-44.884-3.152-18.914,20.416-47.366,42.188-44.9C1014.487,858.247,1034.871,883.792,1033.418,900.468Z" transform="translate(-374.935 -480.407)" fill="none" stroke="#1a1a1a" stroke-miterlimit="10" stroke-width="3" opacity="0.25"/>
      <path id="Path_25563" data-name="Path 25563" d="M1016.836,895.392c-1.535,17.509-13.442,31.033-29.939,31.85-15.043.817-26.476-11.351-29.939-31.85-2.238-13.426,14.487-33.63,29.939-31.85C1003.41,865.4,1017.865,883.534,1016.836,895.392Z" transform="translate(-370.314 -475.331)" fill="none" stroke="#1a1a1a" stroke-miterlimit="10" stroke-width="3" opacity="0.25"/>
      <path id="Path_25564" data-name="Path 25564" d="M997.552,889.728c-.8,9.277-7.1,16.333-15.827,16.856-8,.425-14.03-5.994-15.843-16.856-1.192-7.1,7.66-17.787,15.843-16.856C990.415,873.885,998.075,883.472,997.552,889.728Z" transform="translate(-364.901 -469.389)" fill="none" stroke="#1a1a1a" stroke-miterlimit="10" stroke-width="3" opacity="0.25"/>
      <path id="Path_25565" data-name="Path 25565" d="M1713.667,364.916C1808.236,513.744,1610,556.373,1447.436,582.964c-204.785,33.483-294.536,31.8-266.23-218.048,15.174-133.932,97.1-285.732,266.23-218.048C1573.528,197.321,1664.667,287.824,1713.667,364.916Z" transform="translate(-718.99 43.309)" fill="#90949c" opacity="0.25" style="isolation: isolate"/>
      <path id="Path_25566" data-name="Path 25566" d="M1692.4,359.936c89.065,140.171-97.64,180.318-250.747,205.357-192.878,31.539-277.4,29.955-250.747-205.357,14.292-126.157,91.466-269.122,250.747-205.373C1560.416,202.092,1646.262,287.319,1692.4,359.936Z" transform="translate(-705.622 48.796)" fill="none" stroke="#1a1a1a" stroke-miterlimit="10" stroke-width="3" opacity="0.25"/>
      <path id="Path_25567" data-name="Path 25567" d="M1662.251,352.239c81.307,127.954-89.13,164.606-228.876,187.456-176.072,28.8-253.164,27.342-228.893-187.456,13.067-115.165,83.479-245.651,228.893-187.456C1541.778,208.083,1620.063,285.943,1662.251,352.239Z" transform="translate(-687.003 56.133)" fill="none" stroke="#1a1a1a" stroke-miterlimit="10" stroke-width="3" opacity="0.25"/>
      <path id="Path_25568" data-name="Path 25568" d="M1632.363,344.522c73.5,115.508-80.457,148.632-206.647,169.244-158.954,25.986-228.664,24.7-206.647-169.244,11.776-103.977,75.378-221.788,206.647-169.261C1523.633,214.429,1594.339,284.678,1632.363,344.522Z" transform="translate(-668.937 63.654)" fill="none" stroke="#1a1a1a" stroke-miterlimit="10" stroke-width="3" opacity="0.25"/>
      <path id="Path_25569" data-name="Path 25569" d="M1594.713,335.778c63.8,100.384-69.923,129.146-179.567,147-138.129,22.589-198.66,21.445-179.665-147,10.241-90.339,65.5-192.731,179.665-147C1500.192,222.736,1561.67,283.773,1594.713,335.778Z" transform="translate(-646.623 73.264)" fill="none" stroke="#1a1a1a" stroke-miterlimit="10" stroke-width="3" opacity="0.25"/>
      <path id="Path_25570" data-name="Path 25570" d="M1565.517,328.853c56.366,88.705-61.788,114.12-158.677,129.963-122.074,19.959-175.565,18.963-158.693-129.963,9.049-79.837,57.868-170.306,158.693-129.963C1481.99,228.894,1536.314,282.908,1565.517,328.853Z" transform="translate(-629.699 80.516)" fill="none" stroke="#1a1a1a" stroke-miterlimit="10" stroke-width="3" opacity="0.25"/>
      <path id="Path_25571" data-name="Path 25571" d="M1523.6,318.734c45.733,71.866-50.045,92.413-128.51,105.251-98.865,16.17-142.1,15.353-128.509-105.251,7.317-64.663,46.86-137.934,128.509-105.267C1455.936,237.836,1499.922,281.494,1523.6,318.734Z" transform="translate(-605.936 90.945)" fill="none" stroke="#1a1a1a" stroke-miterlimit="10" stroke-width="3" opacity="0.25"/>
      <path id="Path_25572" data-name="Path 25572" d="M1490.858,310.431c37.076,58.342-40.637,75.133-104.369,85.488-80.294,13.066-115.476,12.462-104.385-85.488,5.962-52.527,38.073-112.029,104.385-85.488C1435.929,244.723,1471.65,280.2,1490.858,310.431Z" transform="translate(-587.702 99.166)" fill="none" stroke="#1a1a1a" stroke-miterlimit="10" stroke-width="3" opacity="0.25"/>
      <path id="Path_25573" data-name="Path 25573" d="M1456.069,300.524c27.767,43.724-30.461,56.251-78.236,64.059-60.171,9.8-86.566,9.359-78.22-64.059,4.459-39.363,28.534-83.969,78.22-64.075C1414.893,251.279,1441.663,277.87,1456.069,300.524Z" transform="translate(-568.637 -66.226)" fill="none" stroke="#1a1a1a" stroke-miterlimit="10" stroke-width="3" opacity="0.25"/>
      <path id="Path_25574" data-name="Path 25574" d="M1416.266,290.084c17.624,27.766-19.306,35.672-49.6,40.637-38.154,6.239-54.88,5.929-49.6-40.637,2.825-24.957,18.1-53.23,49.6-40.621A107.374,107.374,0,0,1,1416.266,290.084Z" transform="translate(-547.355 -67.077)" fill="none" stroke="#1a1a1a" stroke-miterlimit="10" stroke-width="3" opacity="0.25"/>
      <path id="Path_25575" data-name="Path 25575" d="M1968.917,330.712c12.25,188.828-73.156,242.662-166.6,236.014-148.419-10.551-211.368-26.329-166.6-236.014C1663.6,200.145,1694.8,83.526,1802.32,94.7,1893.785,104.2,1960.49,200.635,1968.917,330.712Z" transform="translate(-847.152 20.347)" fill="#90949c" opacity="0.25" style="isolation: isolate"/>
      <path id="Path_25576" data-name="Path 25576" d="M1955.842,325.616c11.58,178.456-69.139,229.334-157.452,223.062-140.269-9.98-199.755-24.892-157.452-223.062,26.345-123.381,55.843-233.564,157.452-223.046C1884.89,111.553,1947.871,202.692,1955.842,325.616Z" transform="translate(-843.353 25.362)" fill="none" stroke="#1a1a1a" stroke-miterlimit="10" stroke-width="3" opacity="0.25"/>
      <path id="Path_25577" data-name="Path 25577" d="M1935.423,318.117c10.551,162.466-62.948,208.852-143.34,203.07-127.693-9.081-181.853-22.654-143.34-203.07,23.977-112.339,50.829-212.674,143.34-203.07C1870.842,123.23,1928.171,206.2,1935.423,318.117Z" transform="translate(-837.651 33.301)" fill="none" stroke="#1a1a1a" stroke-miterlimit="10" stroke-width="3" opacity="0.25"/>
      <path id="Path_25578" data-name="Path 25578" d="M1902.528,305.433c8.836,136.4-52.854,175.288-120.359,170.486-107.211-7.628-152.682-19.012-120.343-170.486,20.138-94.308,42.678-178.554,120.343-170.486C1848.253,141.808,1896.354,211.469,1902.528,305.433Z" transform="translate(-828.129 45.969)" fill="none" stroke="#1a1a1a" stroke-miterlimit="10" stroke-width="3" opacity="0.25"/>
      <path id="Path_25579" data-name="Path 25579" d="M1877.711,295.736c7.627,117.517-45.521,151.016-103.667,146.868-92.364-6.533-131.531-16.333-103.667-146.868,17.346-81.241,36.75-153.809,103.667-146.868C1831,154.781,1872.468,214.806,1877.711,295.736Z" transform="translate(-821.817 54.833)" fill="none" stroke="#1a1a1a" stroke-miterlimit="10" stroke-width="3" opacity="0.25"/>
      <path id="Path_25580" data-name="Path 25580" d="M1845.913,283.73c5.994,92.625-35.933,119.02-81.666,115.769-72.8-5.178-103.667-12.92-81.666-115.769,13.67-64.042,28.991-121.241,81.666-115.769C1809.082,172.616,1841.765,219.917,1845.913,283.73Z" transform="translate(-812.918 66.986)" fill="none" stroke="#1a1a1a" stroke-miterlimit="10" stroke-width="3" opacity="0.25"/>
      <path id="Path_25581" data-name="Path 25581" d="M1814.624,271.638c4.41,67.979-26.345,87.35-59.991,84.932-53.426-3.806-76.1-9.473-59.976-84.932,10.045-47.007,21.233-89,59.976-84.932C1787.593,190.087,1811.521,224.811,1814.624,271.638Z" transform="translate(-804.087 78.915)" fill="none" stroke="#1a1a1a" stroke-miterlimit="10" stroke-width="3" opacity="0.25"/>
      <path id="Path_25582" data-name="Path 25582" d="M1800.24,265.751c3.691,56.9-22.05,73.14-50.208,71.131-44.72-3.267-63.7-7.938-50.208-71.131,8.412-39.347,17.8-74.479,50.208-71.115C1777.619,197.495,1797.692,226.552,1800.24,265.751Z" transform="translate(-800.287 83.969)" fill="none" stroke="#1a1a1a" stroke-miterlimit="10" stroke-width="3" opacity="0.25"/>
      <path id="Path_25583" data-name="Path 25583" d="M1779.078,257.516c2.6,39.951-15.484,51.351-35.263,49.947-31.409-2.238-44.737-5.57-35.263-49.947,5.912-27.636,12.511-52.266,35.263-49.947C1763.186,209.578,1777.3,229.978,1779.078,257.516Z" transform="translate(-793.955 92.204)" fill="none" stroke="#1a1a1a" stroke-miterlimit="10" stroke-width="3" opacity="0.25"/>
      <path id="Path_25584" data-name="Path 25584" d="M1759.5,249.72c1.633,24.973-9.686,32.095-22.033,31.213-19.6-1.388-27.962-3.479-22.033-31.213,3.675-17.264,7.807-32.666,22.033-31.213C1749.573,219.765,1758.376,232.521,1759.5,249.72Z" transform="translate(-788.884 99.167)" fill="none" stroke="#1a1a1a" stroke-miterlimit="10" stroke-width="3" opacity="0.25"/>
      <path id="Path_25585" data-name="Path 25585" d="M1379.287,656.119c-29.22,146.656,64.745,211.22,220.5,202.531,121.584-6.778,220.5-90.682,220.5-202.531s-98.914-195.8-220.5-202.531C1450.435,445.324,1400.52,549.954,1379.287,656.119Z" transform="translate(-1003.947 -275.551)" fill="#90949c" opacity="0.25" style="isolation: isolate"/>
      <path id="Path_25586" data-name="Path 25586" d="M1391.8,649.311c-26.542,133.246,58.8,191.882,200.326,183.993,110.494-6.158,200.326-82.368,200.326-183.993S1702.619,471.426,1592.125,465.3C1456.445,457.8,1411.006,552.912,1391.8,649.311Z" transform="translate(-995.715 -267.617)" fill="none" stroke="#1a1a1a" stroke-miterlimit="10" stroke-width="3" opacity="0.25"/>
      <path id="Path_25587" data-name="Path 25587" d="M1404.293,641.655c-23.765,119.232,52.658,171.792,179.354,164.736,98.9-5.521,179.338-73.76,179.338-164.736s-80.441-159.248-179.338-164.72C1462.161,470.206,1421.492,555.351,1404.293,641.655Z" transform="translate(-987.483 -259.024)" fill="none" stroke="#1a1a1a" stroke-miterlimit="10" stroke-width="3" opacity="0.25"/>
      <path id="Path_25588" data-name="Path 25588" d="M1418.669,632.851C1398.22,735.505,1463.994,780.683,1573,774.607c85.112-4.737,154.332-63.471,154.332-141.755S1658.114,495.816,1573,491.1C1468.5,485.281,1433.516,558.6,1418.669,632.851Z" transform="translate(-977.996 -249.063)" fill="none" stroke="#1a1a1a" stroke-miterlimit="10" stroke-width="3" opacity="0.25"/>
      <path id="Path_25589" data-name="Path 25589" d="M1446.574,616.563c-14.259,71.523,31.556,103.013,107.521,98.767,59.289-3.267,107.521-44.214,107.521-98.767S1613.385,521.079,1554.1,517.8C1481.266,513.778,1456.881,564.819,1446.574,616.563Z" transform="translate(-959.613 -230.709)" fill="none" stroke="#1a1a1a" stroke-miterlimit="10" stroke-width="3" opacity="0.25"/>
      <path id="Path_25590" data-name="Path 25590" d="M1460.007,607.594c-11.041,55.418,24.5,79.8,83.3,76.521,45.945-2.564,83.3-34.3,83.3-76.521s-37.37-73.989-83.3-76.537C1486.859,527.938,1467.961,567.5,1460.007,607.594Z" transform="translate(-646.655 -220.999)" fill="none" stroke="#1a1a1a" stroke-miterlimit="10" stroke-width="3" opacity="0.25"/>
      <path id="Path_25591" data-name="Path 25591" d="M1478.286,597.623c-7.187,36.1,15.941,51.972,54.275,49.849,29.922-1.633,54.259-22.327,54.259-49.849s-24.337-48.2-54.259-49.849C1495.795,545.733,1483.545,571.506,1478.286,597.623Z" transform="translate(-622.736 -209.83)" fill="none" stroke="#1a1a1a" stroke-miterlimit="10" stroke-width="3" opacity="0.25"/>
      <path id="Path_25592" data-name="Path 25592" d="M1488.815,590.64c-4.622,23.21,10.257,33.434,34.9,32.062,19.257-1.078,34.9-14.357,34.9-32.062s-15.647-31.033-34.9-32.062C1500.085,557.271,1492.164,573.85,1488.815,590.64Z" transform="translate(-606.338 -202.256)" fill="none" stroke="#1a1a1a" stroke-miterlimit="10" stroke-width="3" opacity="0.25"/>
      <path id="Path_25593" data-name="Path 25593" d="M1435.016,622.72c-16.709,83.855,37.011,120.767,126.076,115.8,69.53-3.871,126.092-51.841,126.092-115.8S1630.622,510.756,1561.092,506.9C1475.7,502.181,1447.087,562.042,1435.016,622.72Z" transform="translate(-967.214 -237.785)" fill="none" stroke="#1a1a1a" stroke-miterlimit="10" stroke-width="3" opacity="0.25"/>
      <path id="Path_25594" data-name="Path 25594" d="M1591.144,976.156c2.27,161.486-65.169,256.986-197.631,241.731-123.054-14.161-185.969-91.694-197.631-241.731-11.907-153.238,37.991-243.887,197.631-241.731C1521.924,736.156,1589.037,826.756,1591.144,976.156Z" transform="translate(-634.575 -557.058)" fill="#90949c" opacity="0.25" style="isolation: isolate"/>
      <path id="Path_25595" data-name="Path 25595" d="M1567.663,967.872c2.042,147.815-59.665,235.2-180.889,221.3-112.7-12.969-170.306-83.969-180.988-221.363-10.894-140.318,34.79-223.34,180.988-221.363C1504.274,748.044,1565.736,830.984,1567.663,967.872Z" transform="translate(-622.221 -549.445)" fill="none" stroke="#1a1a1a" stroke-miterlimit="10" stroke-width="3" opacity="0.25"/>
      <path id="Path_25596" data-name="Path 25596" d="M1547.424,961.019c1.911,135.565-54.7,215.712-165.9,202.923-103.291-11.891-156.1-76.978-165.9-202.923-9.947-128.624,31.9-204.7,165.9-202.907C1489.262,759.582,1545.611,835.613,1547.424,961.019Z" transform="translate(-611.735 -542.052)" fill="none" stroke="#1a1a1a" stroke-miterlimit="10" stroke-width="3" opacity="0.25"/>
      <path id="Path_25597" data-name="Path 25597" d="M1524.876,952.552c1.731,122.319-49.359,194.659-149.693,183.111-93.213-10.731-140.874-69.465-149.71-183.111-9.016-116.08,28.779-184.744,149.71-183.111C1472.512,770.748,1523.292,839.363,1524.876,952.552Z" transform="translate(-600.15 -534.876)" fill="none" stroke="#1a1a1a" stroke-miterlimit="10" stroke-width="3" opacity="0.25"/>
      <path id="Path_25598" data-name="Path 25598" d="M1496.419,942.322c1.486,105.463-42.564,167.84-129.032,157.876-80.359-9.261-121.47-59.894-129.032-157.876-7.775-100.09,24.81-159.3,129.032-157.893C1451.176,785.573,1495.047,844.732,1496.419,942.322Z" transform="translate(-585.722 -525.381)" fill="none" stroke="#1a1a1a" stroke-miterlimit="10" stroke-width="3" opacity="0.25"/>
      <path id="Path_25599" data-name="Path 25599" d="M1472.7,934.153c1.29,91.335-36.848,145.365-111.768,136.709-69.6-8-105.186-51.858-111.784-136.709-6.729-86.664,21.494-137.934,111.784-136.725C1433.549,798.375,1471.508,849.678,1472.7,934.153Z" transform="translate(-573.848 -517.146)" fill="none" stroke="#1a1a1a" stroke-miterlimit="10" stroke-width="3" opacity="0.25"/>
      <path id="Path_25600" data-name="Path 25600" d="M1449.325,926.8c1.094,77.73-31.376,123.707-95.141,116.358-59.24-6.811-89.538-44.1-95.141-116.358-5.733-73.777,18.277-117.4,95.141-116.374C1415.94,811.26,1448.263,854.869,1449.325,926.8Z" transform="translate(-562.275 -508.912)" fill="none" stroke="#1a1a1a" stroke-miterlimit="10" stroke-width="3" opacity="0.25"/>
      <path id="Path_25601" data-name="Path 25601" d="M1419.223,915.931c.849,59.8-24.124,95.157-73.173,89.506-45.57-5.243-68.861-33.94-73.189-89.506-4.41-56.741,14.063-90.306,73.189-89.506C1393.531,827.062,1418.373,860.611,1419.223,915.931Z" transform="translate(-547.551 -498.778)" fill="none" stroke="#1a1a1a" stroke-miterlimit="10" stroke-width="3" opacity="0.25"/>
      <path id="Path_25602" data-name="Path 25602" d="M1394.263,907.027c.637,45.145-18.212,71.866-55.255,67.587-34.414-3.953-52.021-25.627-55.271-67.587-3.267-42.858,10.617-68.207,55.271-67.6C1374.843,839.9,1393.61,865.23,1394.263,907.027Z" transform="translate(-535.497 -490.543)" fill="none" stroke="#1a1a1a" stroke-miterlimit="10" stroke-width="3" opacity="0.25"/>
      <path id="Path_25603" data-name="Path 25603" d="M1370.406,898.815c.441,31.033-12.495,49.31-37.925,46.386-23.618-2.711-35.688-17.591-37.926-46.386-2.287-29.4,7.285-46.811,37.926-46.4C1357.128,852.756,1370.015,870.134,1370.406,898.815Z" transform="translate(-524.09 -482.315)" fill="none" stroke="#1a1a1a" stroke-miterlimit="10" stroke-width="3" opacity="0.25"/>
      <path id="Path_25604" data-name="Path 25604" d="M1348.962,892.019c.261,18.6-7.513,29.6-22.768,27.766-14.177-1.634-21.429-10.568-22.768-27.766-1.372-17.656,4.378-28.093,22.768-27.766C1340.975,864.367,1348.717,874.8,1348.962,892.019Z" transform="translate(-513.957 -474.817)" fill="none" stroke="#1a1a1a" stroke-miterlimit="10" stroke-width="3" opacity="0.25"/>
      <path id="Path_25605" data-name="Path 25605" d="M1919.536,953.3c3.267,85.292-58.8,129.571-164.965,123.315-101.266-5.962-158.758-49.326-164.965-123.315-8.624-102.9,39.755-140.694,164.965-123.315C1847.833,842.923,1916.416,870,1919.536,953.3Z" transform="translate(-868.003 -499.089)" fill="#90949c" opacity="0.25" style="isolation: isolate"/>
      <path id="Path_25606" data-name="Path 25606" d="M1891.6,946.571c2.793,74.757-51.449,113.548-144.565,108.06-88.706-5.21-139.126-43.217-144.548-108.06-7.562-90.143,34.822-123.283,144.548-108.06C1828.77,849.862,1888.859,873.594,1891.6,946.571Z" transform="translate(-859.768 -493.37)" fill="none" stroke="#1a1a1a" stroke-miterlimit="10" stroke-width="3" opacity="0.25"/>
      <path id="Path_25607" data-name="Path 25607" d="M1860.815,939.745c2.385,63.471-43.675,96.366-122.728,91.743-75.312-4.426-118.121-36.684-122.727-91.743-6.419-76.537,29.563-104.663,122.727-91.743C1807.471,857.589,1858.5,877.679,1860.815,939.745Z" transform="translate(-851.536 -487.018)" fill="none" stroke="#1a1a1a" stroke-miterlimit="10" stroke-width="3" opacity="0.25"/>
      <path id="Path_25608" data-name="Path 25608" d="M1836.156,934.546c2.025,54.357-37.436,82.58-105.153,78.6-64.532-3.789-101.266-31.441-105.153-78.6-5.5-65.578,25.333-89.685,105.153-78.611C1790.456,864.215,1834.163,881.447,1836.156,934.546Z" transform="translate(-844.827 -481.721)" fill="none" stroke="#1a1a1a" stroke-miterlimit="10" stroke-width="3" opacity="0.25"/>
      <path id="Path_25609" data-name="Path 25609" d="M1811.971,928.487c1.634,45.031-31.033,68.4-87.088,65.1-53.442-3.136-83.822-26.035-87.1-65.1-4.541-54.324,20.988-74.283,87.1-65.1C1774.029,870.129,1810.337,884.387,1811.971,928.487Z" transform="translate(-837.203 -476.723)" fill="none" stroke="#1a1a1a" stroke-miterlimit="10" stroke-width="3" opacity="0.25"/>
      <path id="Path_25610" data-name="Path 25610" d="M1781.508,921.829c1.274,34.087-23.471,51.793-65.937,49.293-40.457-2.385-63.438-19.714-65.921-49.293-3.447-41.111,15.876-56.235,65.921-49.277C1752.811,877.713,1780.218,888.542,1781.508,921.829Z" transform="translate(-829.607 -470.588)" fill="none" stroke="#1a1a1a" stroke-miterlimit="10" stroke-width="3" opacity="0.25"/>
      <path id="Path_25611" data-name="Path 25611" d="M1749.781,914.483c.833,22.311-15.353,33.891-43.136,32.258-26.476-1.633-41.519-12.9-43.136-32.258-2.271-26.9,10.388-36.782,43.136-32.242C1731,885.623,1748.932,892.711,1749.781,914.483Z" transform="translate(-820.747 -464.092)" fill="none" stroke="#1a1a1a" stroke-miterlimit="10" stroke-width="3" opacity="0.25"/>
      <path id="Path_25612" data-name="Path 25612" d="M1731.02,910.719c.555,15.141-10.437,23.014-29.3,21.9-17.966-1.062-28.208-8.771-29.3-21.9-1.535-18.277,7.056-25.006,29.3-21.919C1718.264,891.1,1730.449,895.921,1731.02,910.719Z" transform="translate(-815.052 -459.723)" fill="none" stroke="#1a1a1a" stroke-miterlimit="10" stroke-width="3" opacity="0.25"/>
      <path id="Path_25613" data-name="Path 25613" d="M1775.391,467.69c38.138,4.9,90.077,74.087,117.876,186.2s5.978,189.024-17.231,219.665c-54.21,71.6-75.345-36.652-117.876-186.2C1722.57,562.161,1693.268,457.22,1775.391,467.69Z" transform="translate(-783.213 -297.114)" fill="#90949c" opacity="0.25" style="isolation: isolate"/>
      <path id="Path_25614" data-name="Path 25614" d="M1777.628,491c30.755,3.92,72.65,59.779,95.075,150.167s4.9,152.47-13.9,177.2c-43.724,57.754-60.776-29.563-95.075-150.167C1735.015,567.166,1711.381,482.577,1777.628,491Z" transform="translate(-775.323 -275.402)" fill="none" stroke="#1a1a1a" stroke-miterlimit="10" stroke-width="3" opacity="0.25"/>
      <path id="Path_25615" data-name="Path 25615" d="M1778.717,505.544c26.411,3.267,62.393,51.3,81.666,128.918s4.116,130.878-11.907,152.111c-37.566,49.587-52.266-25.382-81.666-128.934C1742.131,570.974,1721.845,498.292,1778.717,505.544Z" transform="translate(-770.81 -263.507)" fill="none" stroke="#1a1a1a" stroke-miterlimit="10" stroke-width="3" opacity="0.25"/>
      <path id="Path_25616" data-name="Path 25616" d="M1780.879,528.143c19.486,2.483,46.027,37.86,60.22,95.124s3.054,96.594-8.787,112.258c-27.766,36.586-38.513-18.734-60.237-95.124C1753.88,576.424,1738.9,522.786,1780.879,528.143Z" transform="translate(-763.368 -244.709)" fill="none" stroke="#1a1a1a" stroke-miterlimit="10" stroke-width="3" opacity="0.25"/>
      <path id="Path_25617" data-name="Path 25617" d="M1782.949,545.985c14.373,1.829,33.957,27.93,44.442,70.233s2.254,71.278-6.533,82.826c-20.433,27-28.4-13.818-44.443-70.233C1763.072,581.608,1752.031,542.049,1782.949,545.985Z" transform="translate(-757.549 -231.765)" fill="none" stroke="#1a1a1a" stroke-miterlimit="10" stroke-width="3" opacity="0.25"/>
      <path id="Path_25618" data-name="Path 25618" d="M1784.116,564.066c8.526,1.094,20.155,16.578,26.362,41.65s1.339,42.287-3.838,49.13c-12.136,16.023-16.856-8.167-26.378-41.633C1772.307,585.152,1765.741,561.665,1784.116,564.066Z" transform="translate(-751.692 -215.975)" fill="none" stroke="#1a1a1a" stroke-miterlimit="10" stroke-width="3" opacity="0.25"/>
      <path id="Path_25619" data-name="Path 25619" d="M1785.213,578.153c3.953.49,9.343,7.677,12.234,19.289s.621,19.6-1.8,22.866c-5.618,7.415-7.807-3.806-12.217-19.306C1779.742,587.936,1776.7,576.993,1785.213,578.153Z" transform="translate(-746.975 -203.887)" fill="none" stroke="#1a1a1a" stroke-miterlimit="10" stroke-width="3" opacity="0.25"/>
    </g>
  </g>
</svg>
