<svg xmlns="http://www.w3.org/2000/svg" xmlns:xlink="http://www.w3.org/1999/xlink" width="1920" height="1079" viewBox="0 0 1920 1079">
  <defs>
    <clipPath id="clip-bg-destop-1">
      <rect width="1920" height="1079"/>
    </clipPath>
  </defs>
  <g id="bg-destop-1" clip-path="url(#clip-bg-destop-1)">
    <g id="bg_wallpaper_gray-01" data-name="bg wallpaper gray-01" transform="translate(-97.271 -51.376)">
      <path id="Path_25251" data-name="Path 25251" d="M421.27,333.25c21.249,161.081-49.382,225.416-166.823,215.041C176.855,541.429,98.82,526.243,87.625,333.25c-7.05-121.509,92.711-241.367,166.823-215.041C347,151.108,408.856,239.031,421.27,333.25Z" transform="translate(0 5.766)" fill="#90949c" opacity="0.25" style="isolation: isolate"/>
      <path id="Path_25252" data-name="Path 25252" d="M395.7,328.961c18.223,138.147-42.354,193.3-143.091,184.436-66.507-5.886-133.436-18.91-142.991-184.425-6.1-104.2,79.465-207.016,142.991-184.414C332.054,172.758,385.05,248.2,395.7,328.961Z" transform="translate(2.391 8.68)" fill="none" stroke="#90949c" stroke-miterlimit="10" stroke-width="3" opacity="0.25"/>
      <path id="Path_25253" data-name="Path 25253" d="M377.7,326.623C393.753,448.376,340.37,497,251.6,489.167c-58.682-5.188-117.63-16.627-126.1-162.544-5.332-91.847,70.088-182.452,126.1-162.5C321.637,188.941,368.38,255.437,377.7,326.623Z" transform="translate(4.118 10.841)" fill="none" stroke="#90949c" stroke-miterlimit="10" stroke-width="3" opacity="0.25"/>
      <path id="Path_25254" data-name="Path 25254" d="M368.2,325.742c14.942,113.3-34.739,158.509-117.341,151.249-54.6-4.833-109.46-15.518-117.33-151.249-4.966-85.462,65.211-169.771,117.33-151.26C315.988,197.627,359.461,259.5,368.2,325.742Z" transform="translate(4.989 11.988)" fill="none" stroke="#90949c" stroke-miterlimit="10" stroke-width="3" opacity="0.25"/>
      <path id="Path_25255" data-name="Path 25255" d="M356.363,324.567c13.612,103.253-31.658,144.5-106.878,137.848-49.77-4.434-99.761-14.133-106.933-137.848-4.578-77.88,59.369-154.707,106.933-137.837C308.788,207.8,348.4,264.2,356.363,324.567Z" transform="translate(5.971 13.341)" fill="none" stroke="#90949c" stroke-miterlimit="10" stroke-width="3" opacity="0.25"/>
      <path id="Path_25256" data-name="Path 25256" d="M338.481,322.607c11.528,87.358-26.78,122.3-90.506,116.665-42.121-3.724-84.442-11.96-90.517-116.665-3.813-65.876,50.3-130.909,90.517-116.632C298.211,223.788,331.742,271.617,338.481,322.607Z" transform="translate(7.592 15.467)" fill="none" stroke="#90949c" stroke-miterlimit="10" stroke-width="3" opacity="0.25"/>
      <path id="Path_25257" data-name="Path 25257" d="M321.788,320.643c9.577,72.6-22.258,101.59-75.176,96.912-34.983-3.093-70.132-9.976-75.187-96.912-3.17-54.747,41.789-108.773,75.187-96.9C288.346,238.507,316.179,278.156,321.788,320.643Z" transform="translate(9.11 17.43)" fill="none" stroke="#90949c" stroke-miterlimit="10" stroke-width="3" opacity="0.25"/>
      <path id="Path_25258" data-name="Path 25258" d="M311.056,318.852c8.325,63.082-19.332,88.278-65.321,84.243-30.405-2.682-60.965-8.635-65.321-84.243-2.76-47.575,36.3-94.507,65.321-84.243C281.948,247.523,306.2,281.974,311.056,318.852Z" transform="translate(10.087 18.634)" fill="none" stroke="#90949c" stroke-miterlimit="10" stroke-width="3" opacity="0.25"/>
      <path id="Path_25259" data-name="Path 25259" d="M296.753,317.545c6.651,50.391-15.452,70.509-52.186,67.272-24.286-2.15-48.683-6.906-52.186-67.272-2.217-38.009,29.008-75.508,52.186-67.272C273.542,260.537,292.84,288.06,296.753,317.545Z" transform="translate(11.388 20.363)" fill="none" stroke="#90949c" stroke-miterlimit="10" stroke-width="3" opacity="0.25"/>
      <path id="Path_25260" data-name="Path 25260" d="M277.681,314.746c4.434,33.475-10.264,46.843-34.673,44.693-16.128-1.43-32.334-4.589-34.661-44.693-1.485-25.24,19.265-50.147,34.661-44.671C262.285,276.9,275.132,295.181,277.681,314.746Z" transform="translate(13.124 22.552)" fill="none" stroke="#90949c" stroke-miterlimit="10" stroke-width="3" opacity="0.25"/>
      <path id="Path_25261" data-name="Path 25261" d="M262.813,313.726c2.7,20.529-6.285,28.72-21.249,27.4-9.887-.876-19.819-2.815-21.249-27.4-.9-15.518,11.816-30.738,21.249-27.39C253.358,290.5,261.239,301.71,262.813,313.726Z" transform="translate(14.425 24.348)" fill="none" stroke="#90949c" stroke-miterlimit="10" stroke-width="3" opacity="0.25"/>
      <path id="Path_25262" data-name="Path 25262" d="M896.9,326.868c37.266,82.2-110.026,184.99-200.077,179.016-291.524-19.332-300.68-361.047,0-358.032C794.265,148.827,881.379,292.628,896.9,326.868Z" transform="translate(42.023 9.377)" fill="#90949c" opacity="0.25" style="isolation: isolate"/>
      <path id="Path_25263" data-name="Path 25263" d="M870.424,324.43c32.955,72.759-97.389,163.741-177.1,158.432-258.06-17.115-266.163-319.591,0-316.93C779.619,166.83,856.69,294.125,870.424,324.43Z" transform="translate(44.409 11.338)" fill="none" stroke="#90949c" stroke-miterlimit="10" stroke-width="3" opacity="0.25"/>
      <path id="Path_25264" data-name="Path 25264" d="M854.918,323.5C885.289,390.53,765.21,474.318,691.8,469.452c-237.675-15.762-245.147-294.351,0-291.89C771.273,178.36,842.259,295.546,854.918,323.5Z" transform="translate(45.927 12.599)" fill="none" stroke="#90949c" stroke-miterlimit="10" stroke-width="3" opacity="0.25"/>
      <path id="Path_25265" data-name="Path 25265" d="M832.47,322.324c26.8,59.136-79.166,133.093-143.955,128.792-209.742-13.9-216.327-259.756,0-257.595C758.657,194.231,821.3,297.694,832.47,322.324Z" transform="translate(47.879 14.331)" fill="none" stroke="#90949c" stroke-miterlimit="10" stroke-width="3" opacity="0.25"/>
      <path id="Path_25266" data-name="Path 25266" d="M797,319.33c21.127,46.555-62.362,104.86-113.406,101.479-165.227-10.963-170.359-204.655,0-202.959C738.873,218.416,788.232,299.932,797,319.33Z" transform="translate(51.026 16.97)" fill="none" stroke="#90949c" stroke-miterlimit="10" stroke-width="3" opacity="0.25"/>
      <path id="Path_25267" data-name="Path 25267" d="M786.11,318.872c19.187,42.288-56.653,95.25-103.02,92.168-150.118-9.976-154.829-185.911,0-184.359C733.281,227.136,778.074,301.192,786.11,318.872Z" transform="translate(52.218 17.928)" fill="none" stroke="#90949c" stroke-miterlimit="10" stroke-width="3" opacity="0.25"/>
      <path id="Path_25268" data-name="Path 25268" d="M763.662,316.631c15.618,34.462-46.112,77.537-83.855,75.032-122.174-8.1-126.021-151.316,0-150.052C720.7,242.043,757.156,302.288,763.662,316.631Z" transform="translate(54.17 19.547)" fill="none" stroke="#90949c" stroke-miterlimit="10" stroke-width="3" opacity="0.25"/>
      <path id="Path_25269" data-name="Path 25269" d="M741.127,314.829c11.949,26.37-35.338,59.325-64.158,57.407-93.5-6.2-96.436-115.789,0-114.825C708.217,257.721,736.15,303.844,741.127,314.829Z" transform="translate(56.232 21.261)" fill="none" stroke="#90949c" stroke-miterlimit="10" stroke-width="3" opacity="0.25"/>
      <path id="Path_25270" data-name="Path 25270" d="M718.583,313.015c8.291,18.278-24.453,41.124-44.482,39.794-64.811-4.29-66.84-80.263,0-79.6C695.782,273.432,715.136,305.4,718.583,313.015Z" transform="translate(58.291 22.975)" fill="none" stroke="#90949c" stroke-miterlimit="10" stroke-width="3" opacity="0.25"/>
      <path id="Path_25271" data-name="Path 25271" d="M701.881,312.838c5.542,12.1-16.195,27.235-29.452,26.359-42.919-2.849-44.272-53.206,0-52.707C686.784,286.623,699.6,307.806,701.881,312.838Z" transform="translate(59.918 24.415)" fill="none" stroke="#90949c" stroke-miterlimit="10" stroke-width="3" opacity="0.25"/>
      <path id="Path_25272" data-name="Path 25272" d="M812.817,320.523c23.654,52.186-69.833,117.5-127.029,113.65-185.112-12.271-190.91-229.218,0-227.311C747.618,207.482,802.908,298.786,812.817,320.523Z" transform="translate(49.619 15.778)" fill="none" stroke="#90949c" stroke-miterlimit="10" stroke-width="3" opacity="0.25"/>
      <path id="Path_25273" data-name="Path 25273" d="M422.256,796.906c13.867,145.928-49.6,214.032-164.606,197.86C156.226,980.511,114.892,925.82,93.044,796.906,69.113,655.933,139.733,583.794,257.65,599.047,347.812,610.708,411.925,688.122,422.256,796.906Z" transform="translate(0.123 58.097)" fill="#90949c" opacity="0.25" style="isolation: isolate"/>
      <path id="Path_25274" data-name="Path 25274" d="M403.352,795.223c12.382,130.255-44.272,191.009-146.9,176.588-90.528-12.725-127.406-61.542-146.9-176.588-21.327-125.81,41.667-190.189,146.9-176.577C336.911,629.043,394.13,698.133,403.352,795.223Z" transform="translate(1.967 60.246)" fill="none" stroke="#90949c" stroke-miterlimit="10" stroke-width="3" opacity="0.25"/>
      <path id="Path_25275" data-name="Path 25275" d="M391,794.041C402.527,915.4,349.71,972,254.127,958.558c-84.3-11.849-118.694-57.329-136.861-164.517-19.83-117.253,38.8-177.209,136.861-164.517C329.1,639.223,382.409,703.591,391,794.041Z" transform="translate(2.837 61.438)" fill="none" stroke="#90949c" stroke-miterlimit="10" stroke-width="3" opacity="0.25"/>
      <path id="Path_25276" data-name="Path 25276" d="M379.219,792.027c10.586,111.4-37.865,163.365-125.577,151.027C176.25,932.169,144.681,890.4,127.987,792.027,109.709,684.4,163.58,629.372,253.642,641,322.367,649.867,371.338,709,379.219,792.027Z" transform="translate(4.031 62.699)" fill="none" stroke="#90949c" stroke-miterlimit="10" stroke-width="3" opacity="0.25"/>
      <path id="Path_25277" data-name="Path 25277" d="M366.068,791.2c9.621,101.28-34.429,148.533-114.171,137.294-70.354-9.887-99.063-47.841-114.171-137.294-16.627-97.833,32.4-147.89,114.227-137.3C314.4,661.988,358.9,715.7,366.068,791.2Z" transform="translate(5.122 64.112)" fill="none" stroke="#90949c" stroke-miterlimit="10" stroke-width="3" opacity="0.25"/>
      <path id="Path_25278" data-name="Path 25278" d="M344.483,788.811c8.014,84.409-28.7,123.781-95.205,114.437-58.648-8.247-82.569-39.9-95.205-114.437-13.822-81.538,27-123.26,95.205-114.437C301.442,681.113,338.52,725.884,344.483,788.811Z" transform="translate(6.954 66.358)" fill="none" stroke="#90949c" stroke-miterlimit="10" stroke-width="3" opacity="0.25"/>
      <path id="Path_25279" data-name="Path 25279" d="M320.431,786.07c6.185,65.144-22.169,95.538-73.48,88.311-45.258-6.363-63.714-30.771-73.469-88.311-10.674-62.927,20.839-95.128,73.469-88.322C287.2,702.957,315.82,737.508,320.431,786.07Z" transform="translate(9.126 68.922)" fill="none" stroke="#90949c" stroke-miterlimit="10" stroke-width="3" opacity="0.25"/>
      <path id="Path_25280" data-name="Path 25280" d="M304.9,783.792c4.922,51.809-17.6,75.963-58.427,70.232-35.981-5.066-50.668-24.475-58.427-70.232-8.48-50.036,16.627-75.641,58.427-70.232C278.479,717.705,301.235,745.162,304.9,783.792Z" transform="translate(10.752 70.657)" fill="none" stroke="#90949c" stroke-miterlimit="10" stroke-width="3" opacity="0.25"/>
      <path id="Path_25281" data-name="Path 25281" d="M284.835,783.2c3.425,36.025-12.193,52.84-40.636,48.839-25.04-3.514-35.249-17.015-40.647-48.839-5.9-34.806,11.528-52.618,40.647-48.85C266.457,737.231,282.286,756.34,284.835,783.2Z" transform="translate(12.488 72.935)" fill="none" stroke="#90949c" stroke-miterlimit="10" stroke-width="3" opacity="0.25"/>
      <path id="Path_25282" data-name="Path 25282" d="M268.377,781.365c2.117,22.28-7.571,32.677-25.129,30.206-15.518-2.217-21.792-10.519-25.129-30.206-3.647-21.526,7.127-32.533,25.129-30.206C257.015,752.933,266.836,764.761,268.377,781.365Z" transform="translate(14.115 74.779)" fill="none" stroke="#90949c" stroke-miterlimit="10" stroke-width="3" opacity="0.25"/>
      <path id="Path_25283" data-name="Path 25283" d="M820.387,798.35c-15.618,140.608-62.561,229.75-158.509,214.487C555.954,995.988,467.986,936.686,503.368,798.35c18.844-73.712,67.538-210.84,158.509-214.487C773.91,579.43,833.367,681.508,820.387,798.35Z" transform="translate(44.266 56.653)" fill="#90949c" opacity="0.25" style="isolation: isolate"/>
      <path id="Path_25284" data-name="Path 25284" d="M800.695,796.559c-13.812,124.28-55.3,203.07-140.109,189.546-93.62-14.9-171.368-67.305-140.1-189.546,16.627-65.2,59.69-186.365,140.1-189.546C759.56,603,812.123,693.306,800.695,796.559Z" transform="translate(46.223 59.164)" fill="none" stroke="#90949c" stroke-miterlimit="10" stroke-width="3" opacity="0.25"/>
      <path id="Path_25285" data-name="Path 25285" d="M785.894,794.347c-12.537,113.14-50.335,184.868-127.539,172.587-85.229-13.556-156-61.3-127.539-172.587C545.991,735,585.131,624.7,658.355,621.771,748.517,618.158,796.336,700.339,785.894,794.347Z" transform="translate(47.412 60.767)" fill="none" stroke="#90949c" stroke-miterlimit="10" stroke-width="3" opacity="0.25"/>
      <path id="Path_25286" data-name="Path 25286" d="M771.139,791.214c-11.229,101.125-44.992,165.238-114,154.264-76.184-12.116-139.477-54.791-113.983-154.264,13.556-53.051,48.573-151.637,113.994-154.264C737.708,633.691,780.472,707.182,771.139,791.214Z" transform="translate(48.821 62.414)" fill="none" stroke="#90949c" stroke-miterlimit="10" stroke-width="3" opacity="0.25"/>
      <path id="Path_25287" data-name="Path 25287" d="M751.35,790.916c-9.411,85.207-37.909,139.289-96.059,129.978-64.191-10.209-117.5-46.145-96.059-129.978,11.428-44.715,40.935-127.772,96.059-129.978C723.184,658.212,759.22,720.108,751.35,790.916Z" transform="translate(50.665 65.018)" fill="none" stroke="#90949c" stroke-miterlimit="10" stroke-width="3" opacity="0.25"/>
      <path id="Path_25288" data-name="Path 25288" d="M723.141,787.336c-6.972,63.1-28.033,103.009-71.074,96.181-47.508-7.582-86.947-34.185-71.13-96.181,8.458-33.065,30.294-94.54,71.085-96.17C702.291,689.149,728.961,734.95,723.141,787.336Z" transform="translate(53.157 68.299)" fill="none" stroke="#90949c" stroke-miterlimit="10" stroke-width="3" opacity="0.25"/>
      <path id="Path_25289" data-name="Path 25289" d="M707.238,785.872c-5.542,49.692-22.169,81.194-56.021,75.807-37.433-5.952-68.525-26.913-56.021-75.807,6.651-26.071,23.876-74.511,56.021-75.807C690.844,708.48,711.86,744.582,707.238,785.872Z" transform="translate(54.783 70.35)" fill="none" stroke="#90949c" stroke-miterlimit="10" stroke-width="3" opacity="0.25"/>
      <path id="Path_25290" data-name="Path 25290" d="M696.524,784.911c-4.622,41.589-18.5,67.949-46.877,63.437-31.325-4.988-57.34-22.524-46.877-63.437,5.542-21.814,19.952-62.362,46.877-63.437C682.779,720.144,700.37,750.349,696.524,784.911Z" transform="translate(55.655 71.588)" fill="none" stroke="#90949c" stroke-miterlimit="10" stroke-width="3" opacity="0.25"/>
      <path id="Path_25291" data-name="Path 25291" d="M680.243,782.658c-3.115,28.055-12.481,45.835-31.624,42.786-21.127-3.325-38.674-15.186-31.613-42.786,3.758-14.709,13.468-42.055,31.613-42.775C670.965,738.985,682.826,759.358,680.243,782.658Z" transform="translate(57.281 73.586)" fill="none" stroke="#90949c" stroke-miterlimit="10" stroke-width="3" opacity="0.25"/>
      <path id="Path_25292" data-name="Path 25292" d="M668.169,781.412c-2.151,19.376-8.635,31.635-21.826,29.54-14.587-2.328-26.7-10.486-21.837-29.54,2.6-10.164,9.3-29.042,21.837-29.54C661.751,751.251,669.965,765.318,668.169,781.412Z" transform="translate(58.149 74.887)" fill="none" stroke="#90949c" stroke-miterlimit="10" stroke-width="3" opacity="0.25"/>
      <path id="Path_25293" data-name="Path 25293" d="M1111.3,197.133c-33.531,99.1-268.247,1.552-248.849-87.568,9.4-43.23,86.327-56.3,155.184-43.507C1089.231,79.349,1127.65,148.716,1111.3,197.133Z" transform="translate(83.951 0)" fill="#90949c" opacity="0.25" style="isolation: isolate"/>
      <path id="Path_25294" data-name="Path 25294" d="M1090.715,188.608c-28.321,83.689-226.5,1.308-210.141-73.956,7.937-36.49,72.9-47.542,131.02-36.745C1072.071,89.135,1104.6,147.717,1090.715,188.608Z" transform="translate(85.936 1.365)" fill="none" stroke="#90949c" stroke-miterlimit="10" stroke-width="3" opacity="0.25"/>
      <path id="Path_25295" data-name="Path 25295" d="M1081.524,184.585c-26.06,77.038-208.512,1.208-193.437-68.07,7.3-33.586,67.106-43.762,120.611-33.819C1064.331,93.027,1094.26,146.953,1081.524,184.585Z" transform="translate(86.759 1.918)" fill="none" stroke="#90949c" stroke-miterlimit="10" stroke-width="3" opacity="0.25"/>
      <path id="Path_25296" data-name="Path 25296" d="M1065.484,177.929c-22.014,64.989-175.824,1.02-163.121-57.407,6.152-28.332,56.531-36.912,101.7-28.532C1051.018,100.713,1076.225,146.193,1065.484,177.929Z" transform="translate(88.322 2.988)" fill="none" stroke="#90949c" stroke-miterlimit="10" stroke-width="3" opacity="0.25"/>
      <path id="Path_25297" data-name="Path 25297" d="M1054.436,173.479c-19.254,56.908-154.076.887-142.891-50.291,5.4-24.818,49.57-32.334,89.1-24.985C1041.81,105.863,1063.846,145.689,1054.436,173.479Z" transform="translate(89.327 3.703)" fill="none" stroke="#90949c" stroke-miterlimit="10" stroke-width="3" opacity="0.25"/>
      <path id="Path_25298" data-name="Path 25298" d="M1039.912,167.44c-15.862,46.843-126.8.732-117.629-41.4,4.434-20.429,40.8-26.6,73.336-20.573C1029.47,111.762,1047.649,144.55,1039.912,167.44Z" transform="translate(90.505 4.543)" fill="none" stroke="#90949c" stroke-miterlimit="10" stroke-width="3" opacity="0.25"/>
      <path id="Path_25299" data-name="Path 25299" d="M1028.016,162.682c-12.769,37.754-102.167.6-94.784-33.353,3.58-16.461,32.888-21.449,59.092-16.627C1019.614,117.812,1034.257,144.259,1028.016,162.682Z" transform="translate(91.704 5.376)" fill="none" stroke="#90949c" stroke-miterlimit="10" stroke-width="3" opacity="0.25"/>
      <path id="Path_25300" data-name="Path 25300" d="M1012.7,156.325c-9.023,26.669-72.183.421-66.962-23.566,2.527-11.639,23.278-15.153,41.744-11.716C1006.761,124.623,1017.113,143.3,1012.7,156.325Z" transform="translate(93.075 6.335)" fill="none" stroke="#90949c" stroke-miterlimit="10" stroke-width="3" opacity="0.25"/>
      <path id="Path_25301" data-name="Path 25301" d="M997.431,149.892c-5.154,15.241-41.246.233-38.264-13.468,1.441-6.651,13.3-8.668,23.854-6.651C994.017,131.735,1000.014,142.41,997.431,149.892Z" transform="translate(94.545 7.337)" fill="none" stroke="#90949c" stroke-miterlimit="10" stroke-width="3" opacity="0.25"/>
      <path id="Path_25302" data-name="Path 25302" d="M1249.493,657.3c-54.824,69.722-143.512,96.436-254.2,66.419C860.136,687.028,816.651,594.1,863.384,496.484c39.9-83.367,124.447-91.326,254.2-66.419C1263.637,458.032,1327.551,557.993,1249.493,657.3Z" transform="translate(82.209 38.64)" fill="#90949c" opacity="0.25" style="isolation: isolate"/>
      <path id="Path_25303" data-name="Path 25303" d="M1232.464,650.141c-50.546,64.291-132.305,88.943-234.35,61.242-124.613-33.83-164.695-119.458-121.587-209.5,36.834-76.872,114.736-84.243,234.35-61.242C1245.5,466.5,1304.425,558.671,1232.464,650.141Z" transform="translate(83.786 39.89)" fill="none" stroke="#90949c" stroke-miterlimit="10" stroke-width="3" opacity="0.25"/>
      <path id="Path_25304" data-name="Path 25304" d="M1207.226,637.945c-43.729,55.611-114.47,76.949-202.748,52.973C896.68,661.654,862,587.532,899.3,509.674c31.857-66.507,99.262-72.848,202.748-52.984C1218.51,479,1269.488,558.812,1207.226,637.945Z" transform="translate(86.5 41.8)" fill="none" stroke="#90949c" stroke-miterlimit="10" stroke-width="3" opacity="0.25"/>
      <path id="Path_25305" data-name="Path 25305" d="M1194.905,631.788c-40.237,51.166-105.3,70.8-186.542,48.772-99.185-26.936-131.1-95.128-96.779-166.768,29.319-61.187,91.326-67.017,186.543-48.772C1205.28,485.593,1252.223,558.929,1194.905,631.788Z" transform="translate(87.958 42.792)" fill="none" stroke="#90949c" stroke-miterlimit="10" stroke-width="3" opacity="0.25"/>
      <path id="Path_25306" data-name="Path 25306" d="M1166.351,619.411c-33.132,42.121-86.726,58.3-153.61,40.148-81.682-22.169-107.953-78.335-79.7-137.327,24.142-50.391,75.209-55.19,153.621-40.148C1174.9,499.021,1213.516,559.432,1166.351,619.411Z" transform="translate(90.541 44.815)" fill="none" stroke="#90949c" stroke-miterlimit="10" stroke-width="3" opacity="0.25"/>
      <path id="Path_25307" data-name="Path 25307" d="M1140.751,608.289c-26.4,33.564-69.09,46.444-122.374,31.979-65.088-17.735-85.994-62.4-63.481-109.394,19.232-40.137,59.857-43.961,122.363-31.979C1147.556,512.363,1178.305,560.459,1140.751,608.289Z" transform="translate(93.152 46.804)" fill="none" stroke="#90949c" stroke-miterlimit="10" stroke-width="3" opacity="0.25"/>
      <path id="Path_25308" data-name="Path 25308" d="M1110.1,594.273c-18.3,23.278-47.886,32.145-84.808,22.169-45.092-12.193-59.6-43.23-43.995-75.807,13.3-27.822,41.523-30.471,84.808-22.169C1114.807,527.81,1136.133,561.152,1110.1,594.273Z" transform="translate(96.307 49.126)" fill="none" stroke="#90949c" stroke-miterlimit="10" stroke-width="3" opacity="0.25"/>
      <path id="Path_25309" data-name="Path 25309" d="M1088,583.685c-12.481,15.862-32.655,21.959-57.839,15.119-30.76-8.347-40.647-29.5-30.006-51.71,9.09-18.966,28.31-20.784,57.839-15.108C1091.181,538.361,1105.735,561.128,1088,583.685Z" transform="translate(98.561 50.734)" fill="none" stroke="#90949c" stroke-miterlimit="10" stroke-width="3" opacity="0.25"/>
      <path id="Path_25310" data-name="Path 25310" d="M1069.083,573.2c-6.806,8.657-17.835,11.982-31.58,8.247-16.8-4.556-22.169-16.106-16.394-28.232,4.966-10.364,15.518-11.351,31.591-8.258C1070.846,548.5,1078.793,560.867,1069.083,573.2Z" transform="translate(101.039 52.281)" fill="none" stroke="#90949c" stroke-miterlimit="10" stroke-width="3" opacity="0.25"/>
      <path id="Path_25311" data-name="Path 25311" d="M1044.934,874.012c-3.99,45.735-35.049,80.84-78.146,83.134-39.461,2.1-69.2-29.529-78.146-83.134-5.842-35.016,37.809-87.79,78.146-83.134C1009.918,795.844,1047.606,843.142,1044.934,874.012Z" transform="translate(86.857 79.089)" fill="#90949c" opacity="0.25" style="isolation: isolate"/>
      <path id="Path_25312" data-name="Path 25312" d="M1036.295,873.689c-3.591,41.179-31.569,72.781-70.365,74.843-35.471,1.884-62.3-26.6-70.354-74.843-5.243-31.524,34.052-79.077,70.354-74.843C1004.726,803.313,1038.723,845.911,1036.295,873.689Z" transform="translate(87.616 79.956)" fill="none" stroke="#90949c" stroke-miterlimit="10" stroke-width="3" opacity="0.25"/>
      <path id="Path_25313" data-name="Path 25313" d="M1024.252,872.663c-3.059,35.049-26.858,61.941-59.857,63.692-30.228,1.607-53.017-22.624-59.857-63.692-4.434-26.825,28.964-67.25,59.857-63.681C997.394,812.784,1026.314,849.03,1024.252,872.663Z" transform="translate(88.596 81.06)" fill="none" stroke="#90949c" stroke-miterlimit="10" stroke-width="3" opacity="0.25"/>
      <path id="Path_25314" data-name="Path 25314" d="M1016.957,872.342c-2.727,31.159-23.887,55.079-53.206,56.642-26.88,1.43-47.143-20.118-53.206-56.642-3.979-23.865,25.76-59.857,53.206-56.642C993.114,819.081,1018.786,851.359,1016.957,872.342Z" transform="translate(89.251 81.79)" fill="none" stroke="#90949c" stroke-miterlimit="10" stroke-width="3" opacity="0.25"/>
      <path id="Path_25315" data-name="Path 25315" d="M1004.807,870.788c-2.15,24.708-18.921,43.662-42.2,44.9-21.316,1.108-37.377-15.951-42.21-44.9-3.159-18.91,20.429-47.409,42.21-44.892C985.886,828.578,1006.27,854.128,1004.807,870.788Z" transform="translate(90.328 82.901)" fill="none" stroke="#90949c" stroke-miterlimit="10" stroke-width="3" opacity="0.25"/>
      <path id="Path_25316" data-name="Path 25316" d="M990.622,869.422c-1.463,16.76-12.836,29.618-28.632,30.46-14.41.765-25.361-10.819-28.631-30.46-2.139-12.836,13.856-32.145,28.631-30.472C977.731,840.779,991.553,858.115,990.622,869.422Z" transform="translate(91.744 84.323)" fill="none" stroke="#90949c" stroke-miterlimit="10" stroke-width="3" opacity="0.25"/>
      <path id="Path_25317" data-name="Path 25317" d="M981.89,868.542c-1.042,11.883-9.122,21.061-20.318,21.615-10.264.543-18-7.682-20.318-21.615-1.519-9.112,9.832-22.823,20.318-21.615C972.778,848.213,982.588,860.517,981.89,868.542Z" transform="translate(92.606 85.191)" fill="none" stroke="#90949c" stroke-miterlimit="10" stroke-width="3" opacity="0.25"/>
      <path id="Path_25318" data-name="Path 25318" d="M971.7,867.733c-.543,6.3-4.822,11.085-10.741,11.439-5.431.288-9.522-4.068-10.752-11.439-.809-4.822,5.2-12.071,10.752-11.439C966.856,856.981,972.055,863.488,971.7,867.733Z" transform="translate(93.584 86.211)" fill="none" stroke="#90949c" stroke-miterlimit="10" stroke-width="3" opacity="0.25"/>
      <path id="Path_25319" data-name="Path 25319" d="M1525.286,272.935c64.18,101-70.354,129.933-180.678,147.979-138.979,22.723-199.888,21.582-180.679-147.979,10.3-90.894,65.9-193.914,180.679-147.979C1430.18,159.2,1492.032,220.616,1525.286,272.935Z" transform="translate(116.397 5.67)" fill="#90949c" opacity="0.25" style="isolation: isolate"/>
      <path id="Path_25320" data-name="Path 25320" d="M1514.07,272.339c60.444,95.128-66.264,122.374-170.171,139.366-130.9,21.4-188.26,20.329-170.171-139.366,9.7-85.617,62.074-182.641,170.171-139.377C1424.5,165.2,1482.756,223.057,1514.07,272.339Z" transform="translate(117.482 6.609)" fill="none" stroke="#90949c" stroke-miterlimit="10" stroke-width="3" opacity="0.25"/>
      <path id="Path_25321" data-name="Path 25321" d="M1498.107,270.789c55.179,86.837-60.488,111.71-155.328,127.218-119.492,19.542-171.811,18.556-155.339-127.218,8.868-78.157,56.653-166.712,155.339-127.218C1416.347,173.012,1469.476,225.852,1498.107,270.789Z" transform="translate(119.001 7.86)" fill="none" stroke="#90949c" stroke-miterlimit="10" stroke-width="3" opacity="0.25"/>
      <path id="Path_25322" data-name="Path 25322" d="M1482.638,269.418c49.881,78.39-54.6,100.87-140.242,114.858-107.875,17.636-155.184,16.76-140.242-114.858,7.992-70.564,51.155-150.517,140.242-114.87C1408.825,181.129,1456.833,228.8,1482.638,269.418Z" transform="translate(120.625 9.154)" fill="none" stroke="#90949c" stroke-miterlimit="10" stroke-width="3" opacity="0.25"/>
      <path id="Path_25323" data-name="Path 25323" d="M1462.54,268.359c43.3,68.126-47.453,87.646-121.864,99.761-93.742,15.33-134.822,14.554-121.931-99.761,6.95-61.309,44.449-130.8,121.931-99.761C1398.394,191.643,1440.116,233.055,1462.54,268.359Z" transform="translate(122.467 10.8)" fill="none" stroke="#90949c" stroke-miterlimit="10" stroke-width="3" opacity="0.25"/>
      <path id="Path_25324" data-name="Path 25324" d="M1446.916,267.339c38.253,60.2-41.933,77.448-107.687,88.2-82.846,13.545-119.148,12.869-107.7-88.2,6.141-54.181,39.273-115.579,107.7-88.2C1390.23,199.5,1427.1,236.158,1446.916,267.339Z" transform="translate(123.88 12.042)" fill="none" stroke="#90949c" stroke-miterlimit="10" stroke-width="3" opacity="0.25"/>
      <path id="Path_25325" data-name="Path 25325" d="M1424.569,265.764c31.037,48.772-33.963,62.717-87.213,71.429-67.095,10.974-96.436,10.419-87.214-71.429,4.966-43.884,31.8-93.609,87.214-71.44C1378.668,210.862,1408.518,240.5,1424.569,265.764Z" transform="translate(125.943 13.828)" fill="none" stroke="#90949c" stroke-miterlimit="10" stroke-width="3" opacity="0.25"/>
      <path id="Path_25326" data-name="Path 25326" d="M1407.495,264.3c25.162,39.594-27.578,50.989-70.83,58.017-54.492,8.868-78.368,8.458-70.842-58.017,4.046-35.648,25.838-76.029,70.842-58.017C1370.217,219.752,1394.459,243.783,1407.495,264.3Z" transform="translate(127.676 15.236)" fill="none" stroke="#90949c" stroke-miterlimit="10" stroke-width="3" opacity="0.25"/>
      <path id="Path_25327" data-name="Path 25327" d="M1389.67,261.8c18.844,29.673-20.673,38.175-53.1,43.474-40.836,6.651-58.748,6.351-53.084-43.474,3.026-26.714,19.365-56.986,53.084-43.485C1361.758,228.38,1379.893,246.426,1389.67,261.8Z" transform="translate(129.628 16.661)" fill="none" stroke="#90949c" stroke-miterlimit="10" stroke-width="3" opacity="0.25"/>
      <path id="Path_25328" data-name="Path 25328" d="M1368.441,259.473c11.961,18.844-13.1,24.209-33.664,27.578-25.894,4.234-37.244,4.024-33.664-27.578,1.918-16.937,12.282-36.125,33.664-27.567A72.868,72.868,0,0,1,1368.441,259.473Z" transform="translate(131.581 18.267)" fill="none" stroke="#90949c" stroke-miterlimit="10" stroke-width="3" opacity="0.25"/>
      <path id="Path_25329" data-name="Path 25329" d="M1841.656,238.071c8.314,128.149-49.648,164.684-113.063,160.172-100.725-7.161-143.446-17.868-113.062-160.172,18.921-88.61,40.093-167.754,113.063-160.172C1790.667,84.351,1835.936,149.794,1841.656,238.071Z" transform="translate(164.709 1.737)" fill="#90949c" opacity="0.25" style="isolation: isolate"/>
      <path id="Path_25330" data-name="Path 25330" d="M1834.709,237.157c7.859,121.11-46.921,155.639-106.855,151.382-95.194-6.773-135.564-16.893-106.855-151.382,17.88-83.733,37.9-158.509,106.855-151.371C1786.558,91.883,1829.267,153.69,1834.709,237.157Z" transform="translate(165.36 2.596)" fill="none" stroke="#90949c" stroke-miterlimit="10" stroke-width="3" opacity="0.25"/>
      <path id="Path_25331" data-name="Path 25331" d="M1823.745,236.1c7.149,110.258-42.709,141.694-97.279,137.815-86.615-6.163-123.415-15.408-97.278-137.815,16.272-76.24,34.5-144.332,97.278-137.815C1779.905,103.836,1818.823,160.145,1823.745,236.1Z" transform="translate(166.337 3.956)" fill="none" stroke="#90949c" stroke-miterlimit="10" stroke-width="3" opacity="0.25"/>
      <path id="Path_25332" data-name="Path 25332" d="M1806.253,233.916c6,92.567-35.87,118.96-81.682,115.7-72.759-5.177-103.619-12.9-81.672-115.7,13.667-64,28.964-121.177,81.672-115.7C1769.4,122.871,1802.063,170.114,1806.253,233.916Z" transform="translate(167.967 6.125)" fill="none" stroke="#90949c" stroke-miterlimit="10" stroke-width="3" opacity="0.25"/>
      <path id="Path_25333" data-name="Path 25333" d="M1792.613,231.833c5.177,79.754-30.893,102.488-70.354,99.673-62.683-4.434-89.264-11.085-70.354-99.673,11.772-55.135,24.94-104.383,70.354-99.673C1760.911,136.173,1789.055,176.909,1792.613,231.833Z" transform="translate(169.048 7.643)" fill="none" stroke="#90949c" stroke-miterlimit="10" stroke-width="3" opacity="0.25"/>
      <path id="Path_25334" data-name="Path 25334" d="M1775.549,229.852c4.068,62.861-24.386,80.773-55.423,78.567-49.4-3.514-70.354-8.768-55.423-78.567,9.278-43.463,19.675-82.281,55.423-78.568C1750.553,154.443,1772.733,186.544,1775.549,229.852Z" transform="translate(170.572 9.725)" fill="none" stroke="#90949c" stroke-miterlimit="10" stroke-width="3" opacity="0.25"/>
      <path id="Path_25335" data-name="Path 25335" d="M1758.795,227.658c2.993,46.134-17.879,59.28-40.714,57.64-36.258-2.583-51.643-6.429-40.7-57.64,6.817-31.9,14.41-60.4,40.7-57.64C1740.45,172.357,1756.689,195.923,1758.795,227.658Z" transform="translate(172.084 11.763)" fill="none" stroke="#90949c" stroke-miterlimit="10" stroke-width="3" opacity="0.25"/>
      <path id="Path_25336" data-name="Path 25336" d="M1750.951,226.267c2.505,38.619-14.964,49.637-34.074,48.273-30.349-2.217-43.23-5.387-34.074-48.273,5.709-26.7,12.082-50.546,34.074-48.262C1735.61,179.945,1749.233,199.664,1750.951,226.267Z" transform="translate(172.734 12.633)" fill="none" stroke="#90949c" stroke-miterlimit="10" stroke-width="3" opacity="0.25"/>
      <path id="Path_25337" data-name="Path 25337" d="M1739.812,224.857c1.762,27.113-10.508,34.85-23.932,33.9-21.316-1.519-30.36-3.78-23.931-33.9,4.013-18.755,8.491-35.471,23.931-33.9C1729.027,192.323,1738.6,206.168,1739.812,224.857Z" transform="translate(173.819 14.043)" fill="none" stroke="#90949c" stroke-miterlimit="10" stroke-width="3" opacity="0.25"/>
      <path id="Path_25338" data-name="Path 25338" d="M1729.1,223.079c1.108,16.948-6.573,21.781-14.953,21.183-13.3-.942-18.977-2.361-14.953-21.183,2.494-11.716,5.3-22.169,14.953-21.183C1722.394,202.772,1728.347,211.429,1729.1,223.079Z" transform="translate(174.688 15.234)" fill="none" stroke="#90949c" stroke-miterlimit="10" stroke-width="3" opacity="0.25"/>
      <path id="Path_25339" data-name="Path 25339" d="M1361.942,574.329c-19.83,99.528,43.939,143.346,149.642,137.449,82.514-4.6,149.642-61.542,149.642-137.449S1594.1,441.447,1511.584,436.88C1410.227,431.272,1376.352,502.279,1361.942,574.329Z" transform="translate(137.857 40.693)" fill="#90949c" opacity="0.25" style="isolation: isolate"/>
      <path id="Path_25340" data-name="Path 25340" d="M1374.61,573.486c-18.013,90.428,39.9,130.222,135.952,124.868,74.987-4.179,135.952-55.9,135.952-124.868s-60.965-120.722-135.952-124.879C1418.483,443.531,1387.646,508.065,1374.61,573.486Z" transform="translate(139.267 41.968)" fill="none" stroke="#90949c" stroke-miterlimit="10" stroke-width="3" opacity="0.25"/>
      <path id="Path_25341" data-name="Path 25341" d="M1387.287,572.043c-16.128,80.917,35.736,116.588,121.72,111.8,67.117-3.747,121.709-50.058,121.709-111.8s-54.592-108.075-121.709-111.788C1426.537,455.688,1398.936,513.472,1387.287,572.043Z" transform="translate(140.679 43.234)" fill="none" stroke="#90949c" stroke-miterlimit="10" stroke-width="3" opacity="0.25"/>
      <path id="Path_25342" data-name="Path 25342" d="M1401.837,570.635c-13.878,69.667,30.76,100.327,104.738,96.2,57.761-3.215,104.738-43.075,104.738-96.2s-46.977-93-104.738-96.2C1435.656,470.485,1411.913,520.244,1401.837,570.635Z" transform="translate(142.301 44.775)" fill="none" stroke="#90949c" stroke-miterlimit="10" stroke-width="3" opacity="0.25"/>
      <path id="Path_25343" data-name="Path 25343" d="M1430.1,568.193c-9.677,48.539,21.415,69.91,72.97,67.028,40.237-2.217,72.969-30.006,72.969-67.028s-32.733-64.8-72.969-67.028C1453.646,498.438,1437.1,533.077,1430.1,568.193Z" transform="translate(145.45 47.682)" fill="none" stroke="#90949c" stroke-miterlimit="10" stroke-width="3" opacity="0.25"/>
      <path id="Path_25344" data-name="Path 25344" d="M1443.723,566.384c-7.493,37.61,16.627,54.159,56.531,51.931,31.181-1.74,56.531-23.278,56.531-51.931s-25.362-50.213-56.531-51.942C1461.913,512.324,1449.121,539.171,1443.723,566.384Z" transform="translate(146.97 49.126)" fill="none" stroke="#90949c" stroke-miterlimit="10" stroke-width="3" opacity="0.25"/>
      <path id="Path_25345" data-name="Path 25345" d="M1462.227,565.008c-4.878,24.5,10.819,35.271,36.834,33.83,20.307-1.108,36.823-15.153,36.823-33.83s-16.516-32.711-36.823-33.83C1474.109,529.792,1465.763,547.284,1462.227,565.008Z" transform="translate(149.028 50.945)" fill="none" stroke="#90949c" stroke-miterlimit="10" stroke-width="3" opacity="0.25"/>
      <path id="Path_25346" data-name="Path 25346" d="M1472.906,563.754c-3.137,15.751,6.961,22.69,23.688,21.759,13.069-.732,23.688-9.743,23.688-21.759s-10.619-21.061-23.688-21.759C1480.554,541.108,1475.178,552.359,1472.906,563.754Z" transform="translate(150.221 52.121)" fill="none" stroke="#90949c" stroke-miterlimit="10" stroke-width="3" opacity="0.25"/>
      <path id="Path_25347" data-name="Path 25347" d="M1418.4,568.858c-11.339,56.908,25.118,81.959,85.562,78.59,47.187-2.627,85.573-35.182,85.573-78.59s-38.386-75.985-85.573-78.6C1446.013,487.054,1426.593,527.679,1418.4,568.858Z" transform="translate(144.148 46.496)" fill="none" stroke="#90949c" stroke-miterlimit="10" stroke-width="3" opacity="0.25"/>
      <path id="Path_25348" data-name="Path 25348" d="M1447.948,881.9c1.541,109.593-44.227,174.4-134.123,164.052-83.511-9.61-126.209-62.229-134.123-164.052-8.081-104,25.783-165.515,134.123-164.052C1400.972,719.027,1446.518,780.514,1447.948,881.9Z" transform="translate(118.359 71.197)" fill="#90949c" opacity="0.25" style="isolation: isolate"/>
      <path id="Path_25349" data-name="Path 25349" d="M1435.247,880.1c1.419,100.36-40.492,159.706-122.817,150.229-76.483-8.8-115.579-56.986-122.828-150.229-7.394-95.228,23.61-151.571,122.828-150.229C1392.228,730.959,1433.939,787.246,1435.247,880.1Z" transform="translate(119.443 72.501)" fill="none" stroke="#90949c" stroke-miterlimit="10" stroke-width="3" opacity="0.25"/>
      <path id="Path_25350" data-name="Path 25350" d="M1424.715,879.246c1.3,92-37.122,146.394-112.586,137.715-70.1-8.07-105.935-52.242-112.586-137.715-6.773-87.313,21.67-138.934,112.564-137.7C1385.265,742.529,1423.485,794.15,1424.715,879.246Z" transform="translate(120.531 73.767)" fill="none" stroke="#90949c" stroke-miterlimit="10" stroke-width="3" opacity="0.25"/>
      <path id="Path_25351" data-name="Path 25351" d="M1412.616,877.161c1.175,83.012-33.5,132.106-101.59,124.269-63.26-7.282-95.6-47.143-101.6-124.269-6.119-78.778,19.531-125.378,101.6-124.269C1377.079,753.757,1411.541,800.323,1412.616,877.161Z" transform="translate(121.612 74.998)" fill="none" stroke="#90949c" stroke-miterlimit="10" stroke-width="3" opacity="0.25"/>
      <path id="Path_25352" data-name="Path 25352" d="M1397.5,875.016c1.009,71.573-28.887,113.905-87.568,107.144-54.536-6.285-82.436-40.647-87.568-107.144-5.276-67.926,16.837-108.108,87.568-107.155C1366.8,768.638,1396.568,808.786,1397.5,875.016Z" transform="translate(123.029 76.622)" fill="none" stroke="#90949c" stroke-miterlimit="10" stroke-width="3" opacity="0.25"/>
      <path id="Path_25353" data-name="Path 25353" d="M1384.908,873.65c.876,61.985-25.007,98.653-75.852,92.778-47.231-5.431-71.385-35.194-75.863-92.778-4.567-58.815,14.587-93.609,75.863-92.789C1358.3,781.526,1384.109,816.321,1384.908,873.65Z" transform="translate(124.214 78.032)" fill="none" stroke="#90949c" stroke-miterlimit="10" stroke-width="3" opacity="0.25"/>
      <path id="Path_25354" data-name="Path 25354" d="M1372.279,872.839c.743,52.751-21.293,83.955-64.568,78.966-40.2-4.622-60.766-29.928-64.568-78.966-3.891-50.069,12.4-79.676,64.568-78.978C1349.622,794.427,1371.559,824.022,1372.279,872.839Z" transform="translate(125.304 79.442)" fill="none" stroke="#90949c" stroke-miterlimit="10" stroke-width="3" opacity="0.25"/>
      <path id="Path_25355" data-name="Path 25355" d="M1356.35,870.6c.576,40.581-16.372,64.579-49.659,60.744-30.926-3.558-46.733-23.034-49.67-60.744-2.993-38.508,9.544-61.287,49.67-60.743C1338.914,810.293,1355.774,833.061,1356.35,870.6Z" transform="translate(126.823 81.178)" fill="none" stroke="#90949c" stroke-miterlimit="10" stroke-width="3" opacity="0.25"/>
      <path id="Path_25356" data-name="Path 25356" d="M1342.96,868.74c.432,30.638-12.359,48.772-37.5,45.868-23.355-2.682-35.3-17.392-37.51-45.868-2.217-29.086,7.205-46.289,37.51-45.879C1329.78,823.182,1342.516,840.374,1342.96,868.74Z" transform="translate(128.02 82.588)" fill="none" stroke="#90949c" stroke-miterlimit="10" stroke-width="3" opacity="0.25"/>
      <path id="Path_25357" data-name="Path 25357" d="M1330.288,867.342c.3,21.061-8.479,33.464-25.738,31.48-16.028-1.84-24.22-11.938-25.738-31.48-1.552-19.952,4.944-31.768,25.738-31.491C1321.277,836.083,1330.033,847.877,1330.288,867.342Z" transform="translate(129.208 83.997)" fill="none" stroke="#90949c" stroke-miterlimit="10" stroke-width="3" opacity="0.25"/>
      <path id="Path_25358" data-name="Path 25358" d="M1318.627,866.54c.177,12.625-5.1,20.085-15.452,18.844-9.621-1.109-14.543-7.172-15.452-18.844-.931-11.982,2.971-19.066,15.452-18.9C1313.206,847.773,1318.46,854.856,1318.627,866.54Z" transform="translate(130.184 85.276)" fill="none" stroke="#90949c" stroke-miterlimit="10" stroke-width="3" opacity="0.25"/>
      <path id="Path_25359" data-name="Path 25359" d="M1797.563,895.809c2.217,57.884-39.9,87.934-111.954,83.689-68.724-4.046-107.742-33.475-111.954-83.689-5.853-69.833,26.98-95.483,111.954-83.689C1748.9,820.9,1795.446,839.277,1797.563,895.809Z" transform="translate(161.138 81.125)" fill="#90949c" opacity="0.25" style="isolation: isolate"/>
      <path id="Path_25360" data-name="Path 25360" d="M1782.785,894.142c1.9,50.734-34.916,77.06-98.109,73.336-60.2-3.536-94.418-29.33-98.1-73.336-5.132-61.176,23.632-83.666,98.1-73.336C1740.142,828.51,1780.922,844.616,1782.785,894.142Z" transform="translate(162.549 82.104)" fill="none" stroke="#90949c" stroke-miterlimit="10" stroke-width="3" opacity="0.25"/>
      <path id="Path_25361" data-name="Path 25361" d="M1766.067,892.7c1.618,43.075-29.64,65.4-83.29,62.262-51.111-3-80.163-24.9-83.289-62.262-4.356-51.942,20.063-71.03,83.289-62.262C1729.865,836.981,1764.493,850.659,1766.067,892.7Z" transform="translate(163.958 83.189)" fill="none" stroke="#90949c" stroke-miterlimit="10" stroke-width="3" opacity="0.25"/>
      <path id="Path_25362" data-name="Path 25362" d="M1752.736,891.892c1.374,36.89-25.406,56.044-71.363,53.339-43.8-2.572-68.724-21.338-71.363-53.339-3.735-44.5,17.192-60.865,71.363-53.35C1721.722,844.14,1751.384,855.867,1752.736,891.892Z" transform="translate(165.107 84.099)" fill="none" stroke="#90949c" stroke-miterlimit="10" stroke-width="3" opacity="0.25"/>
      <path id="Path_25363" data-name="Path 25363" d="M1740.191,890.316c1.108,30.56-21.061,46.422-59.1,44.183-36.269-2.128-56.886-17.669-59.114-44.183-3.081-36.867,14.244-50.413,59.114-44.183C1714.453,850.711,1739.082,860.387,1740.191,890.316Z" transform="translate(166.413 84.955)" fill="none" stroke="#90949c" stroke-miterlimit="10" stroke-width="3" opacity="0.25"/>
      <path id="Path_25364" data-name="Path 25364" d="M1723.372,888.91c.865,23.134-15.929,35.149-44.748,33.453-27.457-1.618-43.052-13.379-44.737-33.453-2.339-27.9,10.774-38.164,44.737-33.442C1703.874,858.971,1722.5,866.32,1723.372,888.91Z" transform="translate(167.714 86.005)" fill="none" stroke="#90949c" stroke-miterlimit="10" stroke-width="3" opacity="0.25"/>
      <path id="Path_25365" data-name="Path 25365" d="M1706.336,887.212c.565,15.141-10.42,23-29.275,21.892-17.968-1.108-28.177-8.757-29.274-21.892-1.541-18.256,7.05-24.963,29.274-21.881C1693.588,867.636,1705.759,872.447,1706.336,887.212Z" transform="translate(169.231 87.117)" fill="none" stroke="#90949c" stroke-miterlimit="10" stroke-width="3" opacity="0.25"/>
      <path id="Path_25366" data-name="Path 25366" d="M1696.493,886.883c.377,10.276-7.083,15.618-19.885,14.864-12.193-.72-19.143-5.952-19.886-14.864-1.042-12.4,4.789-16.97,19.886-14.875C1687.836,873.571,1696.105,876.841,1696.493,886.883Z" transform="translate(170.206 87.866)" fill="none" stroke="#90949c" stroke-miterlimit="10" stroke-width="3" opacity="0.25"/>
      <path id="Path_25367" data-name="Path 25367" d="M1742.76,450.9c25.882,3.325,61.131,50.28,80,126.364s4.057,128.282-11.694,149.076c-36.79,48.595-51.133-24.874-80-126.364C1706.912,515.011,1687.06,443.782,1742.76,450.9Z" transform="translate(175.66 42.193)" fill="#90949c" opacity="0.25" style="isolation: isolate"/>
      <path id="Path_25368" data-name="Path 25368" d="M1748.282,474.259c20.872,2.66,49.3,40.57,64.523,101.912s3.325,103.474-9.433,120.257c-29.673,39.2-41.246-20.063-64.523-101.912C1719.363,525.946,1703.323,468.539,1748.282,474.259Z" transform="translate(177.01 44.738)" fill="none" stroke="#90949c" stroke-miterlimit="10" stroke-width="3" opacity="0.25"/>
      <path id="Path_25369" data-name="Path 25369" d="M1751.312,488.823c17.924,2.217,42.343,34.817,55.423,87.491s2.793,88.821-8.081,103.231c-25.495,33.653-35.471-17.226-55.423-87.5C1726.482,533.228,1712.715,483.9,1751.312,488.823Z" transform="translate(177.783 46.323)" fill="none" stroke="#90949c" stroke-miterlimit="10" stroke-width="3" opacity="0.25"/>
      <path id="Path_25370" data-name="Path 25370" d="M1756.555,511.454c13.224,1.685,31.236,25.694,40.869,64.557s2.073,65.554-5.964,76.184c-18.844,24.829-26.137-12.714-40.88-64.556C1738.232,544.232,1728.068,507.83,1756.555,511.454Z" transform="translate(179.057 48.787)" fill="none" stroke="#90949c" stroke-miterlimit="10" stroke-width="3" opacity="0.25"/>
      <path id="Path_25371" data-name="Path 25371" d="M1760.912,529.338c9.755,1.242,23.045,18.955,30.161,47.664s1.53,48.373-4.434,56.21c-13.867,18.323-19.276-9.378-30.161-47.664C1747.422,553.513,1739.929,526.667,1760.912,529.338Z" transform="translate(180.054 50.734)" fill="none" stroke="#90949c" stroke-miterlimit="10" stroke-width="3" opacity="0.25"/>
      <path id="Path_25372" data-name="Path 25372" d="M1764.675,547.41c5.786.743,13.679,11.251,17.891,28.266s.909,28.7-2.6,33.342c-8.236,10.874-11.439-5.542-17.9-28.255C1756.661,561.765,1752.205,545.858,1764.675,547.41Z" transform="translate(181.057 52.703)" fill="none" stroke="#90949c" stroke-miterlimit="10" stroke-width="3" opacity="0.25"/>
      <path id="Path_25373" data-name="Path 25373" d="M1767.814,561.566c2.682.333,6.34,5.21,8.3,13.091s.421,13.3-1.219,15.519c-3.813,5.032-5.3-2.583-8.291-13.1C1764.1,568.205,1762.039,560.779,1767.814,561.566Z" transform="translate(181.865 54.243)" fill="none" stroke="#90949c" stroke-miterlimit="10" stroke-width="3" opacity="0.25"/>
    </g>
  </g>
</svg>
