<svg xmlns="http://www.w3.org/2000/svg" xmlns:xlink="http://www.w3.org/1999/xlink" width="1920" height="1079" viewBox="0 0 1920 1079">
  <defs>
    <clipPath id="clip-Bg-desktop-2">
      <rect width="1920" height="1079"/>
    </clipPath>
  </defs>
  <g id="Bg-desktop-2" clip-path="url(#clip-Bg-desktop-2)">
    <g id="bg_wallpaper_gray-02" data-name="bg wallpaper gray-02" transform="translate(-122.911 -77.936)">
      <path id="Path_25497" data-name="Path 25497" d="M443.908,354.392C465.6,518.848,393.492,584.531,273.59,573.938c-79.218-7.005-158.888-22.509-170.318-219.546-7.2-124.055,94.654-246.424,170.318-219.546C368.086,168.434,431.2,258.2,443.908,354.392Z" transform="translate(0 7.001)" fill="#90949c" opacity="0.25" style="isolation: isolate"/>
      <path id="Path_25498" data-name="Path 25498" d="M417.342,349.452c18.6,141.042-43.242,197.377-146.089,188.289-67.9-6.009-136.232-19.306-145.987-188.289C119.042,243.074,206.4,138.1,271.254,161.174,352.361,189.976,406.467,267,417.342,349.452Z" transform="translate(2.902 10.537)" fill="none" stroke="#1a1a1a" stroke-miterlimit="10" stroke-width="3" opacity="0.25"/>
      <path id="Path_25499" data-name="Path 25499" d="M398.662,346.636c16.387,124.315-38.1,173.962-128.74,165.961-59.877-5.262-120.094-16.975-128.74-165.961-5.443-93.771,71.556-186.275,128.74-165.9C341.388,206.081,389.111,273.97,398.662,346.636Z" transform="translate(5.004 13.161)" fill="none" stroke="#1a1a1a" stroke-miterlimit="10" stroke-width="3" opacity="0.25"/>
      <path id="Path_25500" data-name="Path 25500" d="M388.758,345.526c15.255,115.669-35.467,161.83-119.8,154.418C213.212,495.01,157.2,484.1,149.17,345.526,144.1,258.273,215.78,172.2,268.969,191.1,335.456,214.726,379.874,277.9,388.758,345.526Z" transform="translate(6.058 14.554)" fill="none" stroke="#1a1a1a" stroke-miterlimit="10" stroke-width="3" opacity="0.25"/>
      <path id="Path_25501" data-name="Path 25501" d="M376.494,344.064C390.391,449.491,344.173,491.59,267.32,484.8c-50.812-4.527-101.851-14.429-109.173-140.736-4.617-79.512,60.669-157.949,109.173-140.725C327.922,224.853,368.368,282.489,376.494,344.064Z" transform="translate(7.243 16.197)" fill="none" stroke="#1a1a1a" stroke-miterlimit="10" stroke-width="3" opacity="0.25"/>
      <path id="Path_25502" data-name="Path 25502" d="M357.918,341.7c11.77,89.188-27.341,124.858-92.4,119.11C222.512,457,179.3,448.6,173.1,341.7c-3.9-67.3,51.356-133.7,92.413-119.121C316.8,240.762,351.037,289.538,357.918,341.7Z" transform="translate(9.217 18.779)" fill="none" stroke="#1a1a1a" stroke-miterlimit="10" stroke-width="3" opacity="0.25"/>
      <path id="Path_25503" data-name="Path 25503" d="M340.582,339.218c9.778,74.125-22.724,103.719-76.751,98.943-35.716-3.157-71.6-10.185-76.762-98.943-3.237-55.894,42.664-111.052,76.762-98.932C306.439,255.417,334.866,295.9,340.582,339.218Z" transform="translate(11.061 21.156)" fill="none" stroke="#1a1a1a" stroke-miterlimit="10" stroke-width="3" opacity="0.25"/>
      <path id="Path_25504" data-name="Path 25504" d="M329.436,337.177c8.5,64.4-19.737,90.127-66.69,86.008-31.042-2.739-62.242-8.816-66.69-86.008-2.818-48.572,37.063-96.487,66.69-86.008C299.764,264.387,324.48,299.56,329.436,337.177Z" transform="translate(12.247 22.62)" fill="none" stroke="#1a1a1a" stroke-miterlimit="10" stroke-width="3" opacity="0.25"/>
      <path id="Path_25505" data-name="Path 25505" d="M314.582,335.538c6.79,51.446-15.776,71.986-53.28,68.682-24.8-2.2-49.7-7.05-53.28-68.682-2.263-38.805,29.616-77.09,53.28-68.682C290.885,277.358,310.61,305.435,314.582,335.538Z" transform="translate(13.826 24.723)" fill="none" stroke="#1a1a1a" stroke-miterlimit="10" stroke-width="3" opacity="0.25"/>
      <path id="Path_25506" data-name="Path 25506" d="M294.773,332.258c4.527,34.177-10.479,47.825-35.4,45.629-16.466-1.46-33.011-4.73-35.365-45.629-1.494-25.768,19.669-51.2,35.388-45.618C279.02,293.623,292.17,312.284,294.773,332.258Z" transform="translate(15.937 27.38)" fill="none" stroke="#1a1a1a" stroke-miterlimit="10" stroke-width="3" opacity="0.25"/>
      <path id="Path_25507" data-name="Path 25507" d="M279.344,330.849c2.761,20.959-6.417,29.322-21.694,27.975-10.095-.894-20.234-2.874-21.694-27.975-.917-15.844,12.064-31.382,21.694-27.964C269.691,307.163,277.737,318.6,279.344,330.849Z" transform="translate(17.513 29.559)" fill="none" stroke="#1a1a1a" stroke-miterlimit="10" stroke-width="3" opacity="0.25"/>
      <path id="Path_25508" data-name="Path 25508" d="M921.382,347.179C959.429,431.1,809.051,536.045,717.114,529.946c-297.632-19.737-306.98-368.611,0-365.533C816.645,165.408,905.539,312.2,921.382,347.179Z" transform="translate(51.021 11.385)" fill="#90949c" opacity="0.25" style="isolation: isolate"/>
      <path id="Path_25509" data-name="Path 25509" d="M893.894,344.311c33.645,74.284-99.43,167.172-180.809,161.751-263.467-17.473-271.739-326.286,0-323.57C801.186,183.409,879.872,313.371,893.894,344.311Z" transform="translate(53.918 13.766)" fill="none" stroke="#1a1a1a" stroke-miterlimit="10" stroke-width="3" opacity="0.25"/>
      <path id="Path_25510" data-name="Path 25510" d="M877.769,343.119C908.777,411.552,786.182,497.1,711.23,492.128c-242.655-16.093-250.283-300.518,0-298.006C792.372,194.937,864.845,314.623,877.769,343.119Z" transform="translate(55.761 15.297)" fill="none" stroke="#1a1a1a" stroke-miterlimit="10" stroke-width="3" opacity="0.25"/>
      <path id="Path_25511" data-name="Path 25511" d="M854.474,341.583c27.364,60.375-80.791,135.881-146.971,131.49-214.137-14.191-220.859-265.2,0-262.992C779.115,210.806,843.066,316.437,854.474,341.583Z" transform="translate(58.132 17.399)" fill="none" stroke="#1a1a1a" stroke-miterlimit="10" stroke-width="3" opacity="0.25"/>
      <path id="Path_25512" data-name="Path 25512" d="M817.653,338.057c21.57,47.531-63.668,107.057-115.782,103.605-168.689-11.192-173.928-208.942,0-207.211C758.308,234.983,808.7,318.207,817.653,338.057Z" transform="translate(61.952 20.609)" fill="none" stroke="#1a1a1a" stroke-miterlimit="10" stroke-width="3" opacity="0.25"/>
      <path id="Path_25513" data-name="Path 25513" d="M806.3,337.362c19.589,43.219-57.84,97.245-105.179,94.111-153.264-10.185-158.073-189.806,0-188.221C752.368,243.7,798.1,319.312,806.3,337.362Z" transform="translate(63.399 21.768)" fill="none" stroke="#1a1a1a" stroke-miterlimit="10" stroke-width="3" opacity="0.25"/>
      <path id="Path_25514" data-name="Path 25514" d="M783.019,334.763c15.945,35.184-47.078,79.161-85.612,76.6-124.734-8.273-128.661-154.486,0-153.2C739.144,258.59,776.365,320.119,783.019,334.763Z" transform="translate(65.771 23.733)" fill="none" stroke="#1a1a1a" stroke-miterlimit="10" stroke-width="3" opacity="0.25"/>
      <path id="Path_25515" data-name="Path 25515" d="M759.6,332.592c12.2,26.911-36.033,60.568-65.513,58.61-95.457-6.326-98.456-118.215,0-117.231C726.005,274.288,754.49,321.377,759.6,332.592Z" transform="translate(68.272 25.813)" fill="none" stroke="#1a1a1a" stroke-miterlimit="10" stroke-width="3" opacity="0.25"/>
      <path id="Path_25516" data-name="Path 25516" d="M736.15,330.409c8.465,18.661-24.965,41.985-45.414,40.627-66.169-4.38-68.24-81.945,0-81.266C712.916,290.031,732.675,322.635,736.15,330.409Z" transform="translate(70.768 27.894)" fill="none" stroke="#1a1a1a" stroke-miterlimit="10" stroke-width="3" opacity="0.25"/>
      <path id="Path_25517" data-name="Path 25517" d="M718.823,329.951c5.6,12.358-16.534,27.805-30.069,26.911-43.819-2.908-45.2-54.321,0-53.811C703.41,303.186,716.492,324.813,718.823,329.951Z" transform="translate(72.749 29.643)" fill="none" stroke="#1a1a1a" stroke-miterlimit="10" stroke-width="3" opacity="0.25"/>
      <path id="Path_25518" data-name="Path 25518" d="M834.073,339.5c24.15,53.28-71.3,119.958-129.691,116.031-188.991-12.528-194.91-234.02,0-232.074C767.508,224.073,823.956,317.267,834.073,339.5Z" transform="translate(60.244 19.161)" fill="none" stroke="#1a1a1a" stroke-miterlimit="10" stroke-width="3" opacity="0.25"/>
      <path id="Path_25519" data-name="Path 25519" d="M444.89,817.654c14.157,149.008-50.643,218.516-168.055,202.005-103.549-14.553-145.749-70.391-168.055-202.005-24.4-143.927,47.666-217.577,168.055-202.005C368.886,627.554,434.343,706.591,444.89,817.654Z" transform="translate(0.15 70.537)" fill="#90949c" opacity="0.25" style="isolation: isolate"/>
      <path id="Path_25520" data-name="Path 25520" d="M425.235,815.523c12.63,132.984-45.2,195.011-149.982,180.288-92.379-12.992-130.076-62.831-149.982-180.288C103.5,687.077,167.811,621.349,275.253,635.212,357.4,645.861,415.819,716.4,425.235,815.523Z" transform="translate(2.389 73.143)" fill="none" stroke="#1a1a1a" stroke-miterlimit="10" stroke-width="3" opacity="0.25"/>
      <path id="Path_25521" data-name="Path 25521" d="M412.457,814.083c11.77,123.9-42.155,181.692-139.74,167.964-86.008-12.1-121.18-58.576-139.729-167.964C112.7,694.408,172.6,633.161,272.717,646.119,349.264,656.021,403.686,721.738,412.457,814.083Z" transform="translate(3.442 74.594)" fill="none" stroke="#1a1a1a" stroke-miterlimit="10" stroke-width="3" opacity="0.25"/>
      <path id="Path_25522" data-name="Path 25522" d="M400.2,811.783c10.808,113.734-38.658,166.787-128.265,154.192-79.014-11.113-111.244-53.755-128.287-154.192-18.6-109.852,36.395-166.063,128.287-154.192C342.192,666.645,392.155,727.02,400.2,811.783Z" transform="translate(4.89 76.124)" fill="none" stroke="#1a1a1a" stroke-miterlimit="10" stroke-width="3" opacity="0.25"/>
      <path id="Path_25523" data-name="Path 25523" d="M386.56,810.667c9.823,103.4-35.15,151.645-116.563,140.17-71.828-10.095-101.138-48.843-116.563-140.17-16.975-99.882,33.079-150.989,116.62-140.181C333.812,678.747,379.238,733.588,386.56,810.667Z" transform="translate(6.219 77.84)" fill="none" stroke="#1a1a1a" stroke-miterlimit="10" stroke-width="3" opacity="0.25"/>
      <path id="Path_25524" data-name="Path 25524" d="M364.168,807.793c8.182,86.178-29.3,126.375-97.2,116.835-59.877-8.42-84.3-40.741-97.2-116.835-14.089-83.247,27.568-125.843,97.2-116.835C320.225,697.839,358.079,743.547,364.168,807.793Z" transform="translate(8.444 80.568)" fill="none" stroke="#1a1a1a" stroke-miterlimit="10" stroke-width="3" opacity="0.25"/>
      <path id="Path_25525" data-name="Path 25525" d="M339.193,804.5c6.315,66.509-22.634,97.54-75.019,90.161-46.207-6.5-65.049-31.415-75.008-90.161-10.9-64.246,21.276-97.121,75.008-90.172C305.265,719.645,334.485,754.92,339.193,804.5Z" transform="translate(11.08 83.68)" fill="none" stroke="#1a1a1a" stroke-miterlimit="10" stroke-width="3" opacity="0.25"/>
      <path id="Path_25526" data-name="Path 25526" d="M323.077,801.838c5.025,52.895-17.971,77.554-59.651,71.7-36.734-5.172-51.729-24.987-59.651-71.7-8.657-51.084,16.975-77.226,59.651-71.7C296.041,734.367,319.274,762.422,323.077,801.838Z" transform="translate(13.061 85.787)" fill="none" stroke="#1a1a1a" stroke-miterlimit="10" stroke-width="3" opacity="0.25"/>
      <path id="Path_25527" data-name="Path 25527" d="M302.2,800.792c3.5,36.78-12.505,53.947-41.487,49.862-25.565-3.587-35.988-17.371-41.5-49.862-6.021-35.535,11.769-53.721,41.5-49.873C283.439,753.861,299.6,773.372,302.2,800.792Z" transform="translate(15.162 88.553)" fill="none" stroke="#1a1a1a" stroke-miterlimit="10" stroke-width="3" opacity="0.25"/>
      <path id="Path_25528" data-name="Path 25528" d="M285.054,798.565c2.162,22.747-7.729,33.362-25.655,30.838-15.844-2.263-22.249-10.74-25.655-30.838-3.723-21.977,7.277-33.215,25.655-30.838C273.489,769.537,283.481,781.657,285.054,798.565Z" transform="translate(17.133 90.791)" fill="none" stroke="#1a1a1a" stroke-miterlimit="10" stroke-width="3" opacity="0.25"/>
      <path id="Path_25529" data-name="Path 25529" d="M842.836,819.407c-15.945,143.554-63.872,234.564-161.83,218.98-108.143-17.2-197.954-77.747-161.831-218.98,19.239-75.257,68.953-215.257,161.831-218.98C795.385,595.9,856.088,700.116,842.836,819.407Z" transform="translate(53.745 68.784)" fill="#90949c" opacity="0.25" style="isolation: isolate"/>
      <path id="Path_25530" data-name="Path 25530" d="M822.353,817.093c-14.1,126.884-56.46,207.324-143.045,193.517C583.727,995.4,504.35,941.895,536.275,817.093c16.975-66.566,60.941-190.27,143.033-193.518C780.356,619.479,834.021,711.677,822.353,817.093Z" transform="translate(56.121 71.833)" fill="none" stroke="#1a1a1a" stroke-miterlimit="10" stroke-width="3" opacity="0.25"/>
      <path id="Path_25531" data-name="Path 25531" d="M807.069,814.515c-12.822,115.511-51.39,188.742-130.211,176.2-87.072-13.829-159.329-62.571-130.268-176.2,15.493-60.59,55.452-173.147,130.211-176.192C768.853,634.646,817.673,718.548,807.069,814.515Z" transform="translate(57.564 73.778)" fill="none" stroke="#1a1a1a" stroke-miterlimit="10" stroke-width="3" opacity="0.25"/>
      <path id="Path_25532" data-name="Path 25532" d="M791.676,811.008c-11.464,103.243-45.935,168.7-116.393,157.5-77.781-12.369-142.4-55.939-116.371-157.5,13.84-54.162,49.59-154.814,116.382-157.5C757.545,650.219,801.2,725.216,791.676,811.008Z" transform="translate(59.275 75.779)" fill="none" stroke="#1a1a1a" stroke-miterlimit="10" stroke-width="3" opacity="0.25"/>
      <path id="Path_25533" data-name="Path 25533" d="M771.116,810.2c-9.608,86.992-38.7,142.207-98.072,132.7-65.536-10.423-119.958-47.112-98.072-132.7,11.668-45.652,41.793-130.449,98.072-132.7C742.36,674.683,779.151,737.91,771.116,810.2Z" transform="translate(61.514 78.94)" fill="none" stroke="#1a1a1a" stroke-miterlimit="10" stroke-width="3" opacity="0.25"/>
      <path id="Path_25534" data-name="Path 25534" d="M741.835,805.912c-7.118,64.427-28.62,105.167-72.563,98.2-48.5-7.741-88.769-34.9-72.62-98.2,8.635-33.758,30.929-96.521,72.575-98.185C720.548,705.668,747.776,752.429,741.835,805.912Z" transform="translate(64.54 82.923)" fill="none" stroke="#1a1a1a" stroke-miterlimit="10" stroke-width="3" opacity="0.25"/>
      <path id="Path_25535" data-name="Path 25535" d="M725.314,804.012c-5.658,50.733-22.634,82.9-57.2,77.4-38.217-6.1-69.961-27.466-57.2-77.4,6.79-26.617,24.376-76.072,57.2-77.4C708.543,725.009,730,761.868,725.314,804.012Z" transform="translate(66.518 85.413)" fill="none" stroke="#1a1a1a" stroke-miterlimit="10" stroke-width="3" opacity="0.25"/>
      <path id="Path_25536" data-name="Path 25536" d="M714.177,802.8c-4.719,42.461-18.888,69.372-47.859,64.766-31.981-5.093-58.542-23-47.859-64.766,5.658-22.271,20.37-63.668,47.859-64.766C700.144,736.677,718.1,767.515,714.177,802.8Z" transform="translate(67.572 86.917)" fill="none" stroke="#1a1a1a" stroke-miterlimit="10" stroke-width="3" opacity="0.25"/>
      <path id="Path_25537" data-name="Path 25537" d="M697.241,800.085c-3.18,28.643-12.743,46.795-32.287,43.683-21.57-3.4-39.484-15.5-32.276-43.683,3.836-15.017,13.75-42.936,32.276-43.672C687.769,755.53,699.878,776.319,697.241,800.085Z" transform="translate(69.547 89.339)" fill="none" stroke="#1a1a1a" stroke-miterlimit="10" stroke-width="3" opacity="0.25"/>
      <path id="Path_25538" data-name="Path 25538" d="M684.747,798.592c-2.2,19.771-8.793,32.3-22.283,30.159-14.893-2.376-27.262-10.706-22.294-30.159,2.659-10.378,9.495-29.65,22.294-30.159C678.217,767.8,686.58,782.16,684.747,798.592Z" transform="translate(70.6 90.923)" fill="none" stroke="#1a1a1a" stroke-miterlimit="10" stroke-width="3" opacity="0.25"/>
      <path id="Path_25539" data-name="Path 25539" d="M1132.178,216.538c-34.233,101.172-273.867,1.584-254.063-89.4,9.6-44.136,88.135-57.478,158.435-44.419C1109.646,96.285,1148.87,167.106,1132.178,216.538Z" transform="translate(101.927)" fill="#90949c" opacity="0.25" style="isolation: isolate"/>
      <path id="Path_25540" data-name="Path 25540" d="M1110.778,207.62c-28.915,85.442-231.248,1.335-214.544-75.506C904.337,94.859,970.665,83.577,1030,94.6,1091.743,106.006,1124.958,165.816,1110.778,207.62Z" transform="translate(104.337 1.663)" fill="none" stroke="#1a1a1a" stroke-miterlimit="10" stroke-width="3" opacity="0.25"/>
      <path id="Path_25541" data-name="Path 25541" d="M1101.236,203.356c-26.617,78.652-212.881,1.234-197.5-69.5,7.458-34.29,68.512-44.679,123.138-34.528C1083.718,109.879,1114.239,164.936,1101.236,203.356Z" transform="translate(105.335 2.329)" fill="none" stroke="#1a1a1a" stroke-miterlimit="10" stroke-width="3" opacity="0.25"/>
      <path id="Path_25542" data-name="Path 25542" d="M1084.557,196.353c-22.475,66.35-179.507,1.041-166.538-58.61,6.281-28.926,57.716-37.685,103.832-29.129C1069.743,117.52,1095.523,163.953,1084.557,196.353Z" transform="translate(107.235 3.628)" fill="none" stroke="#1a1a1a" stroke-miterlimit="10" stroke-width="3" opacity="0.25"/>
      <path id="Path_25543" data-name="Path 25543" d="M1073.053,191.672c-19.657,58.1-157.247.905-145.885-51.344,5.511-25.338,50.609-33.011,90.965-25.508C1060.151,122.639,1082.694,163.3,1073.053,191.672Z" transform="translate(108.452 4.495)" fill="none" stroke="#1a1a1a" stroke-miterlimit="10" stroke-width="3" opacity="0.25"/>
      <path id="Path_25544" data-name="Path 25544" d="M1058.038,185.344c-16.195,47.825-129.453.747-120.094-42.268,4.527-20.857,41.657-27.16,74.872-21C1047.366,128.5,1065.96,161.975,1058.038,185.344Z" transform="translate(109.886 5.516)" fill="none" stroke="#1a1a1a" stroke-miterlimit="10" stroke-width="3" opacity="0.25"/>
      <path id="Path_25545" data-name="Path 25545" d="M1045.652,180.326c-13.037,38.545-104.307.611-96.77-34.052,3.655-16.805,33.577-21.9,60.33-16.975C1037.073,134.515,1052.057,161.495,1045.652,180.326Z" transform="translate(111.34 6.528)" fill="none" stroke="#1a1a1a" stroke-miterlimit="10" stroke-width="3" opacity="0.25"/>
      <path id="Path_25546" data-name="Path 25546" d="M1029.751,173.651c-9.212,27.228-73.7.43-68.365-24.06,2.58-11.883,23.765-15.47,42.619-11.962C1023.686,141.285,1034.255,160.342,1029.751,173.651Z" transform="translate(113.005 7.692)" fill="none" stroke="#1a1a1a" stroke-miterlimit="10" stroke-width="3" opacity="0.25"/>
      <path id="Path_25547" data-name="Path 25547" d="M1013.876,166.889c-5.262,15.561-42.11.238-39.066-13.75,1.471-6.79,13.58-8.85,24.354-6.79C1010.391,148.318,1016.457,159.25,1013.876,166.889Z" transform="translate(114.79 8.908)" fill="none" stroke="#1a1a1a" stroke-miterlimit="10" stroke-width="3" opacity="0.25"/>
      <path id="Path_25548" data-name="Path 25548" d="M1273.6,678.881c-55.973,71.183-146.519,98.456-259.529,67.81C876.088,709.232,831.692,614.352,879.4,514.7c40.741-85.114,127.054-93.239,259.529-67.81C1288.043,475.438,1353.3,577.493,1273.6,678.881Z" transform="translate(99.812 46.914)" fill="#90949c" opacity="0.25" style="isolation: isolate"/>
      <path id="Path_25549" data-name="Path 25549" d="M1255.9,671.33c-51.6,65.638-135.078,90.806-239.26,62.525C889.429,699.317,848.5,611.838,892.518,519.968c37.606-78.459,117.1-86.008,239.317-62.525C1269.221,483.844,1329.381,577.9,1255.9,671.33Z" transform="translate(101.727 48.432)" fill="none" stroke="#1a1a1a" stroke-miterlimit="10" stroke-width="3" opacity="0.25"/>
      <path id="Path_25550" data-name="Path 25550" d="M1229.621,658.51c-44.645,56.776-116.869,78.561-207,54.083C912.569,682.716,877.159,607.041,915.24,527.552c32.524-67.9,101.342-74.374,207-54.094C1241.141,496.238,1293.188,577.719,1229.621,658.51Z" transform="translate(105.023 50.751)" fill="none" stroke="#1a1a1a" stroke-miterlimit="10" stroke-width="3" opacity="0.25"/>
      <path id="Path_25551" data-name="Path 25551" d="M1216.76,652.032c-41.08,52.238-107.51,72.281-190.451,49.794-101.263-27.5-133.844-97.121-98.807-170.261,29.933-62.469,93.239-68.421,190.451-49.794C1227.353,502.775,1275.279,577.647,1216.76,652.032Z" transform="translate(106.793 51.955)" fill="none" stroke="#1a1a1a" stroke-miterlimit="10" stroke-width="3" opacity="0.25"/>
      <path id="Path_25552" data-name="Path 25552" d="M1187.109,639.005c-33.826,43-88.543,59.526-156.828,40.99-83.394-22.634-110.214-79.976-81.368-140.2,24.648-51.446,76.785-56.346,156.84-40.99C1195.834,516.094,1235.273,577.77,1187.109,639.005Z" transform="translate(109.929 54.412)" fill="none" stroke="#1a1a1a" stroke-miterlimit="10" stroke-width="3" opacity="0.25"/>
      <path id="Path_25553" data-name="Path 25553" d="M1160.468,627.236c-26.957,34.267-70.538,47.417-124.938,32.649-66.452-18.107-87.8-63.7-64.812-111.686,19.635-40.978,61.111-44.883,124.926-32.649C1167.416,529.311,1198.809,578.438,1160.468,627.236Z" transform="translate(113.099 56.822)" fill="none" stroke="#1a1a1a" stroke-miterlimit="10" stroke-width="3" opacity="0.25"/>
      <path id="Path_25554" data-name="Path 25554" d="M1128.561,612.5c-18.684,23.765-48.888,32.819-86.585,22.634-46.037-12.448-60.85-44.136-44.916-77.4,13.58-28.405,42.393-31.11,86.585-22.634C1133.371,544.653,1155.11,578.694,1128.561,612.5Z" transform="translate(116.929 59.644)" fill="none" stroke="#1a1a1a" stroke-miterlimit="10" stroke-width="3" opacity="0.25"/>
      <path id="Path_25555" data-name="Path 25555" d="M1105.536,601.388c-12.743,16.194-33.339,22.419-59.051,15.436-31.4-8.522-41.5-30.114-30.635-52.793,9.28-19.363,28.9-21.219,59.051-15.425C1108.818,555.091,1123.666,578.336,1105.536,601.388Z" transform="translate(119.662 61.598)" fill="none" stroke="#1a1a1a" stroke-miterlimit="10" stroke-width="3" opacity="0.25"/>
      <path id="Path_25556" data-name="Path 25556" d="M1085.775,590.388c-6.948,8.838-18.209,12.234-32.242,8.42-17.156-4.651-22.634-16.443-16.738-28.824,5.07-10.581,15.844-11.588,32.253-8.431C1087.575,565.107,1095.689,577.793,1085.775,590.388Z" transform="translate(122.674 63.476)" fill="none" stroke="#1a1a1a" stroke-miterlimit="10" stroke-width="3" opacity="0.25"/>
      <path id="Path_25557" data-name="Path 25557" d="M1063.86,892.32c-4.074,46.693-35.784,82.534-79.784,84.876-40.288,2.139-70.651-30.148-79.784-84.876-5.964-35.75,38.6-89.629,79.784-84.876C1028.076,812.514,1066.61,860.826,1063.86,892.32Z" transform="translate(105.456 96.024)" fill="#90949c" opacity="0.25" style="isolation: isolate"/>
      <path id="Path_25558" data-name="Path 25558" d="M1054.892,891.822c-3.667,42.042-32.219,74.306-71.828,76.411-36.214,1.924-63.6-27.16-71.828-76.411-5.364-32.185,34.754-80.689,71.828-76.411C1022.685,819.971,1057.37,863.462,1054.892,891.822Z" transform="translate(106.378 97.077)" fill="none" stroke="#1a1a1a" stroke-miterlimit="10" stroke-width="3" opacity="0.25"/>
      <path id="Path_25559" data-name="Path 25559" d="M1042.409,890.591c-3.123,35.784-27.421,63.238-61.111,65.026-30.861,1.641-54.128-23.1-61.111-65.026-4.527-27.387,29.571-68.659,61.111-65.015C1014.988,829.481,1044.514,866.43,1042.409,890.591Z" transform="translate(107.567 98.421)" fill="none" stroke="#1a1a1a" stroke-miterlimit="10" stroke-width="3" opacity="0.25"/>
      <path id="Path_25560" data-name="Path 25560" d="M1034.834,890.093c-2.784,31.812-24.388,56.233-54.321,57.829-27.443,1.46-48.13-20.54-54.321-57.829-4.063-24.365,26.3-61.111,54.321-57.829C1010.446,835.716,1036.7,868.67,1034.834,890.093Z" transform="translate(108.363 99.304)" fill="none" stroke="#1a1a1a" stroke-miterlimit="10" stroke-width="3" opacity="0.25"/>
      <path id="Path_25561" data-name="Path 25561" d="M1022.222,888.292c-2.2,25.225-19.318,44.577-43.083,45.844-21.762,1.132-38.16-16.285-43.094-45.844-3.225-19.307,20.857-48.4,43.094-45.833C1002.9,845.2,1023.715,871.282,1022.222,888.292Z" transform="translate(109.67 100.653)" fill="none" stroke="#1a1a1a" stroke-miterlimit="10" stroke-width="3" opacity="0.25"/>
      <path id="Path_25562" data-name="Path 25562" d="M1007.416,886.632c-1.494,17.111-13.1,30.239-29.231,31.1-14.712.781-25.893-11.045-29.231-31.1-2.184-13.1,14.146-32.819,29.231-31.11C994.3,857.378,1008.423,875.078,1007.416,886.632Z" transform="translate(111.382 102.38)" fill="none" stroke="#1a1a1a" stroke-miterlimit="10" stroke-width="3" opacity="0.25"/>
      <path id="Path_25563" data-name="Path 25563" d="M998.384,885.577c-1.064,12.132-9.314,21.5-20.744,22.068-10.423.566-18.345-7.865-20.744-22.068-1.55-9.3,10.038-23.3,20.744-22.068C989.081,864.8,999.1,877.361,998.384,885.577Z" transform="translate(112.436 103.436)" fill="none" stroke="#1a1a1a" stroke-miterlimit="10" stroke-width="3" opacity="0.25"/>
      <path id="Path_25564" data-name="Path 25564" d="M987.792,884.534c-.555,6.428-4.923,11.317-10.966,11.679-5.545.294-9.721-4.153-10.977-11.679-.826-4.923,5.307-12.324,10.977-11.679C982.847,873.556,988.154,880.2,987.792,884.534Z" transform="translate(113.623 104.671)" fill="none" stroke="#1a1a1a" stroke-miterlimit="10" stroke-width="3" opacity="0.25"/>
      <path id="Path_25565" data-name="Path 25565" d="M1548.569,292.832c65.524,103.119-71.828,132.656-184.464,151.079-141.89,23.2-204.076,22.034-184.464-151.079,10.513-92.8,67.278-197.976,184.464-151.079C1451.471,176.71,1514.619,239.417,1548.569,292.832Z" transform="translate(141.321 6.884)" fill="#90949c" opacity="0.25" style="isolation: isolate"/>
      <path id="Path_25566" data-name="Path 25566" d="M1536.908,292.042c61.711,97.121-67.652,124.938-173.736,142.286-133.64,21.853-192.2,20.755-173.736-142.286,9.9-87.411,63.374-186.467,173.736-142.3C1445.457,182.677,1504.938,241.728,1536.908,292.042Z" transform="translate(142.638 8.025)" fill="none" stroke="#1a1a1a" stroke-miterlimit="10" stroke-width="3" opacity="0.25"/>
      <path id="Path_25567" data-name="Path 25567" d="M1520.318,290.268c56.335,88.656-61.756,114.051-158.583,129.883-122,19.952-175.411,18.944-158.594-129.883,9.053-79.795,57.84-170.2,158.594-129.883C1436.845,190.386,1491.087,244.333,1520.318,290.268Z" transform="translate(144.482 9.55)" fill="none" stroke="#1a1a1a" stroke-miterlimit="10" stroke-width="3" opacity="0.25"/>
      <path id="Path_25568" data-name="Path 25568" d="M1504.211,288.568c50.926,80.033-55.747,102.983-143.18,117.265-110.135,18.005-158.435,17.111-143.18-117.265,8.159-72.043,52.227-153.671,143.18-117.276C1428.875,198.43,1477.865,247.1,1504.211,288.568Z" transform="translate(146.455 11.114)" fill="none" stroke="#1a1a1a" stroke-miterlimit="10" stroke-width="3" opacity="0.25"/>
      <path id="Path_25569" data-name="Path 25569" d="M1483.337,287.17c44.2,69.553-48.448,89.482-124.417,101.851-95.706,15.651-137.646,14.859-124.485-101.851,7.1-62.593,45.38-133.538,124.485-101.851C1417.846,208.846,1460.443,251.137,1483.337,287.17Z" transform="translate(148.69 13.112)" fill="none" stroke="#1a1a1a" stroke-miterlimit="10" stroke-width="3" opacity="0.25"/>
      <path id="Path_25570" data-name="Path 25570" d="M1467.112,285.888c39.054,61.462-42.811,79.071-109.943,90.048-84.582,13.829-121.644,13.139-109.954-90.048,6.27-55.317,40.1-118,109.954-90.048C1409.238,216.629,1446.877,254.054,1467.112,285.888Z" transform="translate(150.407 14.62)" fill="none" stroke="#1a1a1a" stroke-miterlimit="10" stroke-width="3" opacity="0.25"/>
      <path id="Path_25571" data-name="Path 25571" d="M1443.918,283.935c31.687,49.794-34.675,64.031-89.041,72.926-68.5,11.2-98.456,10.638-89.041-72.926,5.07-44.8,32.468-95.571,89.041-72.937C1397.033,227.883,1427.509,258.133,1443.918,283.935Z" transform="translate(152.913 16.788)" fill="none" stroke="#1a1a1a" stroke-miterlimit="10" stroke-width="3" opacity="0.25"/>
      <path id="Path_25572" data-name="Path 25572" d="M1426.131,282.169c25.689,40.424-28.156,52.057-72.314,59.232-55.634,9.053-80.01,8.635-72.326-59.232,4.131-36.395,26.38-77.622,72.326-59.232C1388.073,236.641,1412.823,261.222,1426.131,282.169Z" transform="translate(155.015 18.498)" fill="none" stroke="#1a1a1a" stroke-miterlimit="10" stroke-width="3" opacity="0.25"/>
      <path id="Path_25573" data-name="Path 25573" d="M1407.555,279.341c19.239,30.3-21.106,38.975-54.207,44.385-41.691,6.79-59.979,6.484-54.2-44.385,3.09-27.274,19.771-58.18,54.2-44.4C1379.026,245.22,1397.574,263.644,1407.555,279.341Z" transform="translate(157.386 20.228)" fill="none" stroke="#1a1a1a" stroke-miterlimit="10" stroke-width="3" opacity="0.25"/>
      <path id="Path_25574" data-name="Path 25574" d="M1385.5,276.655c12.211,19.239-13.376,24.716-34.369,28.156-26.436,4.323-38.025,4.108-34.369-28.156,1.958-17.292,12.539-36.882,34.369-28.145A74.4,74.4,0,0,1,1385.5,276.655Z" transform="translate(159.756 22.178)" fill="none" stroke="#1a1a1a" stroke-miterlimit="10" stroke-width="3" opacity="0.25"/>
      <path id="Path_25575" data-name="Path 25575" d="M1862.235,258c8.488,130.834-50.688,168.134-115.431,163.528-102.836-7.311-146.451-18.243-115.432-163.528C1650.69,167.531,1672.3,86.729,1746.8,94.47,1810.177,101.056,1856.4,167.871,1862.235,258Z" transform="translate(199.978 2.109)" fill="#90949c" opacity="0.25" style="isolation: isolate"/>
      <path id="Path_25576" data-name="Path 25576" d="M1855.017,256.9c8.024,123.648-47.9,158.9-109.094,154.554-97.189-6.915-138.4-17.247-109.094-154.554,18.254-85.487,38.692-161.83,109.094-154.542C1805.857,108.58,1849.495,171.728,1855.017,256.9Z" transform="translate(200.768 3.152)" fill="none" stroke="#1a1a1a" stroke-miterlimit="10" stroke-width="3" opacity="0.25"/>
      <path id="Path_25577" data-name="Path 25577" d="M1843.635,255.553c7.311,112.568-43.615,144.708-99.316,140.7-88.475-6.292-126-15.7-99.316-140.7,16.613-77.837,35.218-147.356,99.316-140.7C1798.888,120.521,1838.61,178.011,1843.635,255.553Z" transform="translate(201.954 4.803)" fill="none" stroke="#1a1a1a" stroke-miterlimit="10" stroke-width="3" opacity="0.25"/>
      <path id="Path_25578" data-name="Path 25578" d="M1825.461,252.908c6.122,94.507-36.621,121.452-83.394,118.125-74.284-5.285-105.79-13.173-83.382-118.125,13.953-65.343,29.571-123.715,83.382-118.125C1787.855,139.536,1821.183,187.8,1825.461,252.908Z" transform="translate(203.933 7.437)" fill="none" stroke="#1a1a1a" stroke-miterlimit="10" stroke-width="3" opacity="0.25"/>
      <path id="Path_25579" data-name="Path 25579" d="M1811.327,250.488c5.285,81.424-31.54,104.635-71.828,101.761-64-4.527-91.134-11.317-71.828-101.761,12.018-56.29,25.463-106.57,71.828-101.761C1778.96,152.824,1807.694,194.413,1811.327,250.488Z" transform="translate(205.246 9.28)" fill="none" stroke="#1a1a1a" stroke-miterlimit="10" stroke-width="3" opacity="0.25"/>
      <path id="Path_25580" data-name="Path 25580" d="M1793.61,248.063c4.153,64.178-24.9,82.466-56.584,80.214-50.439-3.587-71.828-8.952-56.584-80.214,9.472-44.373,20.087-84,56.584-80.214C1768.09,171.075,1790.735,203.848,1793.61,248.063Z" transform="translate(207.096 11.807)" fill="none" stroke="#1a1a1a" stroke-miterlimit="10" stroke-width="3" opacity="0.25"/>
      <path id="Path_25581" data-name="Path 25581" d="M1776.213,245.469c3.056,47.1-18.254,60.522-41.567,58.847-37.017-2.637-52.725-6.564-41.555-58.847,6.96-32.57,14.712-61.665,41.555-58.847C1757.484,188.965,1774.063,213.024,1776.213,245.469Z" transform="translate(208.932 14.287)" fill="none" stroke="#1a1a1a" stroke-miterlimit="10" stroke-width="3" opacity="0.25"/>
      <path id="Path_25582" data-name="Path 25582" d="M1768.09,243.841c2.558,39.428-15.278,50.677-34.788,49.285-30.985-2.263-44.136-5.5-34.788-49.285,5.828-27.262,12.335-51.6,34.788-49.273C1752.416,196.548,1766.324,216.681,1768.09,243.841Z" transform="translate(209.722 15.338)" fill="none" stroke="#1a1a1a" stroke-miterlimit="10" stroke-width="3" opacity="0.25"/>
      <path id="Path_25583" data-name="Path 25583" d="M1756.5,242.129c1.8,27.681-10.728,35.58-24.433,34.607-21.762-1.55-31-3.859-24.433-34.607,4.1-19.148,8.669-36.214,24.433-34.607C1745.486,208.914,1755.264,223.049,1756.5,242.129Z" transform="translate(211.039 17.05)" fill="none" stroke="#1a1a1a" stroke-miterlimit="10" stroke-width="3" opacity="0.25"/>
      <path id="Path_25584" data-name="Path 25584" d="M1745.394,240.1c1.132,17.3-6.711,22.238-15.266,21.626-13.58-.962-19.374-2.41-15.266-21.626,2.546-11.962,5.409-22.634,15.266-21.626C1738.513,219.349,1744.613,228.188,1745.394,240.1Z" transform="translate(212.093 18.498)" fill="none" stroke="#1a1a1a" stroke-miterlimit="10" stroke-width="3" opacity="0.25"/>
      <path id="Path_25585" data-name="Path 25585" d="M1377.658,593.776c-20.246,101.614,44.86,146.349,152.777,140.329,84.242-4.7,152.777-62.831,152.777-140.329s-68.535-135.666-152.777-140.329C1426.954,447.721,1392.37,520.216,1377.658,593.776Z" transform="translate(167.377 49.406)" fill="#90949c" opacity="0.25" style="isolation: isolate"/>
      <path id="Path_25586" data-name="Path 25586" d="M1390.319,592.669c-18.39,92.323,40.741,132.95,138.8,127.484,76.558-4.266,138.8-57.071,138.8-127.484s-62.243-123.251-138.8-127.5C1435.111,459.979,1403.627,525.877,1390.319,592.669Z" transform="translate(169.088 50.954)" fill="none" stroke="#1a1a1a" stroke-miterlimit="10" stroke-width="3" opacity="0.25"/>
      <path id="Path_25587" data-name="Path 25587" d="M1402.968,590.95c-16.466,82.613,36.486,119.03,124.27,114.141,68.523-3.825,124.259-51.107,124.259-114.141s-55.735-110.339-124.259-114.13C1443.063,472.158,1414.884,531.152,1402.968,590.95Z" transform="translate(170.8 52.492)" fill="none" stroke="#1a1a1a" stroke-miterlimit="10" stroke-width="3" opacity="0.25"/>
      <path id="Path_25588" data-name="Path 25588" d="M1417.529,589.215c-14.169,71.126,31.4,102.428,106.933,98.219,58.972-3.282,106.933-43.977,106.933-98.219S1583.434,494.267,1524.462,491C1452.057,486.967,1427.816,537.769,1417.529,589.215Z" transform="translate(172.772 54.363)" fill="none" stroke="#1a1a1a" stroke-miterlimit="10" stroke-width="3" opacity="0.25"/>
      <path id="Path_25589" data-name="Path 25589" d="M1445.779,586.161c-9.88,49.556,21.864,71.375,74.5,68.433,41.08-2.263,74.5-30.635,74.5-68.433s-33.419-66.158-74.5-68.433C1469.816,514.944,1452.92,550.309,1445.779,586.161Z" transform="translate(176.595 57.892)" fill="none" stroke="#1a1a1a" stroke-miterlimit="10" stroke-width="3" opacity="0.25"/>
      <path id="Path_25590" data-name="Path 25590" d="M1459.391,584.034c-7.65,38.4,16.975,55.294,57.716,53.019,31.834-1.777,57.716-23.765,57.716-53.019S1548.93,532.769,1517.107,531C1478,528.842,1464.9,556.252,1459.391,584.034Z" transform="translate(178.441 59.645)" fill="none" stroke="#1a1a1a" stroke-miterlimit="10" stroke-width="3" opacity="0.25"/>
      <path id="Path_25591" data-name="Path 25591" d="M1477.885,582.278c-4.979,25.01,11.045,36.01,37.606,34.539,20.732-1.132,37.594-15.47,37.594-34.539s-16.862-33.4-37.594-34.539C1490.017,546.325,1481.529,564.183,1477.885,582.278Z" transform="translate(180.94 61.854)" fill="none" stroke="#1a1a1a" stroke-miterlimit="10" stroke-width="3" opacity="0.25"/>
      <path id="Path_25592" data-name="Path 25592" d="M1488.558,580.771c-3.2,16.081,7.107,23.165,24.184,22.215,13.343-.747,24.184-9.947,24.184-22.215s-10.841-21.5-24.184-22.215C1496.366,557.651,1490.878,569.137,1488.558,580.771Z" transform="translate(182.388 63.282)" fill="none" stroke="#1a1a1a" stroke-miterlimit="10" stroke-width="3" opacity="0.25"/>
      <path id="Path_25593" data-name="Path 25593" d="M1434.085,587.069c-11.577,58.1,25.644,83.677,87.354,80.236,48.176-2.682,87.366-35.92,87.366-80.236s-39.19-77.577-87.366-80.248C1462.275,503.551,1442.448,545.027,1434.085,587.069Z" transform="translate(175.014 56.452)" fill="none" stroke="#1a1a1a" stroke-miterlimit="10" stroke-width="3" opacity="0.25"/>
      <path id="Path_25594" data-name="Path 25594" d="M1469.232,901.9c1.573,111.889-45.154,178.059-136.933,167.489-85.261-9.812-128.853-63.533-136.934-167.489-8.25-106.174,26.323-168.983,136.934-167.489C1421.272,735.613,1467.773,798.387,1469.232,901.9Z" transform="translate(143.703 86.442)" fill="#90949c" opacity="0.25" style="isolation: isolate"/>
      <path id="Path_25595" data-name="Path 25595" d="M1456.049,899.855c1.415,102.417-41.34,162.962-125.333,153.331-78.086-8.986-118-58.18-125.4-153.377-7.548-97.223,24.1-154.746,125.4-153.377C1412.129,747.542,1454.714,805.009,1456.049,899.855Z" transform="translate(145.026 88.026)" fill="none" stroke="#1a1a1a" stroke-miterlimit="10" stroke-width="3" opacity="0.25"/>
      <path id="Path_25596" data-name="Path 25596" d="M1445.093,898.691c1.324,93.93-37.9,149.461-114.945,140.6-71.568-8.239-108.155-53.336-114.945-140.6-6.892-89.12,22.1-141.834,114.945-140.589C1404.794,759.121,1443.836,811.8,1445.093,898.691Z" transform="translate(146.341 89.563)" fill="none" stroke="#1a1a1a" stroke-miterlimit="10" stroke-width="3" opacity="0.25"/>
      <path id="Path_25597" data-name="Path 25597" d="M1432.531,896.305c1.2,84.752-34.2,134.874-103.719,126.873-64.585-7.435-97.608-48.13-103.73-126.873-6.247-80.429,19.94-128,103.73-126.873C1396.249,770.338,1431.433,817.88,1432.531,896.305Z" transform="translate(147.653 91.055)" fill="none" stroke="#1a1a1a" stroke-miterlimit="10" stroke-width="3" opacity="0.25"/>
      <path id="Path_25598" data-name="Path 25598" d="M1416.824,893.822c1.03,73.073-29.492,116.292-89.4,109.388-55.679-6.417-84.163-41.5-89.4-109.388-5.387-69.349,17.19-110.373,89.4-109.4C1385.476,785.214,1415.873,826.2,1416.824,893.822Z" transform="translate(149.373 93.029)" fill="none" stroke="#1a1a1a" stroke-miterlimit="10" stroke-width="3" opacity="0.25"/>
      <path id="Path_25599" data-name="Path 25599" d="M1403.75,892.155c.894,63.284-25.531,100.72-77.441,94.722-48.221-5.545-72.88-35.931-77.452-94.722-4.663-60.047,14.893-95.571,77.452-94.733C1376.623,798.078,1402.924,833.624,1403.75,892.155Z" transform="translate(150.813 94.741)" fill="none" stroke="#1a1a1a" stroke-miterlimit="10" stroke-width="3" opacity="0.25"/>
      <path id="Path_25600" data-name="Path 25600" d="M1390.636,891.054c.758,53.857-21.74,85.714-65.921,80.621-41.046-4.719-62.038-30.555-65.92-80.621-3.972-51.118,12.663-81.345,65.92-80.632C1367.5,811,1389.9,841.215,1390.636,891.054Z" transform="translate(152.135 96.453)" fill="none" stroke="#1a1a1a" stroke-miterlimit="10" stroke-width="3" opacity="0.25"/>
      <path id="Path_25601" data-name="Path 25601" d="M1374.08,888.437c.588,41.431-16.715,65.932-50.7,62.016-31.574-3.633-47.712-23.516-50.711-62.016-3.056-39.315,9.744-62.571,50.711-62.016C1356.279,826.862,1373.492,850.107,1374.08,888.437Z" transform="translate(153.979 98.561)" fill="none" stroke="#1a1a1a" stroke-miterlimit="10" stroke-width="3" opacity="0.25"/>
      <path id="Path_25602" data-name="Path 25602" d="M1360.178,886.261c.441,31.28-12.618,49.794-38.285,46.829-23.845-2.739-36.044-17.756-38.3-46.829-2.263-29.7,7.356-47.259,38.3-46.84C1346.722,839.749,1359.725,857.3,1360.178,886.261Z" transform="translate(155.433 100.273)" fill="none" stroke="#1a1a1a" stroke-miterlimit="10" stroke-width="3" opacity="0.25"/>
      <path id="Path_25603" data-name="Path 25603" d="M1347.011,884.562c.306,21.5-8.657,34.166-26.277,32.14-16.364-1.879-24.727-12.188-26.278-32.14-1.584-20.37,5.047-32.434,26.278-32.151C1337.811,852.648,1346.74,864.689,1347.011,884.562Z" transform="translate(156.875 101.983)" fill="none" stroke="#1a1a1a" stroke-miterlimit="10" stroke-width="3" opacity="0.25"/>
      <path id="Path_25604" data-name="Path 25604" d="M1334.917,883.489c.181,12.89-5.206,20.506-15.776,19.239-9.823-1.132-14.848-7.322-15.776-19.239-.951-12.233,3.033-19.465,15.776-19.239C1329.383,864.33,1334.747,871.561,1334.917,883.489Z" transform="translate(158.06 103.542)" fill="none" stroke="#1a1a1a" stroke-miterlimit="10" stroke-width="3" opacity="0.25"/>
      <path id="Path_25605" data-name="Path 25605" d="M1817.908,914.18c2.263,59.1-40.741,89.776-114.3,85.442-70.164-4.131-110-34.177-114.3-85.442-5.975-71.3,27.545-97.483,114.3-85.442C1768.227,837.7,1815.746,856.464,1817.908,914.18Z" transform="translate(195.643 98.496)" fill="#90949c" opacity="0.25" style="isolation: isolate"/>
      <path id="Path_25606" data-name="Path 25606" d="M1802.548,912.289c1.935,51.8-35.648,78.675-100.165,74.872-61.462-3.61-96.4-29.944-100.154-74.872-5.24-62.458,24.127-85.419,100.154-74.872C1759.012,845.282,1800.646,861.726,1802.548,912.289Z" transform="translate(197.355 99.685)" fill="none" stroke="#1a1a1a" stroke-miterlimit="10" stroke-width="3" opacity="0.25"/>
      <path id="Path_25607" data-name="Path 25607" d="M1785.207,910.64c1.652,43.977-30.261,66.769-85.035,63.567-52.182-3.067-81.843-25.418-85.035-63.567-4.448-53.031,20.483-72.518,85.035-63.567C1748.247,853.717,1783.6,867.636,1785.207,910.64Z" transform="translate(199.067 101.006)" fill="none" stroke="#1a1a1a" stroke-miterlimit="10" stroke-width="3" opacity="0.25"/>
      <path id="Path_25608" data-name="Path 25608" d="M1771.375,909.607c1.4,37.662-25.938,57.218-72.858,54.456-44.713-2.625-70.164-21.785-72.858-54.456-3.814-45.437,17.552-62.141,72.858-54.468C1739.711,860.876,1769.995,872.816,1771.375,909.607Z" transform="translate(200.462 102.107)" fill="none" stroke="#1a1a1a" stroke-miterlimit="10" stroke-width="3" opacity="0.25"/>
      <path id="Path_25609" data-name="Path 25609" d="M1758.315,907.832c1.132,31.2-21.5,47.395-60.341,45.109-37.029-2.173-58.078-18.039-60.353-45.109-3.146-37.64,14.542-51.469,60.353-45.109C1732.026,867.4,1757.183,877.277,1758.315,907.832Z" transform="translate(202.047 103.146)" fill="none" stroke="#1a1a1a" stroke-miterlimit="10" stroke-width="3" opacity="0.25"/>
      <path id="Path_25610" data-name="Path 25610" d="M1740.892,906.194c.883,23.618-16.262,35.886-45.686,34.154-28.032-1.652-43.954-13.659-45.675-34.154-2.388-28.484,11-38.964,45.675-34.143C1721.008,875.628,1740,883.131,1740.892,906.194Z" transform="translate(203.626 104.422)" fill="none" stroke="#1a1a1a" stroke-miterlimit="10" stroke-width="3" opacity="0.25"/>
      <path id="Path_25611" data-name="Path 25611" d="M1723.206,904.255c.577,15.459-10.638,23.482-29.888,22.351-18.344-1.132-28.767-8.94-29.888-22.351-1.573-18.639,7.2-25.485,29.888-22.339C1710.192,884.258,1722.618,889.17,1723.206,904.255Z" transform="translate(205.468 105.772)" fill="none" stroke="#1a1a1a" stroke-miterlimit="10" stroke-width="3" opacity="0.25"/>
      <path id="Path_25612" data-name="Path 25612" d="M1712.969,903.765c.385,10.491-7.231,15.945-20.3,15.176-12.448-.736-19.544-6.077-20.3-15.176-1.064-12.663,4.889-17.326,20.3-15.187C1704.13,890.174,1712.573,893.512,1712.969,903.765Z" transform="translate(206.652 106.681)" fill="none" stroke="#1a1a1a" stroke-miterlimit="10" stroke-width="3" opacity="0.25"/>
      <path id="Path_25613" data-name="Path 25613" d="M1759.153,467.468c26.425,3.4,62.412,51.333,81.674,129.012s4.142,130.969-11.939,152.2c-37.561,49.613-52.2-25.395-81.674-129.012C1722.554,532.925,1702.252,460.214,1759.153,467.468Z" transform="translate(213.273 51.228)" fill="#90949c" opacity="0.25" style="isolation: isolate"/>
      <path id="Path_25614" data-name="Path 25614" d="M1764.529,490.827c21.31,2.716,50.337,41.42,65.875,104.047s3.4,105.642-9.631,122.776c-30.3,40.016-42.11-20.483-65.875-104.047C1735,543.6,1718.628,484.987,1764.529,490.827Z" transform="translate(214.913 54.317)" fill="none" stroke="#1a1a1a" stroke-miterlimit="10" stroke-width="3" opacity="0.25"/>
      <path id="Path_25615" data-name="Path 25615" d="M1767.472,505.39c18.3,2.263,43.23,35.546,56.584,89.324s2.852,90.682-8.25,105.394c-26.029,34.358-36.214-17.586-56.584-89.335C1742.122,550.726,1728.067,500.366,1767.472,505.39Z" transform="translate(215.851 56.242)" fill="none" stroke="#1a1a1a" stroke-miterlimit="10" stroke-width="3" opacity="0.25"/>
      <path id="Path_25616" data-name="Path 25616" d="M1772.579,528.03c13.5,1.72,31.891,26.232,41.725,65.909s2.116,66.928-6.088,77.78c-19.239,25.35-26.685-12.98-41.736-65.909C1753.872,561.482,1743.495,524.318,1772.579,528.03Z" transform="translate(217.399 59.235)" fill="none" stroke="#1a1a1a" stroke-miterlimit="10" stroke-width="3" opacity="0.25"/>
      <path id="Path_25617" data-name="Path 25617" d="M1776.835,545.9c9.959,1.267,23.528,19.352,30.793,48.662s1.562,49.387-4.527,57.388c-14.157,18.707-19.68-9.574-30.793-48.662C1763.063,570.584,1755.412,543.174,1776.835,545.9Z" transform="translate(218.609 61.598)" fill="none" stroke="#1a1a1a" stroke-miterlimit="10" stroke-width="3" opacity="0.25"/>
      <path id="Path_25618" data-name="Path 25618" d="M1780.484,564.014c5.907.758,13.965,11.487,18.265,28.858s.928,29.3-2.659,34.041c-8.408,11.1-11.679-5.658-18.277-28.847C1772.3,578.624,1767.752,562.35,1780.484,564.014Z" transform="translate(219.827 63.992)" fill="none" stroke="#1a1a1a" stroke-miterlimit="10" stroke-width="3" opacity="0.25"/>
      <path id="Path_25619" data-name="Path 25619" d="M1783.531,578.127c2.739.339,6.473,5.319,8.476,13.365s.43,13.58-1.245,15.844c-3.893,5.138-5.409-2.637-8.465-13.377C1779.74,584.906,1777.635,577.323,1783.531,578.127Z" transform="translate(220.807 65.858)" fill="none" stroke="#1a1a1a" stroke-miterlimit="10" stroke-width="3" opacity="0.25"/>
    </g>
  </g>
</svg>
