<?xml version="1.0" encoding="utf-8"?>
<!-- Generator: Adobe Illustrator 24.2.0, SVG Export Plug-In . SVG Version: 6.00 Build 0)  -->
<svg version="1.1" id="Layer_1" xmlns="http://www.w3.org/2000/svg" xmlns:xlink="http://www.w3.org/1999/xlink" x="0px" y="0px"
	 viewBox="0 0 1920 1079" style="enable-background:new 0 0 1920 1079;" xml:space="preserve">
<style type="text/css">
	.st0{clip-path:url(#SVGID_2_);}
	.st1{opacity:0.25;fill:#90949C;enable-background:new    ;}
	.st2{opacity:0.25;fill:none;stroke:#90949C;stroke-width:3;stroke-miterlimit:10;enable-background:new    ;}
</style>
<g>
	<defs>
		<rect id="SVGID_1_" x="-1940" width="1920" height="1079"/>
	</defs>
	<clipPath id="SVGID_2_">
		<use xlink:href="#SVGID_1_"  style="overflow:visible;"/>
	</clipPath>
	<g id="bg-destop-1" class="st0">
		<g id="bg_wallpaper_gray-01" transform="translate(-97.271 -51.376)">
			<path id="Path_25251" class="st1" d="M-1518.7,339c21.2,161.1-49.4,225.4-166.8,215c-77.6-6.9-155.6-22-166.8-215
				c-7.1-121.5,92.7-241.4,166.8-215C-1593,156.9-1531.1,244.8-1518.7,339z"/>
			<path id="Path_25252" class="st2" d="M-1541.9,337.6c18.2,138.1-42.4,193.3-143.1,184.4c-66.5-5.9-133.4-18.9-143-184.4
				c-6.1-104.2,79.5-207,143-184.4C-1605.6,181.4-1552.6,256.9-1541.9,337.6z"/>
			<path id="Path_25253" class="st2" d="M-1558.2,337.5c16.1,121.8-37.3,170.4-126.1,162.5c-58.7-5.2-117.6-16.6-126.1-162.5
				c-5.3-91.8,70.1-182.5,126.1-162.5C-1614.2,199.8-1567.5,266.3-1558.2,337.5z"/>
			<path id="Path_25254" class="st2" d="M-1566.8,337.7c14.9,113.3-34.7,158.5-117.3,151.2c-54.6-4.8-109.5-15.5-117.3-151.2
				c-5-85.5,65.2-169.8,117.3-151.3C-1619,209.6-1575.6,271.5-1566.8,337.7z"/>
			<path id="Path_25255" class="st2" d="M-1577.7,337.9c13.6,103.3-31.7,144.5-106.9,137.8c-49.8-4.4-99.8-14.1-106.9-137.8
				c-4.6-77.9,59.4-154.7,106.9-137.8C-1625.2,221.1-1585.6,277.5-1577.7,337.9z"/>
			<path id="Path_25256" class="st2" d="M-1593.9,338.1c11.5,87.4-26.8,122.3-90.5,116.7c-42.1-3.7-84.4-12-90.5-116.7
				c-3.8-65.9,50.3-130.9,90.5-116.6C-1634.2,239.3-1600.7,287.1-1593.9,338.1z"/>
			<path id="Path_25257" class="st2" d="M-1609.1,338.1c9.6,72.6-22.3,101.6-75.2,96.9c-35-3.1-70.1-10-75.2-96.9
				c-3.2-54.7,41.8-108.8,75.2-96.9C-1642.5,255.9-1614.7,295.6-1609.1,338.1z"/>
			<path id="Path_25258" class="st2" d="M-1618.9,337.5c8.3,63.1-19.3,88.3-65.3,84.2c-30.4-2.7-61-8.6-65.3-84.2
				c-2.8-47.6,36.3-94.5,65.3-84.2C-1648,266.2-1623.7,300.6-1618.9,337.5z"/>
			<path id="Path_25259" class="st2" d="M-1631.9,337.9c6.7,50.4-15.5,70.5-52.2,67.3c-24.3-2.1-48.7-6.9-52.2-67.3
				c-2.2-38,29-75.5,52.2-67.3C-1655.1,280.9-1635.8,308.4-1631.9,337.9z"/>
			<path id="Path_25260" class="st2" d="M-1649.2,337.3c4.4,33.5-10.3,46.8-34.7,44.7c-16.1-1.4-32.3-4.6-34.7-44.7
				c-1.5-25.2,19.3-50.1,34.7-44.7C-1664.6,299.5-1651.7,317.7-1649.2,337.3z"/>
			<path id="Path_25261" class="st2" d="M-1662.8,338.1c2.7,20.5-6.3,28.7-21.2,27.4c-9.9-0.9-19.8-2.8-21.2-27.4
				c-0.9-15.5,11.8-30.7,21.2-27.4C-1672.2,314.8-1664.3,326.1-1662.8,338.1z"/>
			<path id="Path_25262" class="st1" d="M-1001.1,336.2c37.3,82.2-110,185-200.1,179c-291.5-19.3-300.7-361,0-358
				C-1103.7,158.2-1016.6,302-1001.1,336.2z"/>
			<path id="Path_25263" class="st2" d="M-1025.2,335.8c33,72.8-97.4,163.7-177.1,158.4c-258.1-17.1-266.2-319.6,0-316.9
				C-1116,178.2-1038.9,305.5-1025.2,335.8z"/>
			<path id="Path_25264" class="st2" d="M-1039.2,336.1c30.4,67-89.7,150.8-163.1,146c-237.7-15.8-245.1-294.4,0-291.9
				C-1122.8,191-1051.8,308.1-1039.2,336.1z"/>
			<path id="Path_25265" class="st2" d="M-1059.7,336.7c26.8,59.1-79.2,133.1-144,128.8c-209.7-13.9-216.3-259.8,0-257.6
				C-1133.5,208.6-1070.8,312-1059.7,336.7z"/>
			<path id="Path_25266" class="st2" d="M-1092,336.3c21.1,46.6-62.4,104.9-113.4,101.5c-165.2-11-170.4-204.7,0-203
				C-1150.1,235.4-1100.7,316.9-1092,336.3z"/>
			<path id="Path_25267" class="st2" d="M-1101.7,336.8c19.2,42.3-56.7,95.2-103,92.2c-150.1-10-154.8-185.9,0-184.4
				C-1154.5,245.1-1109.7,319.1-1101.7,336.8z"/>
			<path id="Path_25268" class="st2" d="M-1122.2,336.2c15.6,34.5-46.1,77.5-83.9,75c-122.2-8.1-126-151.3,0-150.1
				C-1165.1,261.6-1128.7,321.8-1122.2,336.2z"/>
			<path id="Path_25269" class="st2" d="M-1142.6,336.1c11.9,26.4-35.3,59.3-64.2,57.4c-93.5-6.2-96.4-115.8,0-114.8
				C-1175.6,279-1147.6,325.1-1142.6,336.1z"/>
			<path id="Path_25270" class="st2" d="M-1163.1,336c8.3,18.3-24.5,41.1-44.5,39.8c-64.8-4.3-66.8-80.3,0-79.6
				C-1185.9,296.4-1166.6,328.4-1163.1,336z"/>
			<path id="Path_25271" class="st2" d="M-1178.2,337.3c5.5,12.1-16.2,27.2-29.5,26.4c-42.9-2.8-44.3-53.2,0-52.7
				C-1193.3,311-1180.5,332.2-1178.2,337.3z"/>
			<path id="Path_25272" class="st2" d="M-1077.6,336.3c23.7,52.2-69.8,117.5-127,113.6c-185.1-12.3-190.9-229.2,0-227.3
				C-1142.8,223.3-1087.5,314.6-1077.6,336.3z"/>
			<path id="Path_25273" class="st1" d="M-1517.6,855c13.9,145.9-49.6,214-164.6,197.9c-101.4-14.3-142.8-68.9-164.6-197.9
				c-23.9-141,46.7-213.1,164.6-197.9C-1592.1,668.8-1528,746.2-1517.6,855z"/>
			<path id="Path_25274" class="st2" d="M-1534.7,855.5c12.4,130.3-44.3,191-146.9,176.6c-90.5-12.7-127.4-61.5-146.9-176.6
				c-21.3-125.8,41.7-190.2,146.9-176.6C-1601.1,689.3-1543.9,758.4-1534.7,855.5z"/>
			<path id="Path_25275" class="st2" d="M-1546.2,855.5c11.5,121.4-41.3,178-136.9,164.5c-84.3-11.8-118.7-57.3-136.9-164.5
				c-19.8-117.3,38.8-177.2,136.9-164.5C-1608.1,700.7-1554.8,765-1546.2,855.5z"/>
			<path id="Path_25276" class="st2" d="M-1556.8,854.7c10.6,111.4-37.9,163.4-125.6,151c-77.4-10.9-109-52.7-125.7-151
				c-18.3-107.6,35.6-162.7,125.7-151C-1613.6,712.6-1564.6,771.7-1556.8,854.7z"/>
			<path id="Path_25277" class="st2" d="M-1568.8,855.3c9.6,101.3-34.4,148.5-114.2,137.3c-70.4-9.9-99.1-47.8-114.2-137.3
				c-16.6-97.8,32.4-147.9,114.2-137.3C-1620.5,726.1-1576,779.8-1568.8,855.3z"/>
			<path id="Path_25278" class="st2" d="M-1588.6,855.2c8,84.4-28.7,123.8-95.2,114.4c-58.6-8.2-82.6-39.9-95.2-114.4
				c-13.8-81.5,27-123.3,95.2-114.4C-1631.6,747.5-1594.5,792.2-1588.6,855.2z"/>
			<path id="Path_25279" class="st2" d="M-1610.4,855c6.2,65.1-22.2,95.5-73.5,88.3c-45.3-6.4-63.7-30.8-73.5-88.3
				c-10.7-62.9,20.8-95.1,73.5-88.3C-1643.7,771.9-1615.1,806.4-1610.4,855z"/>
			<path id="Path_25280" class="st2" d="M-1624.3,854.4c4.9,51.8-17.6,76-58.4,70.2c-36-5.1-50.7-24.5-58.4-70.2
				c-8.5-50,16.6-75.6,58.4-70.2C-1650.8,788.4-1628,815.8-1624.3,854.4z"/>
			<path id="Path_25281" class="st2" d="M-1642.7,856.1c3.4,36-12.2,52.8-40.6,48.8c-25-3.5-35.2-17-40.6-48.8
				c-5.9-34.8,11.5-52.6,40.6-48.8C-1661.1,810.2-1645.2,829.3-1642.7,856.1z"/>
			<path id="Path_25282" class="st2" d="M-1657.5,856.1c2.1,22.3-7.6,32.7-25.1,30.2c-15.5-2.2-21.8-10.5-25.1-30.2
				c-3.6-21.5,7.1-32.5,25.1-30.2C-1668.9,827.7-1659,839.5-1657.5,856.1z"/>
			<path id="Path_25283" class="st1" d="M-1075.3,855c-15.6,140.6-62.6,229.7-158.5,214.5c-105.9-16.8-193.9-76.2-158.5-214.5
				c18.8-73.7,67.5-210.8,158.5-214.5C-1121.8,636.1-1062.4,738.2-1075.3,855z"/>
			<path id="Path_25284" class="st2" d="M-1093.1,855.7c-13.8,124.3-55.3,203.1-140.1,189.5c-93.6-14.9-171.4-67.3-140.1-189.5
				c16.6-65.2,59.7-186.4,140.1-189.5C-1134.2,662.2-1081.7,752.5-1093.1,855.7z"/>
			<path id="Path_25285" class="st2" d="M-1106.7,855.1c-12.5,113.1-50.3,184.9-127.5,172.6c-85.2-13.6-156-61.3-127.5-172.6
				c15.2-59.3,54.3-169.6,127.5-172.6C-1144.1,678.9-1096.3,761.1-1106.7,855.1z"/>
			<path id="Path_25286" class="st2" d="M-1120,853.6c-11.2,101.1-45,165.2-114,154.3c-76.2-12.1-139.5-54.8-114-154.3
				c13.6-53.1,48.6-151.6,114-154.3C-1153.5,696.1-1110.7,769.6-1120,853.6z"/>
			<path id="Path_25287" class="st2" d="M-1138,855.9c-9.4,85.2-37.9,139.3-96.1,130c-64.2-10.2-117.5-46.1-96.1-130
				c11.4-44.7,40.9-127.8,96.1-130C-1166.2,723.2-1130.1,785.1-1138,855.9z"/>
			<path id="Path_25288" class="st2" d="M-1163.7,855.6c-7,63.1-28,103-71.1,96.2c-47.5-7.6-86.9-34.2-71.1-96.2
				c8.5-33.1,30.3-94.5,71.1-96.2C-1184.6,757.4-1157.9,803.2-1163.7,855.6z"/>
			<path id="Path_25289" class="st2" d="M-1178,856.2c-5.5,49.7-22.2,81.2-56,75.8c-37.4-6-68.5-26.9-56-75.8
				c6.7-26.1,23.9-74.5,56-75.8C-1194.4,778.8-1173.4,814.9-1178,856.2z"/>
			<path id="Path_25290" class="st2" d="M-1187.8,856.5c-4.6,41.6-18.5,67.9-46.9,63.4c-31.3-5-57.3-22.5-46.9-63.4
				c5.5-21.8,20-62.4,46.9-63.4C-1201.6,791.7-1184,821.9-1187.8,856.5z"/>
			<path id="Path_25291" class="st2" d="M-1202.5,856.2c-3.1,28.1-12.5,45.8-31.6,42.8c-21.1-3.3-38.7-15.2-31.6-42.8
				c3.8-14.7,13.5-42.1,31.6-42.8C-1211.8,812.6-1199.9,832.9-1202.5,856.2z"/>
			<path id="Path_25292" class="st2" d="M-1213.7,856.3c-2.2,19.4-8.6,31.6-21.8,29.5c-14.6-2.3-26.7-10.5-21.8-29.5
				c2.6-10.2,9.3-29,21.8-29.5C-1220.1,826.1-1211.9,840.2-1213.7,856.3z"/>
			<path id="Path_25293" class="st1" d="M-744.7,197.1c-33.5,99.1-268.2,1.6-248.8-87.6c9.4-43.2,86.3-56.3,155.2-43.5
				C-766.8,79.3-728.4,148.7-744.7,197.1z"/>
			<path id="Path_25294" class="st2" d="M-763.3,190c-28.3,83.7-226.5,1.3-210.1-74c7.9-36.5,72.9-47.5,131-36.7
				C-782,90.5-749.5,149.1-763.3,190z"/>
			<path id="Path_25295" class="st2" d="M-771.7,186.5c-26.1,77-208.5,1.2-193.4-68.1c7.3-33.6,67.1-43.8,120.6-33.8
				C-788.9,94.9-759,148.9-771.7,186.5z"/>
			<path id="Path_25296" class="st2" d="M-786.2,180.9c-22,65-175.8,1-163.1-57.4c6.2-28.3,56.5-36.9,101.7-28.5
				C-800.7,103.7-775.5,149.2-786.2,180.9z"/>
			<path id="Path_25297" class="st2" d="M-796.2,177.2c-19.3,56.9-154.1,0.9-142.9-50.3c5.4-24.8,49.6-32.3,89.1-25
				C-808.9,109.6-786.8,149.4-796.2,177.2z"/>
			<path id="Path_25298" class="st2" d="M-809.6,172c-15.9,46.8-126.8,0.7-117.6-41.4c4.4-20.4,40.8-26.6,73.3-20.6
				C-820,116.3-801.8,149.1-809.6,172z"/>
			<path id="Path_25299" class="st2" d="M-820.3,168.1c-12.8,37.8-102.2,0.6-94.8-33.4c3.6-16.5,32.9-21.4,59.1-16.6
				C-828.7,123.2-814,149.6-820.3,168.1z"/>
			<path id="Path_25300" class="st2" d="M-834.2,162.7c-9,26.7-72.2,0.4-67-23.6c2.5-11.6,23.3-15.2,41.7-11.7
				C-840.2,131-829.8,149.6-834.2,162.7z"/>
			<path id="Path_25301" class="st2" d="M-848,157.2c-5.2,15.2-41.2,0.2-38.3-13.5c1.4-6.7,13.3-8.7,23.9-6.7
				C-851.4,139.1-845.4,149.7-848,157.2z"/>
			<path id="Path_25302" class="st1" d="M-608.3,695.9c-54.8,69.7-143.5,96.4-254.2,66.4c-135.2-36.7-178.6-129.6-131.9-227.2
				c39.9-83.4,124.4-91.3,254.2-66.4C-594.2,496.7-530.2,596.6-608.3,695.9z"/>
			<path id="Path_25303" class="st2" d="M-623.8,690c-50.5,64.3-132.3,88.9-234.3,61.2c-124.6-33.8-164.7-119.5-121.6-209.5
				c36.8-76.9,114.7-84.2,234.4-61.2C-610.7,506.4-551.8,598.6-623.8,690z"/>
			<path id="Path_25304" class="st2" d="M-646.3,679.7c-43.7,55.6-114.5,76.9-202.7,53c-107.8-29.3-142.5-103.4-105.2-181.2
				c31.9-66.5,99.3-72.8,202.7-53C-635,520.8-584,600.6-646.3,679.7z"/>
			<path id="Path_25305" class="st2" d="M-657.1,674.6c-40.2,51.2-105.3,70.8-186.5,48.8c-99.2-26.9-131.1-95.1-96.8-166.8
				c29.3-61.2,91.3-67,186.5-48.8C-646.8,528.4-599.8,601.7-657.1,674.6z"/>
			<path id="Path_25306" class="st2" d="M-683.1,664.2c-33.1,42.1-86.7,58.3-153.6,40.1c-81.7-22.2-108-78.3-79.7-137.3
				c24.1-50.4,75.2-55.2,153.6-40.1C-674.6,543.8-635.9,604.2-683.1,664.2z"/>
			<path id="Path_25307" class="st2" d="M-706.1,655.1c-26.4,33.6-69.1,46.4-122.4,32c-65.1-17.7-86-62.4-63.5-109.4
				c19.2-40.1,59.9-44,122.4-32C-699.3,559.2-668.5,607.3-706.1,655.1z"/>
			<path id="Path_25308" class="st2" d="M-733.6,643.4c-18.3,23.3-47.9,32.1-84.8,22.2c-45.1-12.2-59.6-43.2-44-75.8
				c13.3-27.8,41.5-30.5,84.8-22.2C-728.9,576.9-707.6,610.3-733.6,643.4z"/>
			<path id="Path_25309" class="st2" d="M-753.4,634.4c-12.5,15.9-32.7,22-57.8,15.1c-30.8-8.3-40.6-29.5-30-51.7
				c9.1-19,28.3-20.8,57.8-15.1C-750.3,589.1-735.7,611.9-753.4,634.4z"/>
			<path id="Path_25310" class="st2" d="M-769.9,625.5c-6.8,8.7-17.8,12-31.6,8.2c-16.8-4.6-22.2-16.1-16.4-28.2
				c5-10.4,15.5-11.4,31.6-8.3C-768.1,600.8-760.2,613.1-769.9,625.5z"/>
			<path id="Path_25311" class="st1" d="M-808.2,953.1c-4,45.7-35,80.8-78.1,83.1c-39.5,2.1-69.2-29.5-78.1-83.1
				c-5.8-35,37.8-87.8,78.1-83.1C-843.2,874.9-805.5,922.2-808.2,953.1z"/>
			<path id="Path_25312" class="st2" d="M-816.1,953.6c-3.6,41.2-31.6,72.8-70.4,74.8c-35.5,1.9-62.3-26.6-70.4-74.8
				c-5.2-31.5,34.1-79.1,70.4-74.8C-847.7,883.3-813.7,925.9-816.1,953.6z"/>
			<path id="Path_25313" class="st2" d="M-827.2,953.7c-3.1,35-26.9,61.9-59.9,63.7c-30.2,1.6-53-22.6-59.9-63.7
				c-4.4-26.8,29-67.2,59.9-63.7C-854,893.8-825.1,930.1-827.2,953.7z"/>
			<path id="Path_25314" class="st2" d="M-833.8,954.1c-2.7,31.2-23.9,55.1-53.2,56.6c-26.9,1.4-47.1-20.1-53.2-56.6
				c-4-23.9,25.8-59.9,53.2-56.6C-857.6,900.9-832,933.1-833.8,954.1z"/>
			<path id="Path_25315" class="st2" d="M-844.9,953.7c-2.2,24.7-18.9,43.7-42.2,44.9c-21.3,1.1-37.4-16-42.2-44.9
				c-3.2-18.9,20.4-47.4,42.2-44.9C-863.8,911.5-843.4,937-844.9,953.7z"/>
			<path id="Path_25316" class="st2" d="M-857.6,953.7c-1.5,16.8-12.8,29.6-28.6,30.5c-14.4,0.8-25.4-10.8-28.6-30.5
				c-2.1-12.8,13.9-32.1,28.6-30.5C-870.5,925.1-856.7,942.4-857.6,953.7z"/>
			<path id="Path_25317" class="st2" d="M-865.5,953.7c-1,11.9-9.1,21.1-20.3,21.6c-10.3,0.5-18-7.7-20.3-21.6
				c-1.5-9.1,9.8-22.8,20.3-21.6C-874.6,933.4-864.8,945.7-865.5,953.7z"/>
			<path id="Path_25318" class="st2" d="M-874.7,953.9c-0.5,6.3-4.8,11.1-10.7,11.4c-5.4,0.3-9.5-4.1-10.8-11.4
				c-0.8-4.8,5.2-12.1,10.8-11.4C-879.6,943.2-874.4,949.7-874.7,953.9z"/>
			<path id="Path_25319" class="st1" d="M-298.3,278.6c64.2,101-70.4,129.9-180.7,148c-139,22.7-199.9,21.6-180.7-148
				c10.3-90.9,65.9-193.9,180.7-148C-393.4,164.9-331.6,226.3-298.3,278.6z"/>
			<path id="Path_25320" class="st2" d="M-308.4,278.9c60.4,95.1-66.3,122.4-170.2,139.4c-130.9,21.4-188.3,20.3-170.2-139.4
				c9.7-85.6,62.1-182.6,170.2-139.4C-398,171.8-339.8,229.7-308.4,278.9z"/>
			<path id="Path_25321" class="st2" d="M-322.9,278.6c55.2,86.8-60.5,111.7-155.3,127.2c-119.5,19.5-171.8,18.6-155.3-127.2
				c8.9-78.2,56.7-166.7,155.3-127.2C-404.7,180.9-351.5,233.7-322.9,278.6z"/>
			<path id="Path_25322" class="st2" d="M-336.7,278.6c49.9,78.4-54.6,100.9-140.2,114.9c-107.9,17.6-155.2,16.8-140.2-114.9
				c8-70.6,51.2-150.5,140.2-114.9C-410.6,190.3-362.5,238-336.7,278.6z"/>
			<path id="Path_25323" class="st2" d="M-355,279.2c43.3,68.1-47.5,87.6-121.9,99.8c-93.7,15.3-134.8,14.6-121.9-99.8
				c6.9-61.3,44.4-130.8,121.9-99.8C-419.1,202.4-377.4,243.9-355,279.2z"/>
			<path id="Path_25324" class="st2" d="M-369.2,279.4c38.3,60.2-41.9,77.4-107.7,88.2c-82.8,13.5-119.1,12.9-107.7-88.2
				c6.1-54.2,39.3-115.6,107.7-88.2C-425.9,211.5-389,248.2-369.2,279.4z"/>
			<path id="Path_25325" class="st2" d="M-389.5,279.6c31,48.8-34,62.7-87.2,71.4c-67.1,11-96.4,10.4-87.2-71.4
				c5-43.9,31.8-93.6,87.2-71.4C-435.4,224.7-405.5,254.3-389.5,279.6z"/>
			<path id="Path_25326" class="st2" d="M-404.8,279.5c25.2,39.6-27.6,51-70.8,58c-54.5,8.9-78.4,8.5-70.8-58
				c4-35.6,25.8-76,70.8-58C-442.1,235-417.9,259-404.8,279.5z"/>
			<path id="Path_25327" class="st2" d="M-420.7,278.5c18.8,29.7-20.7,38.2-53.1,43.5c-40.8,6.7-58.7,6.4-53.1-43.5
				c3-26.7,19.4-57,53.1-43.5C-448.6,245-430.5,263.1-420.7,278.5z"/>
			<path id="Path_25328" class="st2" d="M-440,277.7c12,18.8-13.1,24.2-33.7,27.6c-25.9,4.2-37.2,4-33.7-27.6
				c1.9-16.9,12.3-36.1,33.7-27.6C-459.9,255.7-448.1,265.3-440,277.7z"/>
			<path id="Path_25329" class="st1" d="M66.4,239.8C74.7,368,16.7,404.5-46.7,400c-100.7-7.2-143.4-17.9-113.1-160.2
				c18.9-88.6,40.1-167.8,113.1-160.2C15.4,86.1,60.6,151.5,66.4,239.8z"/>
			<path id="Path_25330" class="st2" d="M60.1,239.8c7.9,121.1-46.9,155.6-106.9,151.4c-95.2-6.8-135.6-16.9-106.9-151.4
				C-135.8,156-115.7,81.2-46.8,88.4C11.9,94.5,54.6,156.3,60.1,239.8z"/>
			<path id="Path_25331" class="st2" d="M50.1,240.1c7.1,110.3-42.7,141.7-97.3,137.8c-86.6-6.2-123.4-15.4-97.3-137.8
				c16.3-76.2,34.5-144.3,97.3-137.8C6.2,107.8,45.2,164.1,50.1,240.1z"/>
			<path id="Path_25332" class="st2" d="M34.2,240c6,92.6-35.9,119-81.7,115.7c-72.8-5.2-103.6-12.9-81.7-115.7
				c13.7-64,29-121.2,81.7-115.7C-2.6,129,30,176.2,34.2,240z"/>
			<path id="Path_25333" class="st2" d="M21.7,239.5c5.2,79.8-30.9,102.5-70.4,99.7c-62.7-4.4-89.3-11.1-70.4-99.7
				c11.8-55.1,24.9-104.4,70.4-99.7C-10,143.8,18.1,184.6,21.7,239.5z"/>
			<path id="Path_25334" class="st2" d="M6.1,239.6c4.1,62.9-24.4,80.8-55.4,78.6c-49.4-3.5-70.4-8.8-55.4-78.6
				c9.3-43.5,19.7-82.3,55.4-78.6C-18.9,164.2,3.3,196.3,6.1,239.6z"/>
			<path id="Path_25335" class="st2" d="M-9.1,239.4c3,46.1-17.9,59.3-40.7,57.6c-36.3-2.6-51.6-6.4-40.7-57.6
				c6.8-31.9,14.4-60.4,40.7-57.6C-27.5,184.1-11.2,207.7-9.1,239.4z"/>
			<path id="Path_25336" class="st2" d="M-16.3,238.9c2.5,38.6-15,49.6-34.1,48.3c-30.3-2.2-43.2-5.4-34.1-48.3
				c5.7-26.7,12.1-50.5,34.1-48.3C-31.7,192.6-18,212.3-16.3,238.9z"/>
			<path id="Path_25337" class="st2" d="M-26.4,238.9c1.8,27.1-10.5,34.9-23.9,33.9c-21.3-1.5-30.4-3.8-23.9-33.9
				c4-18.8,8.5-35.5,23.9-33.9C-37.2,206.4-27.6,220.2-26.4,238.9z"/>
			<path id="Path_25338" class="st2" d="M-36.2,238.3c1.1,16.9-6.6,21.8-15,21.2c-13.3-0.9-19-2.4-15-21.2
				c2.5-11.7,5.3-22.2,15-21.2C-42.9,218-37,226.7-36.2,238.3z"/>
			<path id="Path_25339" class="st1" d="M-440.2,615c-19.8,99.5,43.9,143.3,149.6,137.4c82.5-4.6,149.6-61.5,149.6-137.4
				S-208,482.1-290.6,477.6C-391.9,472-425.8,543-440.2,615z"/>
			<path id="Path_25340" class="st2" d="M-426.1,615.5c-18,90.4,39.9,130.2,136,124.9c75-4.2,136-55.9,136-124.9
				s-61-120.7-136-124.9C-382.2,485.5-413.1,550-426.1,615.5z"/>
			<path id="Path_25341" class="st2" d="M-412,615.3c-16.1,80.9,35.7,116.6,121.7,111.8c67.1-3.7,121.7-50.1,121.7-111.8
				s-54.6-108.1-121.7-111.8C-372.8,498.9-400.4,556.7-412,615.3z"/>
			<path id="Path_25342" class="st2" d="M-395.9,615.4c-13.9,69.7,30.8,100.3,104.7,96.2c57.8-3.2,104.7-43.1,104.7-96.2
				s-47-93-104.7-96.2C-362,515.3-385.8,565-395.9,615.4z"/>
			<path id="Path_25343" class="st2" d="M-364.5,615.9c-9.7,48.5,21.4,69.9,73,67c40.2-2.2,73-30,73-67s-32.7-64.8-73-67
				C-340.9,546.1-357.5,580.8-364.5,615.9z"/>
			<path id="Path_25344" class="st2" d="M-349.3,615.5c-7.5,37.6,16.6,54.2,56.5,51.9c31.2-1.7,56.5-23.3,56.5-51.9
				s-25.4-50.2-56.5-51.9C-331.1,561.4-343.9,588.3-349.3,615.5z"/>
			<path id="Path_25345" class="st2" d="M-328.7,616c-4.9,24.5,10.8,35.3,36.8,33.8c20.3-1.1,36.8-15.2,36.8-33.8
				s-16.5-32.7-36.8-33.8C-316.9,580.7-325.2,598.2-328.7,616z"/>
			<path id="Path_25346" class="st2" d="M-316.9,615.9c-3.1,15.8,7,22.7,23.7,21.8c13.1-0.7,23.7-9.7,23.7-21.8
				s-10.6-21.1-23.7-21.8C-309.2,593.2-314.6,604.5-316.9,615.9z"/>
			<path id="Path_25347" class="st2" d="M-377.5,615.4c-11.3,56.9,25.1,82,85.6,78.6c47.2-2.6,85.6-35.2,85.6-78.6
				s-38.4-76-85.6-78.6C-349.8,533.5-369.3,574.2-377.5,615.4z"/>
			<path id="Path_25348" class="st1" d="M-373.7,953.1c1.5,109.6-44.2,174.4-134.1,164.1c-83.5-9.6-126.2-62.2-134.1-164.1
				c-8.1-104,25.8-165.5,134.1-164.1C-420.7,790.2-375.1,851.7-373.7,953.1z"/>
			<path id="Path_25349" class="st2" d="M-385.3,952.6c1.4,100.4-40.5,159.7-122.8,150.2c-76.5-8.8-115.6-57-122.8-150.2
				c-7.4-95.2,23.6-151.6,122.8-150.2C-428.3,803.5-386.6,859.7-385.3,952.6z"/>
			<path id="Path_25350" class="st2" d="M-394.8,953c1.3,92-37.1,146.4-112.6,137.7c-70.1-8.1-105.9-52.2-112.6-137.7
				c-6.8-87.3,21.7-138.9,112.6-137.7C-434.2,816.3-396,867.9-394.8,953z"/>
			<path id="Path_25351" class="st2" d="M-405.8,952.2c1.2,83-33.5,132.1-101.6,124.3c-63.3-7.3-95.6-47.1-101.6-124.3
				c-6.1-78.8,19.5-125.4,101.6-124.3C-441.3,828.8-406.8,875.3-405.8,952.2z"/>
			<path id="Path_25352" class="st2" d="M-419.5,951.6c1,71.6-28.9,113.9-87.6,107.1c-54.5-6.3-82.4-40.6-87.6-107.1
				c-5.3-67.9,16.8-108.1,87.6-107.2C-450.2,845.3-420.4,885.4-419.5,951.6z"/>
			<path id="Path_25353" class="st2" d="M-430.9,951.7c0.9,62-25,98.7-75.9,92.8c-47.2-5.4-71.4-35.2-75.9-92.8
				c-4.6-58.8,14.6-93.6,75.9-92.8C-457.5,859.6-431.7,894.4-430.9,951.7z"/>
			<path id="Path_25354" class="st2" d="M-442.4,952.3c0.7,52.8-21.3,84-64.6,79c-40.2-4.6-60.8-29.9-64.6-79
				c-3.9-50.1,12.4-79.7,64.6-79C-465.1,873.9-443.1,903.5-442.4,952.3z"/>
			<path id="Path_25355" class="st2" d="M-456.8,951.8c0.6,40.6-16.4,64.6-49.7,60.7c-30.9-3.6-46.7-23-49.7-60.7
				c-3-38.5,9.5-61.3,49.7-60.7C-474.3,891.5-457.4,914.2-456.8,951.8z"/>
			<path id="Path_25356" class="st2" d="M-469,951.3c0.4,30.6-12.4,48.8-37.5,45.9c-23.4-2.7-35.3-17.4-37.5-45.9
				c-2.2-29.1,7.2-46.3,37.5-45.9C-482.2,905.8-469.5,923-469,951.3z"/>
			<path id="Path_25357" class="st2" d="M-480.5,951.3c0.3,21.1-8.5,33.5-25.7,31.5c-16-1.8-24.2-11.9-25.7-31.5
				c-1.6-20,4.9-31.8,25.7-31.5C-489.5,920.1-480.8,931.9-480.5,951.3z"/>
			<path id="Path_25358" class="st2" d="M-491.2,951.8c0.2,12.6-5.1,20.1-15.5,18.8c-9.6-1.1-14.5-7.2-15.5-18.8
				c-0.9-12,3-19.1,15.5-18.9C-496.6,933-491.4,940.1-491.2,951.8z"/>
			<path id="Path_25359" class="st1" d="M18.7,976.9c2.2,57.9-39.9,87.9-112,83.7c-68.7-4-107.7-33.5-112-83.7
				c-5.9-69.8,27-95.5,112-83.7C-30,902,16.6,920.4,18.7,976.9z"/>
			<path id="Path_25360" class="st2" d="M5.3,976.2c1.9,50.7-34.9,77.1-98.1,73.3c-60.2-3.5-94.4-29.3-98.1-73.3
				c-5.1-61.2,23.6-83.7,98.1-73.3C-37.3,910.6,3.5,926.7,5.3,976.2z"/>
			<path id="Path_25361" class="st2" d="M-10,975.9c1.6,43.1-29.6,65.4-83.3,62.3c-51.1-3-80.2-24.9-83.3-62.3
				c-4.4-51.9,20.1-71,83.3-62.3C-46.2,920.2-11.5,933.8-10,975.9z"/>
			<path id="Path_25362" class="st2" d="M-22.2,976c1.4,36.9-25.4,56-71.4,53.3c-43.8-2.6-68.7-21.3-71.4-53.3
				c-3.7-44.5,17.2-60.9,71.4-53.3C-53.2,928.2-23.5,940-22.2,976z"/>
			<path id="Path_25363" class="st2" d="M-33.4,975.3c1.1,30.6-21.1,46.4-59.1,44.2c-36.3-2.1-56.9-17.7-59.1-44.2
				c-3.1-36.9,14.2-50.4,59.1-44.2C-59.1,935.7-34.5,945.3-33.4,975.3z"/>
			<path id="Path_25364" class="st2" d="M-48.9,974.9c0.9,23.1-15.9,35.1-44.7,33.5c-27.5-1.6-43.1-13.4-44.7-33.5
				c-2.3-27.9,10.8-38.2,44.7-33.4C-68.4,945-49.8,952.3-48.9,974.9z"/>
			<path id="Path_25365" class="st2" d="M-64.4,974.3c0.6,15.1-10.4,23-29.3,21.9c-18-1.1-28.2-8.8-29.3-21.9
				c-1.5-18.3,7.1-25,29.3-21.9C-77.2,954.8-65,959.6-64.4,974.3z"/>
			<path id="Path_25366" class="st2" d="M-73.3,974.7c0.4,10.3-7.1,15.6-19.9,14.9c-12.2-0.7-19.1-6-19.9-14.9
				c-1-12.4,4.8-17,19.9-14.9C-82,961.4-73.7,964.7-73.3,974.7z"/>
			<path id="Path_25367" class="st1" d="M-21.6,493.1c25.9,3.3,61.1,50.3,80,126.4s4.1,128.3-11.7,149.1
				c-36.8,48.6-51.1-24.9-80-126.4C-57.4,557.2-77.3,486-21.6,493.1z"/>
			<path id="Path_25368" class="st2" d="M-14.7,519c20.9,2.7,49.3,40.6,64.5,101.9s3.3,103.5-9.4,120.3
				c-29.7,39.2-41.2-20.1-64.5-101.9C-43.6,570.7-59.7,513.3-14.7,519z"/>
			<path id="Path_25369" class="st2" d="M-10.9,535.1C7,537.4,31.4,570,44.5,622.6s2.8,88.8-8.1,103.2C10.9,759.5,1,708.6-19,638.4
				C-35.7,579.6-49.5,530.2-10.9,535.1z"/>
			<path id="Path_25370" class="st2" d="M-4.4,560.2c13.2,1.7,31.2,25.7,40.9,64.6s2.1,65.6-6,76.2c-18.8,24.8-26.1-12.7-40.9-64.6
				C-22.7,593-32.9,556.6-4.4,560.2z"/>
			<path id="Path_25371" class="st2" d="M1,580.1c9.8,1.2,23,19,30.2,47.7s1.5,48.4-4.4,56.2c-13.9,18.3-19.3-9.4-30.2-47.7
				C-12.5,604.2-20,577.4,1,580.1z"/>
			<path id="Path_25372" class="st2" d="M5.7,600.1c5.8,0.7,13.7,11.3,17.9,28.3s0.9,28.7-2.6,33.3c-8.2,10.9-11.4-5.5-17.9-28.3
				C-2.3,614.5-6.7,598.6,5.7,600.1z"/>
			<path id="Path_25373" class="st2" d="M9.7,615.8c2.7,0.3,6.3,5.2,8.3,13.1s0.4,13.3-1.2,15.5c-3.8,5-5.3-2.6-8.3-13.1
				C6,622.4,3.9,615,9.7,615.8z"/>
		</g>
	</g>
</g>
</svg>
