<svg xmlns="http://www.w3.org/2000/svg" width="24" height="24" viewBox="0 0 24 24">
  <g id="Group_245" data-name="Group 245" transform="translate(-51.886 -56.776)" opacity="0.773">
    <path id="Path_120" data-name="Path 120" d="M72.371,60.291a12,12,0,1,0,3.515,8.485A11.921,11.921,0,0,0,72.371,60.291Zm-8.624,1.178a1.805,1.805,0,1,1-1.805,1.805A1.806,1.806,0,0,1,63.747,61.469Zm1.807,12.7c.005.61-.213.843-.819.817-.808-.035-1.62-.009-2.5-.009l0-9.192c.9,0,1.739.022,2.578-.008.6-.021.741.266.737.8C65.539,69.11,65.534,71.641,65.554,74.171Z" transform="translate(0 0)" fill="#578e8e"/>
  </g>
</svg>
