<svg xmlns="http://www.w3.org/2000/svg" width="23" height="23" viewBox="0 0 23 23">
  <path id="instagram" d="M126.178,56.2H115.662a6.242,6.242,0,0,0-6.242,6.242V72.956a6.242,6.242,0,0,0,6.242,6.242h10.516a6.242,6.242,0,0,0,6.242-6.242V62.44A6.242,6.242,0,0,0,126.178,56.2Zm-5.235,15.4a3.86,3.86,0,1,1,3.86-3.86A3.86,3.86,0,0,1,120.943,71.6Zm6.189-8.576a1.477,1.477,0,1,1,1.477-1.477A1.477,1.477,0,0,1,127.132,63.026Z" transform="translate(-109.42 -56.198)" fill="#578e8e" opacity="0.773"/>
</svg>
