<svg xmlns="http://www.w3.org/2000/svg" width="24" height="24" viewBox="0 0 24 24">
  <path id="Path_119" data-name="Path 119" d="M40.724,34.771a12,12,0,1,0,12,12A12,12,0,0,0,40.724,34.771Zm6.915,7.6a6.021,6.021,0,0,1-1.213,1.331.521.521,0,0,0-.194.4v.046a8.511,8.511,0,0,1-.547,2.952,8.635,8.635,0,0,1-1.61,2.7,7.941,7.941,0,0,1-2.63,1.971,8.487,8.487,0,0,1-3.6.763A8.388,8.388,0,0,1,33.644,51.4a.241.241,0,0,1-.115-.267.233.233,0,0,1,.228-.176h.353A5.634,5.634,0,0,0,37.262,50a3.059,3.059,0,0,1-2.414-2.079.173.173,0,0,1-.005-.075.16.16,0,0,1,.185-.13,2.868,2.868,0,0,0,.514.049h.065a3.054,3.054,0,0,1-1.781-2.813.174.174,0,0,1,.02-.074.159.159,0,0,1,.217-.063,2.793,2.793,0,0,0,.7.269,3.055,3.055,0,0,1-.5-3.707.153.153,0,0,1,.037-.043.159.159,0,0,1,.225.023,8,8,0,0,0,5.5,2.936h.007a.116.116,0,0,0,.084-.038.106.106,0,0,0,.028-.086,3.264,3.264,0,0,1,.073-1.123,2.953,2.953,0,0,1,1.991-2.129,3.236,3.236,0,0,1,.966-.149,3.046,3.046,0,0,1,2.018.761.392.392,0,0,0,.354.089A5.623,5.623,0,0,0,47.037,41a.16.16,0,0,1,.233.186,3.048,3.048,0,0,1-.8,1.279,5.74,5.74,0,0,0,.973-.328h0a.158.158,0,0,1,.2.235Z" transform="translate(-28.724 -34.771)" fill="#578e8e" opacity="0.773"/>
</svg>
